<svg xmlns="http://www.w3.org/2000/svg" xmlns:xlink="http://www.w3.org/1999/xlink" width="300" zoomAndPan="magnify" viewBox="0 0 224.87999 337.499995" height="450" preserveAspectRatio="xMidYMid meet" version="1.0"><defs><g/><clipPath id="ce5f7712c6"><path d="M 0.105469 0 L 224.652344 0 L 224.652344 337 L 0.105469 337 Z M 0.105469 0 " clip-rule="nonzero"/></clipPath></defs><g clip-path="url(#ce5f7712c6)"><path fill="#ffffff" d="M 0.105469 0 L 224.773438 0 L 224.773438 337 L 0.105469 337 Z M 0.105469 0 " fill-opacity="1" fill-rule="nonzero"/><path fill="#000000" d="M 0.105469 0 L 224.773438 0 L 224.773438 337 L 0.105469 337 Z M 0.105469 0 " fill-opacity="1" fill-rule="nonzero"/></g><g fill="#ffffff" fill-opacity="1"><g transform="translate(64.391797, 176.617969)"><g><path d="M 27.25 -27.15625 C 27.507812 -26.757812 27.554688 -26.460938 27.390625 -26.265625 C 27.234375 -26.066406 27.070312 -25.851562 26.90625 -25.625 C 26.96875 -25.6875 27.035156 -25.71875 27.109375 -25.71875 C 27.140625 -25.71875 27.070312 -25.570312 26.90625 -25.28125 C 26.738281 -24.988281 26.546875 -24.703125 26.328125 -24.421875 C 26.117188 -24.140625 25.984375 -24.015625 25.921875 -24.046875 C 25.921875 -24.046875 25.988281 -24.175781 26.125 -24.4375 C 25.394531 -23.351562 24.757812 -22.226562 24.21875 -21.0625 C 23.675781 -19.894531 23.175781 -18.691406 22.71875 -17.453125 C 22.914062 -17.972656 23.160156 -18.585938 23.453125 -19.296875 C 23.753906 -20.003906 24.035156 -20.632812 24.296875 -21.1875 C 24.554688 -21.75 24.753906 -22.0625 24.890625 -22.125 C 24.785156 -22.03125 24.617188 -21.710938 24.390625 -21.171875 C 24.160156 -20.628906 23.914062 -20.007812 23.65625 -19.3125 C 23.394531 -18.625 23.15625 -18.007812 22.9375 -17.46875 C 22.726562 -16.925781 22.609375 -16.585938 22.578125 -16.453125 C 22.242188 -15.472656 21.945312 -14.476562 21.6875 -13.46875 C 21.425781 -12.46875 21.210938 -11.460938 21.046875 -10.453125 C 20.878906 -9.429688 20.738281 -8.398438 20.625 -7.359375 C 20.507812 -6.328125 20.382812 -5.300781 20.25 -4.28125 C 20.15625 -3.46875 20.039062 -2.625 19.90625 -1.75 C 19.78125 -0.875 19.75 -0.0625 19.8125 0.6875 C 19.8125 0.59375 19.816406 0.492188 19.828125 0.390625 C 19.847656 0.296875 19.875 0.195312 19.90625 0.09375 C 19.9375 0.09375 19.984375 0.273438 20.046875 0.640625 C 20.117188 1.003906 20.203125 1.378906 20.296875 1.765625 C 20.398438 2.160156 20.5 2.394531 20.59375 2.46875 C 20.664062 2.5 20.738281 2.5 20.8125 2.46875 C 20.894531 2.4375 20.972656 2.421875 21.046875 2.421875 C 21.503906 2.347656 21.953125 2.046875 22.390625 1.515625 C 22.835938 0.992188 23.175781 0.585938 23.40625 0.296875 C 23.570312 0.0976562 23.796875 -0.21875 24.078125 -0.65625 C 24.359375 -1.101562 24.613281 -1.378906 24.84375 -1.484375 C 25.300781 -1.679688 25.535156 -1.554688 25.546875 -1.109375 C 25.566406 -0.660156 25.476562 -0.0859375 25.28125 0.609375 C 25.082031 1.316406 24.851562 1.972656 24.59375 2.578125 C 24.332031 3.191406 24.132812 3.582031 24 3.75 C 23.601562 4.269531 23.191406 4.710938 22.765625 5.078125 C 22.335938 5.441406 21.765625 5.625 21.046875 5.625 C 19.859375 5.625 18.789062 5.226562 17.84375 4.4375 C 17.050781 3.707031 16.472656 2.832031 16.109375 1.8125 C 15.753906 0.800781 15.539062 -0.210938 15.46875 -1.234375 C 15.46875 -1.691406 15.5 -2.109375 15.5625 -2.484375 C 15.632812 -2.867188 15.703125 -3.273438 15.765625 -3.703125 C 15.765625 -3.765625 15.753906 -3.929688 15.734375 -4.203125 C 15.722656 -4.484375 15.722656 -4.753906 15.734375 -5.015625 C 15.753906 -5.285156 15.78125 -5.421875 15.8125 -5.421875 C 15.8125 -5.390625 15.820312 -5.363281 15.84375 -5.34375 C 15.863281 -5.332031 15.875 -5.304688 15.875 -5.265625 C 15.875 -5.429688 15.875 -5.515625 15.875 -5.515625 C 15.832031 -5.515625 15.796875 -5.660156 15.765625 -5.953125 C 15.734375 -6.253906 15.71875 -6.421875 15.71875 -6.453125 C 15.75 -6.785156 15.796875 -7.097656 15.859375 -7.390625 C 15.929688 -7.679688 15.984375 -7.992188 16.015625 -8.328125 C 16.117188 -8.785156 16.203125 -9.242188 16.265625 -9.703125 C 16.328125 -10.160156 16.375 -10.625 16.40625 -11.09375 C 16.40625 -11.1875 16.453125 -11.460938 16.546875 -11.921875 C 16.648438 -12.378906 16.773438 -12.894531 16.921875 -13.46875 C 17.078125 -14.050781 17.226562 -14.546875 17.375 -14.953125 C 17.519531 -15.367188 17.660156 -15.578125 17.796875 -15.578125 C 17.859375 -15.578125 17.863281 -15.519531 17.8125 -15.40625 C 17.757812 -15.289062 17.753906 -15.210938 17.796875 -15.171875 L 18.1875 -16.5625 C 16.875 -14.457031 15.535156 -12.328125 14.171875 -10.171875 C 12.804688 -8.023438 11.398438 -5.929688 9.953125 -3.890625 C 9.660156 -3.492188 9.28125 -2.972656 8.8125 -2.328125 C 8.351562 -1.691406 7.84375 -1.128906 7.28125 -0.640625 C 6.726562 -0.148438 6.15625 0.109375 5.5625 0.140625 C 4.75 0.179688 3.992188 -0.125 3.296875 -0.78125 C 2.609375 -1.445312 2.066406 -2.085938 1.671875 -2.703125 C 1.671875 -2.703125 1.570312 -2.804688 1.375 -3.015625 C 1.175781 -3.234375 1.0625 -3.410156 1.03125 -3.546875 C 1.0625 -3.484375 1.148438 -3.367188 1.296875 -3.203125 C 1.453125 -3.035156 1.53125 -2.953125 1.53125 -2.953125 L 0.9375 -3.984375 C 1 -3.753906 0.972656 -3.753906 0.859375 -3.984375 C 0.742188 -4.222656 0.671875 -4.34375 0.640625 -4.34375 C 0.546875 -4.5 0.472656 -4.675781 0.421875 -4.875 C 0.367188 -5.070312 0.328125 -5.253906 0.296875 -5.421875 C 0.160156 -5.847656 0.078125 -6.273438 0.046875 -6.703125 C 0.015625 -7.128906 0 -7.554688 0 -7.984375 C 0.03125 -8.867188 0.144531 -9.738281 0.34375 -10.59375 C 0.539062 -11.445312 0.722656 -12.300781 0.890625 -13.15625 C 1.054688 -14.039062 1.273438 -14.898438 1.546875 -15.734375 C 1.828125 -16.578125 2.132812 -17.410156 2.46875 -18.234375 C 2.5 -18.296875 2.59375 -18.515625 2.75 -18.890625 C 2.914062 -19.273438 3.097656 -19.695312 3.296875 -20.15625 C 3.492188 -20.613281 3.679688 -21.003906 3.859375 -21.328125 C 4.046875 -21.660156 4.1875 -21.828125 4.28125 -21.828125 C 4.28125 -21.828125 4.238281 -21.71875 4.15625 -21.5 C 4.082031 -21.289062 4.0625 -21.171875 4.09375 -21.140625 C 4.257812 -21.535156 4.429688 -21.929688 4.609375 -22.328125 C 4.785156 -22.722656 4.972656 -23.113281 5.171875 -23.5 C 5.109375 -23.40625 5.035156 -23.304688 4.953125 -23.203125 C 4.867188 -23.109375 4.828125 -23.0625 4.828125 -23.0625 C 4.859375 -23.457031 5.035156 -23.890625 5.359375 -24.359375 C 5.691406 -24.835938 5.941406 -25.242188 6.109375 -25.578125 L 7.59375 -28.484375 C 8.144531 -29.472656 8.757812 -30.425781 9.4375 -31.34375 C 10.113281 -32.257812 10.8125 -33.160156 11.53125 -34.046875 C 12.15625 -34.804688 12.851562 -35.554688 13.625 -36.296875 C 14.394531 -37.035156 15.257812 -37.566406 16.21875 -37.890625 C 16.707031 -38.054688 17.210938 -38.113281 17.734375 -38.0625 C 18.265625 -38.019531 18.773438 -37.945312 19.265625 -37.84375 C 20.191406 -37.644531 21.097656 -37.265625 21.984375 -36.703125 C 22.867188 -36.148438 23.65625 -35.578125 24.34375 -34.984375 C 24.601562 -34.753906 24.9375 -34.453125 25.34375 -34.078125 C 25.757812 -33.703125 25.953125 -33.300781 25.921875 -32.875 C 25.921875 -32.539062 25.753906 -32.207031 25.421875 -31.875 C 25.097656 -31.550781 24.804688 -31.304688 24.546875 -31.140625 C 23.921875 -30.742188 23.484375 -30.632812 23.234375 -30.8125 C 22.984375 -31 22.78125 -31.375 22.625 -31.9375 C 22.625 -31.90625 22.644531 -31.804688 22.6875 -31.640625 C 22.738281 -31.472656 22.734375 -31.375 22.671875 -31.34375 C 22.640625 -31.34375 22.582031 -31.460938 22.5 -31.703125 C 22.414062 -31.953125 22.332031 -32.222656 22.25 -32.515625 C 22.164062 -32.816406 22.109375 -33 22.078125 -33.0625 C 22.046875 -33.226562 21.992188 -33.394531 21.921875 -33.5625 C 21.859375 -33.726562 21.796875 -33.875 21.734375 -34 C 21.796875 -33.875 21.867188 -33.773438 21.953125 -33.703125 C 22.035156 -33.640625 22.09375 -33.578125 22.125 -33.515625 C 21.925781 -34.066406 21.664062 -34.457031 21.34375 -34.6875 C 20.914062 -34.851562 20.289062 -34.789062 19.46875 -34.5 C 18.9375 -34.300781 18.425781 -34.035156 17.9375 -33.703125 C 17.445312 -33.378906 16.988281 -33.019531 16.5625 -32.625 C 15.375 -31.570312 14.328125 -30.367188 13.421875 -29.015625 C 12.523438 -27.671875 11.695312 -26.296875 10.9375 -24.890625 C 11.394531 -25.742188 11.894531 -26.578125 12.4375 -27.390625 C 12.976562 -28.210938 13.546875 -29.019531 14.140625 -29.8125 C 14.441406 -30.207031 14.753906 -30.59375 15.078125 -30.96875 C 15.410156 -31.351562 15.753906 -31.707031 16.109375 -32.03125 C 16.273438 -32.195312 16.519531 -32.382812 16.84375 -32.59375 C 17.175781 -32.8125 17.441406 -33.019531 17.640625 -33.21875 C 17.378906 -32.882812 17.039062 -32.566406 16.625 -32.265625 C 16.21875 -31.972656 15.882812 -31.695312 15.625 -31.4375 C 15.289062 -31.113281 14.984375 -30.757812 14.703125 -30.375 C 14.429688 -30 14.160156 -29.628906 13.890625 -29.265625 C 13.304688 -28.453125 12.75 -27.617188 12.21875 -26.765625 C 11.695312 -25.910156 11.207031 -25.035156 10.75 -24.140625 C 9.757812 -22.273438 8.878906 -20.347656 8.109375 -18.359375 C 7.335938 -16.367188 6.6875 -14.359375 6.15625 -12.328125 C 5.925781 -11.398438 5.703125 -10.453125 5.484375 -9.484375 C 5.273438 -8.515625 5.109375 -7.554688 4.984375 -6.609375 C 4.984375 -6.472656 4.945312 -6.222656 4.875 -5.859375 C 4.8125 -5.503906 4.785156 -5.160156 4.796875 -4.828125 C 4.816406 -4.503906 4.910156 -4.289062 5.078125 -4.1875 C 5.335938 -4.050781 5.695312 -4.164062 6.15625 -4.53125 C 6.613281 -4.894531 7.054688 -5.304688 7.484375 -5.765625 C 7.910156 -6.222656 8.175781 -6.519531 8.28125 -6.65625 C 8.832031 -7.25 9.390625 -7.835938 9.953125 -8.421875 C 10.515625 -9.015625 11.039062 -9.609375 11.53125 -10.203125 C 11.4375 -10.097656 11.347656 -9.992188 11.265625 -9.890625 C 11.179688 -9.796875 11.101562 -9.769531 11.03125 -9.8125 C 11.03125 -9.8125 11.117188 -9.945312 11.296875 -10.21875 C 11.484375 -10.5 11.707031 -10.835938 11.96875 -11.234375 C 12.238281 -11.628906 12.488281 -11.984375 12.71875 -12.296875 C 12.945312 -12.609375 13.078125 -12.796875 13.109375 -12.859375 L 15.46875 -16.21875 C 16.320312 -17.425781 17.148438 -18.644531 17.953125 -19.875 C 18.765625 -21.113281 19.582031 -22.34375 20.40625 -23.5625 C 20.601562 -23.851562 20.78125 -24.15625 20.9375 -24.46875 C 21.101562 -24.78125 21.269531 -25.097656 21.4375 -25.421875 C 21.570312 -25.691406 21.726562 -25.914062 21.90625 -26.09375 C 22.082031 -26.269531 22.238281 -26.441406 22.375 -26.609375 C 22.539062 -26.773438 22.660156 -27 22.734375 -27.28125 C 22.816406 -27.5625 22.941406 -27.796875 23.109375 -27.984375 C 23.535156 -28.515625 24.007812 -28.78125 24.53125 -28.78125 C 25.0625 -28.78125 25.570312 -28.625 26.0625 -28.3125 C 26.5625 -28 26.957031 -27.613281 27.25 -27.15625 Z M 5.21875 -10.9375 C 5.125 -10.144531 5.023438 -9.335938 4.921875 -8.515625 C 4.828125 -7.703125 4.75 -6.882812 4.6875 -6.0625 L 4.6875 -5.859375 L 4.78125 -6.75 C 4.84375 -7.570312 4.945312 -8.382812 5.09375 -9.1875 C 5.25 -9.988281 5.425781 -10.800781 5.625 -11.625 C 6.007812 -13.238281 6.445312 -14.859375 6.9375 -16.484375 C 7.4375 -18.109375 7.984375 -19.691406 8.578125 -21.234375 C 9.128906 -22.679688 9.734375 -24.109375 10.390625 -25.515625 C 11.054688 -26.929688 11.796875 -28.300781 12.609375 -29.625 C 13.003906 -30.3125 13.472656 -31.015625 14.015625 -31.734375 C 14.554688 -32.460938 15.15625 -33.101562 15.8125 -33.65625 C 15.0625 -33.03125 14.390625 -32.316406 13.796875 -31.515625 C 13.203125 -30.710938 12.691406 -29.929688 12.265625 -29.171875 C 11.515625 -27.859375 10.785156 -26.546875 10.078125 -25.234375 C 9.367188 -23.921875 8.71875 -22.554688 8.125 -21.140625 C 7.4375 -19.535156 6.847656 -17.867188 6.359375 -16.140625 C 5.867188 -14.410156 5.488281 -12.675781 5.21875 -10.9375 Z M 16.265625 -3.40625 C 16.234375 -2.90625 16.234375 -2.414062 16.265625 -1.9375 C 16.296875 -1.46875 16.328125 -1.003906 16.359375 -0.546875 C 16.328125 -0.804688 16.316406 -1.078125 16.328125 -1.359375 C 16.347656 -1.640625 16.375 -1.910156 16.40625 -2.171875 C 16.476562 -2.628906 16.550781 -3.085938 16.625 -3.546875 C 16.707031 -4.003906 16.769531 -4.460938 16.8125 -4.921875 C 16.84375 -5.316406 16.859375 -5.71875 16.859375 -6.125 C 16.859375 -6.539062 16.875 -6.929688 16.90625 -7.296875 C 16.84375 -7.128906 16.785156 -6.960938 16.734375 -6.796875 C 16.679688 -6.628906 16.625 -6.46875 16.5625 -6.3125 C 16.425781 -5.8125 16.34375 -5.332031 16.3125 -4.875 C 16.28125 -4.414062 16.265625 -3.925781 16.265625 -3.40625 Z M 8.921875 -20.703125 L 8.921875 -20.796875 L 8.828125 -20.546875 Z M 16.65625 -34.296875 C 16.5625 -34.265625 16.460938 -34.195312 16.359375 -34.09375 C 16.265625 -34 16.164062 -33.921875 16.0625 -33.859375 Z M 21.390625 -34.59375 C 21.390625 -34.53125 21.453125 -34.398438 21.578125 -34.203125 Z M 21.734375 -34.046875 C 21.734375 -34.046875 21.71875 -34.0625 21.6875 -34.09375 C 21.65625 -34.132812 21.617188 -34.171875 21.578125 -34.203125 Z M 22.578125 -17.046875 L 22.71875 -17.453125 Z M 22.578125 -17.046875 "/></g></g></g><g fill="#ffffff" fill-opacity="1"><g transform="translate(90.11579, 176.617969)"><g><path d="M 20.40625 -11.734375 C 20.46875 -11.335938 20.347656 -10.90625 20.046875 -10.4375 C 19.753906 -9.976562 19.410156 -9.535156 19.015625 -9.109375 C 18.628906 -8.679688 18.335938 -8.335938 18.140625 -8.078125 C 17.609375 -7.390625 17.078125 -6.691406 16.546875 -5.984375 C 16.023438 -5.273438 15.472656 -4.59375 14.890625 -3.9375 C 14.585938 -3.644531 14.226562 -3.300781 13.8125 -2.90625 C 13.40625 -2.507812 12.972656 -2.203125 12.515625 -1.984375 C 12.054688 -1.773438 11.597656 -1.738281 11.140625 -1.875 C 11.035156 -1.90625 10.8125 -2.007812 10.46875 -2.1875 C 10.125 -2.375 9.800781 -2.570312 9.5 -2.78125 C 9.207031 -3 9.0625 -3.140625 9.0625 -3.203125 L 9.21875 -3.109375 L 8.921875 -3.40625 C 9.046875 -3.207031 9.023438 -3.171875 8.859375 -3.296875 C 8.703125 -3.429688 8.609375 -3.5 8.578125 -3.5 C 8.441406 -3.632812 8.320312 -3.789062 8.21875 -3.96875 C 8.125 -4.144531 8.046875 -4.300781 7.984375 -4.4375 C 7.847656 -4.695312 7.765625 -4.96875 7.734375 -5.25 C 7.703125 -5.53125 7.6875 -5.800781 7.6875 -6.0625 C 7.6875 -6.320312 7.703125 -6.59375 7.734375 -6.875 C 7.765625 -7.15625 7.796875 -7.425781 7.828125 -7.6875 C 7.898438 -8.25 7.957031 -8.789062 8 -9.3125 C 8.050781 -9.84375 8.160156 -10.367188 8.328125 -10.890625 C 8.359375 -10.984375 8.472656 -11.269531 8.671875 -11.75 C 8.867188 -12.226562 9.082031 -12.695312 9.3125 -13.15625 C 9.539062 -13.613281 9.707031 -13.828125 9.8125 -13.796875 C 9.875 -13.796875 9.863281 -13.738281 9.78125 -13.625 C 9.695312 -13.507812 9.671875 -13.4375 9.703125 -13.40625 L 10.390625 -14.78125 C 10.359375 -14.75 10.328125 -14.707031 10.296875 -14.65625 C 10.265625 -14.613281 10.21875 -14.570312 10.15625 -14.53125 C 10.125 -14.570312 10.222656 -14.785156 10.453125 -15.171875 C 10.679688 -15.566406 10.828125 -15.832031 10.890625 -15.96875 C 10.398438 -15.40625 9.945312 -14.828125 9.53125 -14.234375 C 9.125 -13.648438 8.691406 -13.0625 8.234375 -12.46875 C 7.898438 -12.039062 7.5625 -11.671875 7.21875 -11.359375 C 6.875 -11.046875 6.585938 -10.691406 6.359375 -10.296875 C 5.828125 -9.410156 5.273438 -8.546875 4.703125 -7.703125 C 4.128906 -6.867188 3.628906 -5.992188 3.203125 -5.078125 L 3 -5.46875 C 2.707031 -5.101562 2.378906 -4.960938 2.015625 -5.046875 C 1.660156 -5.128906 1.328125 -5.328125 1.015625 -5.640625 C 0.703125 -5.953125 0.460938 -6.238281 0.296875 -6.5 C 0.0664062 -6.894531 -0.03125 -7.265625 0 -7.609375 C 0.03125 -7.953125 0.0625 -8.335938 0.09375 -8.765625 C 0.164062 -9.160156 0.203125 -9.554688 0.203125 -9.953125 C 0.203125 -10.347656 0.265625 -10.757812 0.390625 -11.1875 C 0.554688 -11.707031 0.726562 -12.210938 0.90625 -12.703125 C 1.09375 -13.203125 1.285156 -13.71875 1.484375 -14.25 C 1.640625 -14.769531 1.804688 -15.285156 1.984375 -15.796875 C 2.171875 -16.304688 2.363281 -16.820312 2.5625 -17.34375 C 2.695312 -17.675781 2.859375 -18.03125 3.046875 -18.40625 C 3.242188 -18.78125 3.378906 -19.132812 3.453125 -19.46875 C 3.515625 -19.726562 3.550781 -19.957031 3.5625 -20.15625 C 3.582031 -20.351562 3.757812 -20.550781 4.09375 -20.75 C 4.382812 -20.914062 4.6875 -21.003906 5 -21.015625 C 5.3125 -21.035156 5.632812 -21.007812 5.96875 -20.9375 C 6.226562 -20.90625 6.519531 -20.789062 6.84375 -20.59375 C 7.175781 -20.394531 7.414062 -20.140625 7.5625 -19.828125 C 7.707031 -19.523438 7.632812 -19.160156 7.34375 -18.734375 C 7.175781 -18.492188 6.960938 -18.257812 6.703125 -18.03125 C 6.441406 -17.800781 6.210938 -17.554688 6.015625 -17.296875 C 5.785156 -17.035156 5.648438 -16.8125 5.609375 -16.625 C 5.578125 -16.445312 5.515625 -16.195312 5.421875 -15.875 C 5.390625 -15.675781 5.289062 -15.484375 5.125 -15.296875 C 4.957031 -15.117188 4.828125 -14.929688 4.734375 -14.734375 C 4.597656 -14.472656 4.472656 -14.175781 4.359375 -13.84375 C 4.242188 -13.519531 4.140625 -13.191406 4.046875 -12.859375 C 4.003906 -12.660156 3.984375 -12.476562 3.984375 -12.3125 C 3.984375 -12.15625 3.96875 -11.976562 3.9375 -11.78125 C 3.90625 -11.25 3.820312 -10.726562 3.6875 -10.21875 C 3.5625 -9.71875 3.46875 -9.203125 3.40625 -8.671875 C 3.4375 -8.773438 3.507812 -8.890625 3.625 -9.015625 C 3.738281 -9.148438 3.8125 -9.203125 3.84375 -9.171875 C 3.875 -9.128906 3.796875 -8.96875 3.609375 -8.6875 C 3.429688 -8.414062 3.363281 -8.28125 3.40625 -8.28125 L 6.3125 -12.515625 C 5.976562 -12.085938 5.703125 -11.742188 5.484375 -11.484375 C 5.273438 -11.222656 5.171875 -11.09375 5.171875 -11.09375 C 5.140625 -11.125 5.3125 -11.394531 5.6875 -11.90625 C 6.070312 -12.414062 6.554688 -13.054688 7.140625 -13.828125 C 7.734375 -14.597656 8.347656 -15.375 8.984375 -16.15625 C 9.628906 -16.945312 10.191406 -17.640625 10.671875 -18.234375 C 11.148438 -18.828125 11.453125 -19.1875 11.578125 -19.3125 C 12.304688 -19.96875 13.0625 -20.25 13.84375 -20.15625 C 14.632812 -20.0625 15.195312 -19.4375 15.53125 -18.28125 C 15.789062 -17.457031 15.75 -16.71875 15.40625 -16.0625 C 15.0625 -15.40625 14.597656 -14.78125 14.015625 -14.1875 C 13.441406 -13.601562 12.957031 -13.015625 12.5625 -12.421875 C 12.238281 -11.921875 11.941406 -11.390625 11.671875 -10.828125 C 11.410156 -10.273438 11.148438 -9.738281 10.890625 -9.21875 C 10.722656 -8.882812 10.5 -8.414062 10.21875 -7.8125 C 9.945312 -7.207031 9.773438 -6.625 9.703125 -6.0625 C 9.773438 -6.425781 9.90625 -6.8125 10.09375 -7.21875 C 10.289062 -7.625 10.441406 -7.945312 10.546875 -8.1875 C 10.941406 -9.195312 11.515625 -10.066406 12.265625 -10.796875 C 12.109375 -10.460938 11.9375 -10.144531 11.75 -9.84375 C 11.570312 -9.550781 11.398438 -9.257812 11.234375 -8.96875 L 11.484375 -9.265625 C 11.515625 -9.265625 11.488281 -9.125 11.40625 -8.84375 C 11.320312 -8.5625 11.238281 -8.273438 11.15625 -7.984375 C 11.070312 -7.691406 11.015625 -7.523438 10.984375 -7.484375 C 10.890625 -7.191406 10.800781 -6.890625 10.71875 -6.578125 C 10.632812 -6.265625 10.578125 -5.945312 10.546875 -5.625 C 10.515625 -5.582031 10.503906 -5.429688 10.515625 -5.171875 C 10.535156 -4.910156 10.546875 -4.78125 10.546875 -4.78125 L 10.59375 -4.734375 C 10.59375 -4.765625 10.65625 -4.785156 10.78125 -4.796875 C 10.914062 -4.816406 11 -4.84375 11.03125 -4.875 C 11.394531 -5.007812 11.757812 -5.222656 12.125 -5.515625 C 12.488281 -5.816406 12.816406 -6.082031 13.109375 -6.3125 C 13.703125 -6.769531 14.285156 -7.253906 14.859375 -7.765625 C 15.429688 -8.273438 16 -8.773438 16.5625 -9.265625 C 16.988281 -9.660156 17.445312 -10.050781 17.9375 -10.4375 C 18.425781 -10.832031 18.835938 -11.242188 19.171875 -11.671875 C 19.335938 -11.910156 19.550781 -12.125 19.8125 -12.3125 C 20.070312 -12.507812 20.269531 -12.316406 20.40625 -11.734375 Z M 20.40625 -11.734375 "/></g></g></g><g fill="#ffffff" fill-opacity="1"><g transform="translate(106.920162, 176.617969)"><g><path d="M 18.875 -12.171875 C 18.96875 -11.972656 18.988281 -11.804688 18.9375 -11.671875 C 18.894531 -11.546875 18.804688 -11.398438 18.671875 -11.234375 L 17.15625 -9.21875 L 14.484375 -5.765625 C 14.160156 -5.335938 13.800781 -4.910156 13.40625 -4.484375 C 13.007812 -4.054688 12.628906 -3.613281 12.265625 -3.15625 C 11.910156 -2.664062 11.554688 -2.164062 11.203125 -1.65625 C 10.859375 -1.144531 10.472656 -0.660156 10.046875 -0.203125 C 9.617188 0.265625 9.140625 0.726562 8.609375 1.1875 C 8.085938 1.644531 7.535156 2.035156 6.953125 2.359375 C 6.160156 2.785156 5.320312 2.867188 4.4375 2.609375 C 3.8125 2.441406 3.21875 2.171875 2.65625 1.796875 C 2.101562 1.421875 1.613281 0.988281 1.1875 0.5 C 1.050781 0.332031 0.929688 0.179688 0.828125 0.046875 C 0.734375 -0.078125 0.671875 -0.238281 0.640625 -0.4375 C 0.609375 -0.601562 0.582031 -0.769531 0.5625 -0.9375 C 0.550781 -1.101562 0.546875 -1.265625 0.546875 -1.421875 C 0.515625 -1.722656 0.535156 -1.992188 0.609375 -2.234375 C 0.691406 -2.484375 0.75 -2.757812 0.78125 -3.0625 C 0.851562 -3.382812 0.945312 -3.691406 1.0625 -3.984375 C 1.175781 -4.285156 1.25 -4.597656 1.28125 -4.921875 C 1.34375 -5.285156 1.414062 -5.625 1.5 -5.9375 C 1.582031 -6.25 1.640625 -6.570312 1.671875 -6.90625 C 1.703125 -7.195312 1.707031 -7.5 1.6875 -7.8125 C 1.675781 -8.125 1.707031 -8.425781 1.78125 -8.71875 C 1.84375 -8.914062 1.929688 -9.113281 2.046875 -9.3125 C 2.160156 -9.507812 2.25 -9.722656 2.3125 -9.953125 C 2.25 -9.816406 2.164062 -9.675781 2.0625 -9.53125 C 1.96875 -9.382812 1.90625 -9.242188 1.875 -9.109375 C 1.8125 -8.921875 1.742188 -8.726562 1.671875 -8.53125 C 1.609375 -8.332031 1.546875 -8.148438 1.484375 -7.984375 C 1.410156 -7.785156 1.347656 -7.59375 1.296875 -7.40625 C 1.253906 -7.226562 1.203125 -7.039062 1.140625 -6.84375 C 1.035156 -6.613281 0.941406 -6.398438 0.859375 -6.203125 C 0.773438 -6.003906 0.71875 -5.773438 0.6875 -5.515625 C 0.65625 -5.285156 0.644531 -5.0625 0.65625 -4.84375 C 0.675781 -4.632812 0.671875 -4.414062 0.640625 -4.1875 C 0.609375 -3.957031 0.566406 -3.75 0.515625 -3.5625 C 0.460938 -3.382812 0.4375 -3.179688 0.4375 -2.953125 C 0.4375 -2.890625 0.453125 -2.800781 0.484375 -2.6875 C 0.523438 -2.570312 0.546875 -2.484375 0.546875 -2.421875 C 0.546875 -2.316406 0.523438 -2.207031 0.484375 -2.09375 C 0.453125 -1.976562 0.4375 -1.851562 0.4375 -1.71875 C 0.4375 -1.488281 0.453125 -1.265625 0.484375 -1.046875 C 0.523438 -0.835938 0.5625 -0.601562 0.59375 -0.34375 C 0.195312 -1.03125 0 -1.726562 0 -2.4375 C 0 -3.144531 0.0664062 -3.859375 0.203125 -4.578125 C 0.328125 -5.335938 0.445312 -6.066406 0.5625 -6.765625 C 0.675781 -7.472656 0.816406 -8.191406 0.984375 -8.921875 C 1.316406 -10.367188 1.8125 -11.789062 2.46875 -13.1875 C 3.125 -14.582031 3.910156 -15.851562 4.828125 -17 C 5.585938 -18.019531 6.484375 -18.847656 7.515625 -19.484375 C 8.546875 -20.128906 9.71875 -20.320312 11.03125 -20.0625 C 11.53125 -19.957031 12.023438 -19.789062 12.515625 -19.5625 C 13.003906 -19.332031 13.414062 -19.003906 13.75 -18.578125 C 14.113281 -18.117188 14.296875 -17.609375 14.296875 -17.046875 C 14.296875 -16.492188 14.210938 -15.9375 14.046875 -15.375 C 13.710938 -14.425781 13.1875 -13.5625 12.46875 -12.78125 C 11.75 -12.007812 11.007812 -11.296875 10.25 -10.640625 C 9.914062 -10.378906 9.578125 -10.117188 9.234375 -9.859375 C 8.890625 -9.597656 8.539062 -9.347656 8.1875 -9.109375 C 7.945312 -8.984375 7.6875 -8.863281 7.40625 -8.75 C 7.132812 -8.632812 6.867188 -8.523438 6.609375 -8.421875 L 5.765625 -8.125 C 5.597656 -8.09375 5.484375 -8.066406 5.421875 -8.046875 C 5.359375 -8.035156 5.289062 -7.945312 5.21875 -7.78125 C 5.09375 -7.550781 5.046875 -7.3125 5.078125 -7.0625 C 5.109375 -6.820312 5.09375 -6.570312 5.03125 -6.3125 C 5 -5.976562 4.941406 -5.660156 4.859375 -5.359375 C 4.773438 -5.066406 4.695312 -4.757812 4.625 -4.4375 C 4.5 -3.84375 4.378906 -3.191406 4.265625 -2.484375 C 4.148438 -1.773438 4.15625 -1.113281 4.28125 -0.5 C 4.414062 0.125 4.738281 0.410156 5.25 0.359375 C 5.757812 0.316406 6.316406 0.09375 6.921875 -0.3125 C 7.523438 -0.726562 8.085938 -1.164062 8.609375 -1.625 C 9.140625 -2.082031 9.503906 -2.394531 9.703125 -2.5625 C 9.972656 -2.789062 10.210938 -3.019531 10.421875 -3.25 C 10.640625 -3.476562 10.863281 -3.707031 11.09375 -3.9375 C 11.21875 -4.101562 11.34375 -4.25 11.46875 -4.375 C 11.601562 -4.507812 11.722656 -4.644531 11.828125 -4.78125 C 11.828125 -4.78125 11.84375 -4.828125 11.875 -4.921875 C 11.90625 -5.023438 11.921875 -5.09375 11.921875 -5.125 C 12.222656 -5.582031 12.5625 -6.039062 12.9375 -6.5 C 13.3125 -6.957031 13.679688 -7.398438 14.046875 -7.828125 C 14.503906 -8.359375 14.929688 -8.894531 15.328125 -9.4375 C 15.722656 -9.976562 16.132812 -10.53125 16.5625 -11.09375 C 16.726562 -11.320312 16.929688 -11.609375 17.171875 -11.953125 C 17.421875 -12.296875 17.691406 -12.539062 17.984375 -12.6875 C 18.285156 -12.832031 18.566406 -12.675781 18.828125 -12.21875 L 18.828125 -12.171875 C 18.859375 -12.140625 18.875 -12.140625 18.875 -12.171875 Z M 6.65625 -11.625 C 6.519531 -11.394531 6.410156 -11.140625 6.328125 -10.859375 C 6.242188 -10.585938 6.140625 -10.316406 6.015625 -10.046875 C 7.617188 -10.898438 9 -12.003906 10.15625 -13.359375 L 10.984375 -14.4375 C 11.054688 -14.570312 11.148438 -14.6875 11.265625 -14.78125 C 11.378906 -14.882812 11.453125 -15 11.484375 -15.125 C 11.515625 -15.257812 11.515625 -15.382812 11.484375 -15.5 C 11.453125 -15.613281 11.453125 -15.738281 11.484375 -15.875 L 11.671875 -16.90625 C 11.710938 -17.164062 11.664062 -17.515625 11.53125 -17.953125 C 11.394531 -18.398438 11.148438 -18.59375 10.796875 -18.53125 C 10.628906 -18.5 10.460938 -18.390625 10.296875 -18.203125 C 10.128906 -18.023438 10 -17.867188 9.90625 -17.734375 L 9.015625 -16.5625 C 8.492188 -15.800781 8.066406 -15.007812 7.734375 -14.1875 C 7.410156 -13.375 7.066406 -12.570312 6.703125 -11.78125 C 6.703125 -11.78125 6.703125 -11.769531 6.703125 -11.75 C 6.703125 -11.738281 6.6875 -11.695312 6.65625 -11.625 Z M 16.515625 -27.15625 C 16.609375 -27.125 16.523438 -26.953125 16.265625 -26.640625 C 16.003906 -26.328125 15.71875 -26.03125 15.40625 -25.75 C 15.09375 -25.46875 14.898438 -25.296875 14.828125 -25.234375 C 14.472656 -24.804688 14.046875 -24.398438 13.546875 -24.015625 C 13.054688 -23.640625 12.597656 -23.289062 12.171875 -22.96875 C 12.078125 -22.894531 11.890625 -22.769531 11.609375 -22.59375 C 11.328125 -22.414062 11.101562 -22.390625 10.9375 -22.515625 C 10.769531 -22.648438 10.734375 -22.90625 10.828125 -23.28125 C 10.929688 -23.664062 11.082031 -24.0625 11.28125 -24.46875 C 11.476562 -24.875 11.609375 -25.144531 11.671875 -25.28125 L 13.5 -28.4375 C 13.570312 -28.601562 13.597656 -28.734375 13.578125 -28.828125 C 13.554688 -28.929688 13.695312 -29 14 -29.03125 C 14.125 -29.0625 14.289062 -29.050781 14.5 -29 C 14.71875 -28.945312 14.847656 -28.921875 14.890625 -28.921875 C 15.148438 -28.859375 15.398438 -28.757812 15.640625 -28.625 C 15.890625 -28.5 16.097656 -28.304688 16.265625 -28.046875 C 16.328125 -27.972656 16.375 -27.820312 16.40625 -27.59375 C 16.4375 -27.363281 16.472656 -27.21875 16.515625 -27.15625 Z M 16.515625 -27.15625 "/></g></g></g><g fill="#ffffff" fill-opacity="1"><g transform="translate(122.246143, 176.617969)"><g><path d="M 12.90625 -12.125 C 13.007812 -11.664062 12.90625 -11.1875 12.59375 -10.6875 C 12.28125 -10.195312 11.992188 -9.789062 11.734375 -9.46875 C 11.304688 -8.84375 10.882812 -8.234375 10.46875 -7.640625 C 10.0625 -7.046875 9.628906 -6.453125 9.171875 -5.859375 C 8.671875 -5.203125 8.097656 -4.445312 7.453125 -3.59375 C 6.816406 -2.738281 6.070312 -2.210938 5.21875 -2.015625 C 5.09375 -2.015625 4.847656 -2.054688 4.484375 -2.140625 C 4.117188 -2.222656 3.78125 -2.320312 3.46875 -2.4375 C 3.15625 -2.550781 3 -2.660156 3 -2.765625 L 3.109375 -2.765625 C 2.910156 -2.859375 2.832031 -2.851562 2.875 -2.75 C 2.925781 -2.65625 2.804688 -2.722656 2.515625 -2.953125 C 2.285156 -3.117188 2.09375 -3.300781 1.9375 -3.5 C 1.789062 -3.695312 1.640625 -3.910156 1.484375 -4.140625 C 1.210938 -4.503906 0.929688 -4.863281 0.640625 -5.21875 C 0.347656 -5.582031 0.148438 -5.976562 0.046875 -6.40625 C 0.046875 -6.5 0.0351562 -6.710938 0.015625 -7.046875 C 0.00390625 -7.378906 0.015625 -7.691406 0.046875 -7.984375 C 0.078125 -8.273438 0.160156 -8.421875 0.296875 -8.421875 C 0.359375 -8.421875 0.375 -8.378906 0.34375 -8.296875 C 0.3125 -8.222656 0.3125 -8.1875 0.34375 -8.1875 L 0.5 -9.0625 C 0.425781 -8.96875 0.375 -8.90625 0.34375 -8.875 C 0.3125 -8.875 0.328125 -9.050781 0.390625 -9.40625 C 0.460938 -9.769531 0.554688 -10.195312 0.671875 -10.6875 C 0.785156 -11.1875 0.890625 -11.628906 0.984375 -12.015625 C 1.085938 -12.410156 1.15625 -12.644531 1.1875 -12.71875 C 1.382812 -13.238281 1.570312 -13.757812 1.75 -14.28125 C 1.925781 -14.8125 2.265625 -15.226562 2.765625 -15.53125 C 3.117188 -15.789062 3.523438 -15.898438 3.984375 -15.859375 C 4.453125 -15.828125 4.914062 -15.71875 5.375 -15.53125 C 5.570312 -15.457031 5.875 -15.3125 6.28125 -15.09375 C 6.695312 -14.882812 6.90625 -14.648438 6.90625 -14.390625 C 6.90625 -14.253906 6.851562 -14.15625 6.75 -14.09375 C 6.65625 -14.03125 6.570312 -13.960938 6.5 -13.890625 C 6.53125 -13.929688 6.597656 -13.953125 6.703125 -13.953125 C 6.765625 -13.910156 6.679688 -13.707031 6.453125 -13.34375 C 6.222656 -12.988281 6.078125 -12.828125 6.015625 -12.859375 C 5.984375 -12.859375 5.984375 -12.90625 6.015625 -13 C 6.046875 -13.101562 6.078125 -13.1875 6.109375 -13.25 C 5.191406 -11.738281 4.421875 -10.082031 3.796875 -8.28125 C 3.890625 -8.507812 4.050781 -8.894531 4.28125 -9.4375 C 4.507812 -9.976562 4.75 -10.484375 5 -10.953125 C 5.25 -11.429688 5.390625 -11.65625 5.421875 -11.625 C 5.453125 -11.625 5.367188 -11.414062 5.171875 -11 C 4.972656 -10.59375 4.734375 -10.078125 4.453125 -9.453125 C 4.179688 -8.835938 3.9375 -8.207031 3.71875 -7.5625 C 3.507812 -6.925781 3.394531 -6.351562 3.375 -5.84375 C 3.351562 -5.332031 3.507812 -4.992188 3.84375 -4.828125 C 4.101562 -4.691406 4.40625 -4.707031 4.75 -4.875 C 5.09375 -5.039062 5.429688 -5.253906 5.765625 -5.515625 C 6.097656 -5.773438 6.34375 -5.972656 6.5 -6.109375 C 6.957031 -6.472656 7.472656 -6.875 8.046875 -7.3125 C 8.628906 -7.757812 9.082031 -8.195312 9.40625 -8.625 C 9.34375 -8.5625 9.226562 -8.53125 9.0625 -8.53125 C 9.03125 -8.59375 9.117188 -8.800781 9.328125 -9.15625 C 9.546875 -9.519531 9.828125 -9.929688 10.171875 -10.390625 C 10.515625 -10.859375 10.84375 -11.28125 11.15625 -11.65625 C 11.46875 -12.03125 11.675781 -12.253906 11.78125 -12.328125 C 11.945312 -12.453125 12.164062 -12.53125 12.4375 -12.5625 C 12.71875 -12.59375 12.875 -12.445312 12.90625 -12.125 Z M 4.28125 -18.328125 C 4.28125 -18.328125 4.226562 -18.398438 4.125 -18.546875 C 4.03125 -18.703125 3.984375 -18.796875 3.984375 -18.828125 C 3.984375 -18.890625 3.972656 -19.050781 3.953125 -19.3125 C 3.941406 -19.582031 3.960938 -19.832031 4.015625 -20.0625 C 4.066406 -20.289062 4.175781 -20.351562 4.34375 -20.25 C 4.34375 -20.320312 4.429688 -20.460938 4.609375 -20.671875 C 4.785156 -20.890625 4.789062 -20.832031 4.625 -20.5 C 5.050781 -21.0625 5.445312 -21.734375 5.8125 -22.515625 L 5.21875 -21.640625 C 5.445312 -22.097656 5.691406 -22.675781 5.953125 -23.375 C 6.222656 -24.082031 6.375 -24.519531 6.40625 -24.6875 C 6.40625 -24.71875 6.394531 -24.816406 6.375 -24.984375 C 6.363281 -25.148438 6.375 -25.25 6.40625 -25.28125 C 5.882812 -25.476562 5.71875 -25.707031 5.90625 -25.96875 C 6.101562 -26.226562 6.316406 -26.441406 6.546875 -26.609375 C 6.453125 -26.609375 6.390625 -26.640625 6.359375 -26.703125 C 6.253906 -26.804688 6.300781 -26.890625 6.5 -26.953125 C 6.695312 -27.023438 6.832031 -27.078125 6.90625 -27.109375 C 7.257812 -27.265625 7.632812 -27.3125 8.03125 -27.25 C 8.425781 -27.1875 8.785156 -27.070312 9.109375 -26.90625 C 9.378906 -26.738281 9.628906 -26.488281 9.859375 -26.15625 C 10.085938 -25.832031 10.25 -25.523438 10.34375 -25.234375 C 10.445312 -24.898438 10.40625 -24.566406 10.21875 -24.234375 C 10.039062 -23.910156 9.835938 -23.648438 9.609375 -23.453125 C 9.515625 -23.359375 9.390625 -23.269531 9.234375 -23.1875 C 9.085938 -23.101562 8.953125 -23.015625 8.828125 -22.921875 C 8.691406 -22.753906 8.609375 -22.5625 8.578125 -22.34375 C 8.546875 -22.132812 8.460938 -21.945312 8.328125 -21.78125 C 8.265625 -21.644531 8.164062 -21.546875 8.03125 -21.484375 C 7.894531 -21.421875 7.796875 -21.320312 7.734375 -21.1875 C 7.535156 -21.0625 7.519531 -20.914062 7.6875 -20.75 C 7.488281 -20.644531 7.320312 -20.53125 7.1875 -20.40625 C 6.957031 -20.007812 6.742188 -19.6875 6.546875 -19.4375 C 6.359375 -19.195312 6.113281 -18.960938 5.8125 -18.734375 C 6.070312 -18.890625 6.304688 -19.054688 6.515625 -19.234375 C 6.734375 -19.421875 6.957031 -19.679688 7.1875 -20.015625 C 7.582031 -20.503906 8.0625 -20.863281 8.625 -21.09375 C 8.394531 -20.832031 8.210938 -20.550781 8.078125 -20.25 C 7.953125 -19.957031 7.738281 -19.710938 7.4375 -19.515625 C 7.238281 -19.421875 7.128906 -19.394531 7.109375 -19.4375 C 7.097656 -19.488281 7.09375 -19.519531 7.09375 -19.53125 C 7.09375 -19.550781 6.976562 -19.460938 6.75 -19.265625 C 6.75 -19.265625 6.789062 -19.269531 6.875 -19.28125 C 6.957031 -19.300781 6.96875 -19.28125 6.90625 -19.21875 C 6.664062 -19.019531 6.429688 -18.789062 6.203125 -18.53125 C 5.972656 -18.269531 5.710938 -18.070312 5.421875 -17.9375 C 5.285156 -17.90625 5.148438 -17.851562 5.015625 -17.78125 C 4.890625 -17.71875 4.742188 -17.722656 4.578125 -17.796875 C 4.421875 -17.890625 4.347656 -17.984375 4.359375 -18.078125 C 4.378906 -18.179688 4.351562 -18.265625 4.28125 -18.328125 Z M 3.34375 -6.609375 C 3.382812 -6.671875 3.382812 -6.6875 3.34375 -6.65625 L 3.25 -6.265625 L 3.34375 -6.546875 Z M 4.984375 -21.234375 L 5.171875 -21.53125 C 5.140625 -21.4375 5.097656 -21.363281 5.046875 -21.3125 C 5.003906 -21.257812 4.984375 -21.234375 4.984375 -21.234375 Z M 4.484375 -20.296875 C 4.453125 -20.265625 4.421875 -20.25 4.390625 -20.25 C 4.421875 -20.25 4.4375 -20.238281 4.4375 -20.21875 C 4.4375 -20.207031 4.4375 -20.203125 4.4375 -20.203125 C 4.46875 -20.234375 4.484375 -20.265625 4.484375 -20.296875 Z M 4.484375 -20.296875 "/></g></g></g><g fill="#ffffff" fill-opacity="1"><g transform="translate(131.560005, 176.617969)"><g><path d="M 19.5625 -11.578125 L 19.5625 -11.53125 C 19.625 -11.007812 19.453125 -10.515625 19.046875 -10.046875 C 18.640625 -9.585938 18.164062 -9.1875 17.625 -8.84375 C 17.082031 -8.5 16.628906 -8.195312 16.265625 -7.9375 C 15.535156 -7.40625 14.8125 -6.898438 14.09375 -6.421875 C 13.375 -5.953125 12.617188 -5.503906 11.828125 -5.078125 C 11.628906 -4.972656 11.398438 -4.867188 11.140625 -4.765625 C 10.878906 -4.671875 10.648438 -4.546875 10.453125 -4.390625 C 10.179688 -4.160156 10.046875 -4.003906 10.046875 -3.921875 C 10.046875 -3.835938 10.066406 -3.597656 10.109375 -3.203125 C 10.171875 -2.773438 10.222656 -2.332031 10.265625 -1.875 C 10.316406 -1.414062 10.34375 -0.957031 10.34375 -0.5 C 10.375 0.195312 10.347656 0.890625 10.265625 1.578125 C 10.191406 2.265625 10.019531 2.9375 9.75 3.59375 C 9.164062 5.101562 8.289062 6.3125 7.125 7.21875 C 5.957031 8.125 4.519531 8.5625 2.8125 8.53125 C 1.789062 8.488281 0.820312 8.296875 -0.09375 7.953125 C -1.019531 7.609375 -1.742188 7.070312 -2.265625 6.34375 C -2.796875 5.625 -2.960938 4.722656 -2.765625 3.640625 C -2.796875 3.679688 -2.832031 3.847656 -2.875 4.140625 C -2.925781 4.429688 -2.96875 4.5625 -3 4.53125 C -3.164062 4.4375 -3.195312 4.191406 -3.09375 3.796875 C -3 3.398438 -2.9375 3.132812 -2.90625 3 C -2.613281 2.082031 -2.113281 1.257812 -1.40625 0.53125 C -0.695312 -0.1875 0.015625 -0.820312 0.734375 -1.375 C 1.160156 -1.707031 1.578125 -2.03125 1.984375 -2.34375 C 2.398438 -2.65625 2.820312 -2.941406 3.25 -3.203125 C 3.582031 -3.398438 4.023438 -3.644531 4.578125 -3.9375 C 5.140625 -4.238281 5.4375 -4.550781 5.46875 -4.875 C 5.53125 -5.238281 5.453125 -5.722656 5.234375 -6.328125 C 5.023438 -6.941406 4.875 -7.425781 4.78125 -7.78125 C 4.675781 -8.238281 4.554688 -8.710938 4.421875 -9.203125 C 4.296875 -9.703125 4.203125 -10.195312 4.140625 -10.6875 C 4.109375 -11.019531 4.113281 -11.300781 4.15625 -11.53125 C 4.207031 -11.757812 4.203125 -12.023438 4.140625 -12.328125 C 4.003906 -12.710938 3.882812 -13.09375 3.78125 -13.46875 C 3.6875 -13.851562 3.625 -14.257812 3.59375 -14.6875 C 3.5625 -15.113281 3.5625 -15.53125 3.59375 -15.9375 C 3.625 -16.351562 3.707031 -16.757812 3.84375 -17.15625 C 3.9375 -17.445312 4.148438 -17.804688 4.484375 -18.234375 C 4.816406 -18.660156 5.203125 -19.046875 5.640625 -19.390625 C 6.085938 -19.734375 6.539062 -19.960938 7 -20.078125 C 7.457031 -20.191406 7.851562 -20.101562 8.1875 -19.8125 C 8.1875 -19.945312 8.289062 -19.859375 8.5 -19.546875 C 8.71875 -19.234375 8.84375 -18.992188 8.875 -18.828125 C 8.875 -18.765625 8.851562 -18.566406 8.8125 -18.234375 C 8.78125 -17.898438 8.722656 -17.585938 8.640625 -17.296875 C 8.566406 -17.003906 8.476562 -16.859375 8.375 -16.859375 C 8.375 -16.859375 8.390625 -16.945312 8.421875 -17.125 C 8.453125 -17.300781 8.488281 -17.472656 8.53125 -17.640625 C 8.394531 -17.316406 8.253906 -16.976562 8.109375 -16.625 C 7.960938 -16.28125 7.867188 -15.929688 7.828125 -15.578125 C 7.796875 -15.242188 7.804688 -14.90625 7.859375 -14.5625 C 7.910156 -14.21875 7.953125 -13.898438 7.984375 -13.609375 C 7.984375 -13.734375 8.015625 -13.8125 8.078125 -13.84375 C 8.078125 -13.84375 8.117188 -13.601562 8.203125 -13.125 C 8.285156 -12.65625 8.410156 -12.054688 8.578125 -11.328125 C 8.742188 -10.609375 8.890625 -9.90625 9.015625 -9.21875 C 8.847656 -9.875 8.664062 -10.5625 8.46875 -11.28125 C 8.28125 -12.007812 8.132812 -12.601562 8.03125 -13.0625 C 8.226562 -11.976562 8.445312 -10.898438 8.6875 -9.828125 C 8.9375 -8.765625 9.175781 -7.707031 9.40625 -6.65625 C 9.476562 -6.71875 9.5 -6.847656 9.46875 -7.046875 C 9.53125 -6.847656 9.5625 -6.75 9.5625 -6.75 C 10.644531 -7.3125 11.695312 -7.863281 12.71875 -8.40625 C 13.738281 -8.945312 14.753906 -9.53125 15.765625 -10.15625 C 16.222656 -10.445312 16.679688 -10.796875 17.140625 -11.203125 C 17.609375 -11.617188 18.070312 -11.941406 18.53125 -12.171875 C 19.09375 -12.398438 19.4375 -12.203125 19.5625 -11.578125 Z M -0.34375 5.375 C 0.0195312 5.5 0.390625 5.535156 0.765625 5.484375 C 1.140625 5.441406 1.492188 5.390625 1.828125 5.328125 L 3.203125 4.78125 C 3.234375 4.8125 3.175781 4.875 3.03125 4.96875 C 2.882812 5.070312 2.8125 5.140625 2.8125 5.171875 C 3.363281 4.847656 3.875 4.40625 4.34375 3.84375 L 4.09375 4.046875 C 4.21875 3.910156 4.382812 3.644531 4.59375 3.25 C 4.8125 2.851562 5.007812 2.472656 5.1875 2.109375 C 5.375 1.753906 5.46875 1.546875 5.46875 1.484375 C 5.632812 0.890625 5.734375 0.296875 5.765625 -0.296875 C 5.796875 -0.890625 5.796875 -1.476562 5.765625 -2.0625 C 5.734375 -2.03125 5.679688 -2 5.609375 -1.96875 C 5.546875 -1.9375 5.484375 -1.90625 5.421875 -1.875 L 5.765625 -2.171875 L 5.171875 -1.828125 C 5.335938 -1.890625 5.265625 -1.796875 4.953125 -1.546875 C 4.640625 -1.304688 4.453125 -1.148438 4.390625 -1.078125 L 2.90625 -0.09375 C 2.414062 0.226562 1.914062 0.585938 1.40625 0.984375 C 0.894531 1.378906 0.457031 1.820312 0.09375 2.3125 C -0.03125 2.507812 -0.21875 2.828125 -0.46875 3.265625 C -0.71875 3.710938 -0.863281 4.140625 -0.90625 4.546875 C -0.957031 4.960938 -0.769531 5.238281 -0.34375 5.375 Z M 5.859375 6.796875 C 6.515625 6.503906 7.03125 6.144531 7.40625 5.71875 C 7.789062 5.289062 8.113281 4.8125 8.375 4.28125 C 7.65625 5.300781 6.71875 6.097656 5.5625 6.671875 C 4.414062 7.253906 3.234375 7.578125 2.015625 7.640625 C 3.367188 7.578125 4.648438 7.296875 5.859375 6.796875 Z M 9.46875 -7.1875 C 9.425781 -7.351562 9.378906 -7.5625 9.328125 -7.8125 C 9.285156 -8.0625 9.234375 -8.316406 9.171875 -8.578125 C 9.296875 -8.078125 9.394531 -7.613281 9.46875 -7.1875 Z M 10.109375 -2.0625 C 10.109375 -2.101562 10.097656 -2.144531 10.078125 -2.1875 C 10.054688 -2.238281 10.046875 -2.28125 10.046875 -2.3125 C 10.046875 -2.1875 10.066406 -2.101562 10.109375 -2.0625 Z M 10.109375 -2.0625 "/></g></g></g></svg>