<svg xmlns="http://www.w3.org/2000/svg" xmlns:xlink="http://www.w3.org/1999/xlink" width="300" zoomAndPan="magnify" viewBox="0 0 224.87999 337.499995" height="450" preserveAspectRatio="xMidYMid meet" version="1.0"><defs><g/><clipPath id="49e3d75400"><path d="M 0.105469 0 L 224.652344 0 L 224.652344 337 L 0.105469 337 Z M 0.105469 0 " clip-rule="nonzero"/></clipPath></defs><g clip-path="url(#49e3d75400)"><path fill="#ffffff" d="M 0.105469 0 L 224.773438 0 L 224.773438 337 L 0.105469 337 Z M 0.105469 0 " fill-opacity="1" fill-rule="nonzero"/><path fill="#000000" d="M 0.105469 0 L 224.773438 0 L 224.773438 337 L 0.105469 337 Z M 0.105469 0 " fill-opacity="1" fill-rule="nonzero"/></g><g fill="#ffffff" fill-opacity="1"><g transform="translate(46.188661, 175.383646)"><g><path d="M 21.1875 -17.34375 C 22.300781 -17.445312 23.375 -17.34375 24.40625 -17.03125 C 25.445312 -16.71875 26.34375 -16.195312 27.09375 -15.46875 C 27.851562 -14.75 28.347656 -13.796875 28.578125 -12.609375 C 28.742188 -11.753906 28.757812 -10.859375 28.625 -9.921875 C 28.5 -8.992188 28.304688 -8.101562 28.046875 -7.25 C 27.421875 -5.3125 26.457031 -3.5625 25.15625 -2 C 23.863281 -0.4375 22.363281 0.925781 20.65625 2.09375 C 18.945312 3.257812 17.1875 4.253906 15.375 5.078125 C 14.257812 5.597656 13.078125 6.0625 11.828125 6.46875 C 10.578125 6.882812 9.328125 7.222656 8.078125 7.484375 C 7.328125 7.617188 6.582031 7.703125 5.84375 7.734375 C 5.101562 7.765625 4.351562 7.71875 3.59375 7.59375 C 3.332031 7.5625 2.960938 7.507812 2.484375 7.4375 C 2.015625 7.375 1.554688 7.273438 1.109375 7.140625 C 0.660156 7.015625 0.359375 6.835938 0.203125 6.609375 C -0.0234375 6.304688 -0.0507812 6.128906 0.125 6.078125 C 0.300781 6.035156 0.539062 6 0.84375 5.96875 C 1.5625 5.832031 2.265625 5.707031 2.953125 5.59375 C 3.640625 5.476562 4.316406 5.304688 4.984375 5.078125 C 6.554688 4.617188 8.085938 4.035156 9.578125 3.328125 C 11.078125 2.617188 12.515625 1.851562 13.890625 1.03125 C 15.210938 0.25 16.472656 -0.609375 17.671875 -1.546875 C 18.867188 -2.484375 19.976562 -3.507812 21 -4.625 C 21.457031 -5.1875 21.898438 -5.765625 22.328125 -6.359375 C 22.753906 -6.953125 23.113281 -7.5625 23.40625 -8.1875 C 23.507812 -8.414062 23.625 -8.734375 23.75 -9.140625 C 23.882812 -9.546875 23.984375 -9.945312 24.046875 -10.34375 C 24.109375 -10.738281 24.09375 -10.988281 24 -11.09375 C 23.96875 -11.125 23.910156 -11.316406 23.828125 -11.671875 C 23.742188 -12.035156 23.703125 -12.347656 23.703125 -12.609375 C 23.734375 -12.453125 23.78125 -12.289062 23.84375 -12.125 C 23.914062 -11.957031 23.96875 -11.804688 24 -11.671875 C 23.96875 -11.941406 23.925781 -12.210938 23.875 -12.484375 C 23.820312 -12.765625 23.734375 -13.039062 23.609375 -13.3125 L 23.609375 -13.15625 C 23.535156 -13.289062 23.390625 -13.476562 23.171875 -13.71875 C 22.960938 -13.96875 22.84375 -14.09375 22.8125 -14.09375 C 22.582031 -14.320312 22.335938 -14.492188 22.078125 -14.609375 C 21.816406 -14.722656 21.535156 -14.796875 21.234375 -14.828125 C 20.609375 -14.898438 20.070312 -14.828125 19.625 -14.609375 C 19.1875 -14.398438 18.691406 -14.210938 18.140625 -14.046875 C 17.804688 -13.941406 17.382812 -13.992188 16.875 -14.203125 C 16.363281 -14.421875 15.867188 -14.703125 15.390625 -15.046875 C 14.921875 -15.398438 14.59375 -15.765625 14.40625 -16.140625 C 14.226562 -16.515625 14.320312 -16.851562 14.6875 -17.15625 C 15.007812 -17.414062 15.398438 -17.617188 15.859375 -17.765625 C 16.328125 -17.910156 16.738281 -18.097656 17.09375 -18.328125 C 17.71875 -18.785156 18.328125 -19.253906 18.921875 -19.734375 C 19.515625 -20.210938 20.070312 -20.710938 20.59375 -21.234375 C 21.1875 -21.796875 21.742188 -22.394531 22.265625 -23.03125 C 22.796875 -23.675781 23.304688 -24.328125 23.796875 -24.984375 C 23.898438 -25.117188 24.097656 -25.429688 24.390625 -25.921875 C 24.691406 -26.410156 25 -26.882812 25.3125 -27.34375 C 25.625 -27.8125 25.8125 -28.023438 25.875 -27.984375 C 25.875 -27.984375 25.804688 -27.835938 25.671875 -27.546875 C 25.546875 -27.253906 25.484375 -27.09375 25.484375 -27.0625 C 25.742188 -27.582031 26.003906 -28.101562 26.265625 -28.625 C 26.523438 -29.15625 26.753906 -29.679688 26.953125 -30.203125 L 26.953125 -30.265625 L 27 -30.3125 L 27.0625 -30.453125 C 27.289062 -30.941406 27.476562 -31.546875 27.625 -32.265625 C 27.769531 -32.992188 27.816406 -33.65625 27.765625 -34.25 C 27.722656 -34.84375 27.46875 -35.1875 27 -35.28125 C 26.570312 -35.414062 26.117188 -35.253906 25.640625 -34.796875 C 25.171875 -34.335938 24.804688 -33.972656 24.546875 -33.703125 C 23.128906 -32.328125 21.8125 -30.832031 20.59375 -29.21875 C 19.382812 -27.613281 18.253906 -25.988281 17.203125 -24.34375 C 16.578125 -23.425781 15.972656 -22.488281 15.390625 -21.53125 C 14.816406 -20.582031 14.253906 -19.628906 13.703125 -18.671875 C 13.367188 -18.117188 12.992188 -17.585938 12.578125 -17.078125 C 12.171875 -16.566406 11.835938 -16.015625 11.578125 -15.421875 C 10.828125 -13.617188 10.0625 -11.835938 9.28125 -10.078125 C 8.507812 -8.316406 7.832031 -6.5 7.25 -4.625 C 6.945312 -3.675781 6.6875 -2.71875 6.46875 -1.75 C 6.257812 -0.78125 6.070312 0.195312 5.90625 1.1875 L 5.765625 0.890625 C 5.304688 1.378906 4.804688 1.613281 4.265625 1.59375 C 3.722656 1.582031 3.21875 1.40625 2.75 1.0625 C 2.289062 0.71875 1.945312 0.28125 1.71875 -0.25 C 1.363281 -1.070312 1.21875 -2.015625 1.28125 -3.078125 C 1.34375 -4.148438 1.390625 -5.113281 1.421875 -5.96875 C 1.492188 -7.019531 1.570312 -8.0625 1.65625 -9.09375 C 1.738281 -10.125 1.894531 -11.148438 2.125 -12.171875 C 2.21875 -12.597656 2.335938 -13 2.484375 -13.375 C 2.628906 -13.757812 2.769531 -14.144531 2.90625 -14.53125 C 2.9375 -14.601562 2.96875 -14.773438 3 -15.046875 C 3.039062 -15.328125 3.082031 -15.609375 3.125 -15.890625 C 3.175781 -16.171875 3.21875 -16.3125 3.25 -16.3125 C 3.25 -16.25 3.265625 -16.203125 3.296875 -16.171875 C 3.296875 -16.234375 3.300781 -16.285156 3.3125 -16.328125 C 3.332031 -16.378906 3.34375 -16.441406 3.34375 -16.515625 C 3.28125 -16.347656 3.25 -16.335938 3.25 -16.484375 C 3.25 -16.628906 3.265625 -16.804688 3.296875 -17.015625 C 3.328125 -17.234375 3.34375 -17.34375 3.34375 -17.34375 C 3.414062 -17.601562 3.492188 -17.875 3.578125 -18.15625 C 3.660156 -18.4375 3.734375 -18.691406 3.796875 -18.921875 C 3.960938 -19.410156 4.101562 -19.882812 4.21875 -20.34375 C 4.332031 -20.8125 4.421875 -21.289062 4.484375 -21.78125 C 4.515625 -21.882812 4.59375 -22.171875 4.71875 -22.640625 C 4.851562 -23.117188 5.023438 -23.65625 5.234375 -24.25 C 5.453125 -24.84375 5.648438 -25.359375 5.828125 -25.796875 C 6.015625 -26.242188 6.175781 -26.453125 6.3125 -26.421875 C 6.375 -26.378906 6.367188 -26.304688 6.296875 -26.203125 C 6.234375 -26.109375 6.222656 -26.046875 6.265625 -26.015625 L 6.609375 -27.109375 C 6.566406 -27.109375 6.648438 -27.378906 6.859375 -27.921875 C 7.078125 -28.460938 7.34375 -29.09375 7.65625 -29.8125 C 7.96875 -30.539062 8.265625 -31.195312 8.546875 -31.78125 C 8.828125 -32.375 8.984375 -32.722656 9.015625 -32.828125 C 9.472656 -33.640625 9.898438 -34.429688 10.296875 -35.203125 C 10.691406 -35.984375 11.25 -36.664062 11.96875 -37.25 C 12.269531 -37.488281 12.59375 -37.820312 12.9375 -38.25 C 13.28125 -38.675781 13.671875 -39.035156 14.109375 -39.328125 C 14.554688 -39.617188 15.046875 -39.664062 15.578125 -39.46875 C 15.929688 -39.34375 16.265625 -39.046875 16.578125 -38.578125 C 16.890625 -38.117188 17.0625 -37.695312 17.09375 -37.3125 C 17.09375 -37.007812 17.035156 -36.800781 16.921875 -36.6875 C 16.804688 -36.570312 16.671875 -36.429688 16.515625 -36.265625 C 16.578125 -36.335938 16.65625 -36.375 16.75 -36.375 C 16.789062 -36.375 16.710938 -36.222656 16.515625 -35.921875 C 16.316406 -35.628906 16.101562 -35.347656 15.875 -35.078125 C 15.644531 -34.816406 15.492188 -34.6875 15.421875 -34.6875 C 15.390625 -34.6875 15.414062 -34.753906 15.5 -34.890625 C 15.582031 -35.023438 15.65625 -35.15625 15.71875 -35.28125 C 14.832031 -34.070312 14.035156 -32.804688 13.328125 -31.484375 C 12.617188 -30.171875 11.972656 -28.828125 11.390625 -27.453125 C 11.515625 -27.710938 11.71875 -28.117188 12 -28.671875 C 12.28125 -29.234375 12.578125 -29.828125 12.890625 -30.453125 C 13.203125 -31.078125 13.476562 -31.617188 13.71875 -32.078125 C 13.96875 -32.535156 14.144531 -32.785156 14.25 -32.828125 C 14.175781 -32.785156 14.007812 -32.5 13.75 -31.96875 C 13.488281 -31.445312 13.1875 -30.832031 12.84375 -30.125 C 12.5 -29.425781 12.191406 -28.785156 11.921875 -28.203125 C 11.660156 -27.628906 11.5 -27.296875 11.4375 -27.203125 C 11.007812 -26.210938 10.613281 -25.222656 10.25 -24.234375 C 9.882812 -23.253906 9.554688 -22.238281 9.265625 -21.1875 C 9.003906 -20.207031 8.757812 -19.222656 8.53125 -18.234375 C 8.300781 -17.242188 8.050781 -16.257812 7.78125 -15.28125 C 7.550781 -14.488281 7.304688 -13.664062 7.046875 -12.8125 C 6.785156 -11.957031 6.585938 -11.132812 6.453125 -10.34375 C 6.515625 -10.476562 6.582031 -10.578125 6.65625 -10.640625 C 6.6875 -10.671875 6.675781 -10.488281 6.625 -10.09375 C 6.570312 -9.707031 6.53125 -9.304688 6.5 -8.890625 C 6.46875 -8.484375 6.453125 -8.25 6.453125 -8.1875 L 6.265625 -6.3125 C 7.304688 -9.925781 8.679688 -13.414062 10.390625 -16.78125 C 12.109375 -20.144531 14.015625 -23.375 16.109375 -26.46875 C 15.328125 -25.34375 14.566406 -24.1875 13.828125 -23 C 13.085938 -21.820312 12.367188 -20.628906 11.671875 -19.421875 C 11.347656 -18.796875 11.03125 -18.175781 10.71875 -17.5625 C 10.40625 -16.957031 10.101562 -16.34375 9.8125 -15.71875 C 9.582031 -15.289062 9.285156 -14.765625 8.921875 -14.140625 C 8.554688 -13.515625 8.34375 -12.972656 8.28125 -12.515625 C 8.34375 -12.941406 8.503906 -13.382812 8.765625 -13.84375 C 9.035156 -14.300781 9.25 -14.710938 9.40625 -15.078125 C 9.601562 -15.535156 9.816406 -15.992188 10.046875 -16.453125 C 10.273438 -16.921875 10.507812 -17.367188 10.75 -17.796875 C 11.175781 -18.609375 11.609375 -19.414062 12.046875 -20.21875 C 12.492188 -21.03125 12.945312 -21.832031 13.40625 -22.625 C 14.457031 -24.257812 15.546875 -25.878906 16.671875 -27.484375 C 17.804688 -29.097656 18.984375 -30.664062 20.203125 -32.1875 C 21.390625 -33.65625 22.65625 -35.066406 24 -36.421875 C 24.519531 -36.910156 25.125 -37.46875 25.8125 -38.09375 C 26.507812 -38.71875 27.21875 -39.097656 27.9375 -39.234375 C 28.863281 -39.390625 29.660156 -39.222656 30.328125 -38.734375 C 31.003906 -38.242188 31.546875 -37.601562 31.953125 -36.8125 C 32.367188 -36.019531 32.609375 -35.234375 32.671875 -34.453125 C 32.898438 -32.671875 32.726562 -30.910156 32.15625 -29.171875 C 31.582031 -27.429688 30.726562 -25.789062 29.59375 -24.25 C 28.457031 -22.707031 27.15625 -21.34375 25.6875 -20.15625 C 24.226562 -18.96875 22.726562 -18.03125 21.1875 -17.34375 Z M 23.359375 -5.03125 C 23.523438 -5.425781 23.722656 -5.910156 23.953125 -6.484375 C 24.179688 -7.054688 24.3125 -7.554688 24.34375 -7.984375 L 24.09375 -7.390625 C 23.664062 -6.535156 23.210938 -5.753906 22.734375 -5.046875 C 22.265625 -4.335938 21.71875 -3.625 21.09375 -2.90625 L 19.421875 -1.140625 C 19.710938 -1.367188 20.035156 -1.570312 20.390625 -1.75 C 20.753906 -1.925781 21.101562 -2.164062 21.4375 -2.46875 C 21.800781 -2.789062 22.171875 -3.179688 22.546875 -3.640625 C 22.921875 -4.109375 23.191406 -4.570312 23.359375 -5.03125 Z M 29.46875 -26.015625 C 29.207031 -25.523438 28.921875 -25.054688 28.609375 -24.609375 C 28.296875 -24.171875 27.957031 -23.722656 27.59375 -23.265625 C 27.820312 -23.523438 28.035156 -23.769531 28.234375 -24 C 28.429688 -24.226562 28.644531 -24.457031 28.875 -24.6875 C 29.5 -25.375 29.984375 -26.0625 30.328125 -26.75 C 30.671875 -27.445312 30.957031 -28.207031 31.1875 -29.03125 C 30.957031 -28.5 30.675781 -27.96875 30.34375 -27.4375 C 30.019531 -26.914062 29.726562 -26.441406 29.46875 -26.015625 Z M 3.546875 -10.75 C 3.679688 -11.007812 3.8125 -11.273438 3.9375 -11.546875 C 4.070312 -11.828125 4.15625 -12.132812 4.1875 -12.46875 C 4.21875 -12.632812 4.234375 -12.78125 4.234375 -12.90625 C 4.234375 -13.039062 4.234375 -13.175781 4.234375 -13.3125 C 4.109375 -13.082031 3.96875 -12.832031 3.8125 -12.5625 C 3.664062 -12.300781 3.5625 -12.054688 3.5 -11.828125 C 3.363281 -11.296875 3.265625 -10.703125 3.203125 -10.046875 C 3.140625 -9.390625 3.125 -8.785156 3.15625 -8.234375 C 3.125 -8.585938 3.144531 -9.007812 3.21875 -9.5 C 3.300781 -10 3.410156 -10.414062 3.546875 -10.75 Z M 10.5 -25.28125 L 10.59375 -25.578125 C 10.53125 -25.441406 10.5 -25.34375 10.5 -25.28125 Z M 19.953125 -31.640625 L 19.609375 -31.296875 Z M 11.28125 -27.25 L 11.390625 -27.453125 C 11.316406 -27.378906 11.28125 -27.3125 11.28125 -27.25 Z M 11.28125 -27.25 "/></g></g></g><g fill="#ffffff" fill-opacity="1"><g transform="translate(77.875496, 175.383646)"><g><path d="M 20.203125 -11.96875 C 20.265625 -11.644531 20.210938 -11.285156 20.046875 -10.890625 C 19.890625 -10.492188 19.726562 -10.148438 19.5625 -9.859375 C 19.363281 -9.429688 19.140625 -9.019531 18.890625 -8.625 C 18.648438 -8.226562 18.398438 -7.832031 18.140625 -7.4375 C 17.578125 -6.613281 16.988281 -5.785156 16.375 -4.953125 C 15.769531 -4.117188 15.175781 -3.273438 14.59375 -2.421875 C 14 -1.597656 13.375 -0.789062 12.71875 0 C 12.0625 0.789062 11.335938 1.515625 10.546875 2.171875 C 10.441406 2.234375 10.175781 2.425781 9.75 2.75 C 9.320312 3.082031 8.910156 3.394531 8.515625 3.6875 C 8.128906 3.988281 7.898438 4.140625 7.828125 4.140625 C 7.828125 4.109375 7.863281 4.054688 7.9375 3.984375 L 7.59375 4.140625 C 7.71875 4.109375 7.625 4.195312 7.3125 4.40625 C 7 4.625 6.78125 4.765625 6.65625 4.828125 C 5.96875 4.960938 5.289062 4.816406 4.625 4.390625 C 4.300781 4.191406 4.046875 3.941406 3.859375 3.640625 C 3.679688 3.347656 3.507812 3.035156 3.34375 2.703125 C 3.113281 2.148438 2.972656 1.609375 2.921875 1.078125 C 2.878906 0.554688 2.90625 0 3 -0.59375 C 3.039062 -0.6875 3.125 -0.976562 3.25 -1.46875 C 3.382812 -1.96875 3.53125 -2.460938 3.6875 -2.953125 C 3.851562 -3.453125 3.988281 -3.679688 4.09375 -3.640625 C 4.15625 -3.640625 4.148438 -3.570312 4.078125 -3.4375 C 4.015625 -3.3125 4.003906 -3.234375 4.046875 -3.203125 L 4.390625 -4.4375 C 4.359375 -4.4375 4.460938 -4.722656 4.703125 -5.296875 C 4.953125 -5.867188 5.25 -6.53125 5.59375 -7.28125 C 5.9375 -8.039062 6.253906 -8.71875 6.546875 -9.3125 C 6.847656 -9.90625 7.03125 -10.25 7.09375 -10.34375 C 6.375 -10.21875 5.59375 -10.203125 4.75 -10.296875 C 3.914062 -10.398438 3.234375 -10.765625 2.703125 -11.390625 C 2.578125 -11.578125 2.515625 -11.757812 2.515625 -11.9375 C 2.515625 -12.125 2.484375 -12.285156 2.421875 -12.421875 C 2.347656 -12.617188 2.269531 -12.78125 2.1875 -12.90625 C 2.101562 -13.039062 2.03125 -13.191406 1.96875 -13.359375 C 1.84375 -13.953125 1.898438 -14.578125 2.140625 -15.234375 C 2.390625 -15.890625 2.75 -16.460938 3.21875 -16.953125 C 3.695312 -17.441406 4.238281 -17.753906 4.84375 -17.890625 C 5.457031 -18.023438 6.0625 -17.894531 6.65625 -17.5 L 6.546875 -17.640625 C 6.585938 -17.804688 6.703125 -17.765625 6.890625 -17.515625 C 7.085938 -17.273438 7.207031 -17.085938 7.25 -16.953125 C 7.25 -16.890625 7.210938 -16.734375 7.140625 -16.484375 C 7.078125 -16.234375 6.992188 -15.992188 6.890625 -15.765625 C 6.796875 -15.535156 6.703125 -15.4375 6.609375 -15.46875 C 6.566406 -15.46875 6.601562 -15.613281 6.71875 -15.90625 C 6.84375 -16.207031 6.90625 -16.375 6.90625 -16.40625 C 6.738281 -15.945312 6.460938 -15.460938 6.078125 -14.953125 C 5.703125 -14.441406 5.484375 -13.941406 5.421875 -13.453125 C 5.390625 -13.085938 5.453125 -12.863281 5.609375 -12.78125 C 5.773438 -12.707031 6.023438 -12.632812 6.359375 -12.5625 C 6.816406 -12.4375 7.378906 -12.375 8.046875 -12.375 C 8.722656 -12.375 9.359375 -12.289062 9.953125 -12.125 C 9.554688 -12.257812 9.144531 -12.347656 8.71875 -12.390625 C 8.289062 -12.441406 7.914062 -12.484375 7.59375 -12.515625 C 7.59375 -12.515625 7.582031 -12.515625 7.5625 -12.515625 C 7.550781 -12.515625 7.546875 -12.53125 7.546875 -12.5625 C 7.898438 -12.53125 8.265625 -12.5 8.640625 -12.46875 C 9.023438 -12.4375 9.378906 -12.390625 9.703125 -12.328125 C 10.429688 -12.160156 10.972656 -11.898438 11.328125 -11.546875 C 11.691406 -11.203125 11.726562 -10.65625 11.4375 -9.90625 C 11.132812 -9.1875 10.8125 -8.472656 10.46875 -7.765625 C 10.125 -7.054688 9.789062 -6.34375 9.46875 -5.625 C 9.164062 -4.925781 8.882812 -4.21875 8.625 -3.5 C 8.363281 -2.78125 8.097656 -2.054688 7.828125 -1.328125 C 7.796875 -1.160156 7.679688 -0.863281 7.484375 -0.4375 C 7.285156 -0.0078125 7.117188 0.414062 6.984375 0.84375 C 6.859375 1.269531 6.863281 1.5625 7 1.71875 C 7.125 1.851562 7.359375 1.835938 7.703125 1.671875 C 8.054688 1.503906 8.445312 1.25 8.875 0.90625 C 9.300781 0.5625 9.703125 0.21875 10.078125 -0.125 C 10.453125 -0.46875 10.738281 -0.738281 10.9375 -0.9375 C 10.875 -0.875 10.804688 -0.832031 10.734375 -0.8125 C 10.671875 -0.789062 10.609375 -0.75 10.546875 -0.6875 C 10.515625 -0.6875 10.578125 -0.800781 10.734375 -1.03125 C 10.898438 -1.257812 11.085938 -1.503906 11.296875 -1.765625 C 11.515625 -2.035156 11.640625 -2.203125 11.671875 -2.265625 L 13.109375 -4.09375 L 15.765625 -7.59375 L 18.484375 -11.234375 C 18.578125 -11.335938 18.738281 -11.535156 18.96875 -11.828125 C 19.195312 -12.117188 19.4375 -12.320312 19.6875 -12.4375 C 19.9375 -12.550781 20.109375 -12.394531 20.203125 -11.96875 Z M 5.46875 -6.0625 C 5.175781 -5.375 4.890625 -4.675781 4.609375 -3.96875 C 4.328125 -3.257812 4.101562 -2.53125 3.9375 -1.78125 C 4.101562 -2.4375 4.316406 -3.066406 4.578125 -3.671875 C 4.847656 -4.273438 5.097656 -4.875 5.328125 -5.46875 L 6.265625 -7.640625 C 6.359375 -7.804688 6.507812 -8.117188 6.71875 -8.578125 C 6.9375 -9.035156 7.148438 -9.484375 7.359375 -9.921875 C 7.578125 -10.367188 7.71875 -10.609375 7.78125 -10.640625 C 7.6875 -10.609375 7.546875 -10.4375 7.359375 -10.125 C 7.179688 -9.8125 7.023438 -9.5 6.890625 -9.1875 C 6.765625 -8.875 6.6875 -8.6875 6.65625 -8.625 C 6.195312 -7.738281 5.800781 -6.882812 5.46875 -6.0625 Z M 4.28125 3.40625 L 4.28125 3.453125 C 4.21875 3.378906 4.1875 3.328125 4.1875 3.296875 L 4.234375 3.34375 C 4.109375 3.082031 3.992188 2.820312 3.890625 2.5625 C 3.796875 2.300781 3.710938 2.101562 3.640625 1.96875 L 3.796875 2.609375 L 3.59375 1.578125 L 3.59375 1.53125 C 3.5625 1.457031 3.546875 1.410156 3.546875 1.390625 C 3.546875 1.378906 3.546875 1.375 3.546875 1.375 C 3.546875 1.375 3.546875 1.378906 3.546875 1.390625 C 3.546875 1.410156 3.5625 1.441406 3.59375 1.484375 L 3.59375 1.234375 C 3.5625 0.867188 3.5625 0.53125 3.59375 0.21875 C 3.625 -0.09375 3.660156 -0.410156 3.703125 -0.734375 L 3.703125 -0.78125 C 3.597656 -0.351562 3.546875 0.0859375 3.546875 0.546875 C 3.484375 1.171875 3.535156 1.796875 3.703125 2.421875 C 3.734375 2.484375 3.828125 2.675781 3.984375 3 C 4.148438 3.332031 4.300781 3.597656 4.4375 3.796875 C 4.4375 3.734375 4.421875 3.703125 4.390625 3.703125 C 4.710938 3.992188 5.085938 4.222656 5.515625 4.390625 C 5.253906 4.285156 5.023438 4.144531 4.828125 3.96875 C 4.628906 3.789062 4.445312 3.601562 4.28125 3.40625 Z M 5.671875 -12.859375 C 5.535156 -12.929688 5.46875 -13.0625 5.46875 -13.25 C 5.5 -13.21875 5.5625 -13.148438 5.65625 -13.046875 C 5.757812 -12.953125 5.8125 -12.90625 5.8125 -12.90625 C 6.039062 -12.75 6.367188 -12.632812 6.796875 -12.5625 C 6.566406 -12.59375 6.351562 -12.625 6.15625 -12.65625 C 5.957031 -12.695312 5.796875 -12.765625 5.671875 -12.859375 Z M 10.84375 -9.015625 L 10.84375 -9.0625 L 9.8125 -6.84375 Z M 3.75 -0.9375 C 3.75 -0.90625 3.738281 -0.890625 3.71875 -0.890625 C 3.707031 -0.890625 3.703125 -0.875 3.703125 -0.84375 L 3.703125 -0.78125 C 3.703125 -0.820312 3.707031 -0.847656 3.71875 -0.859375 C 3.738281 -0.878906 3.75 -0.90625 3.75 -0.9375 Z M 10.890625 -9.171875 L 10.84375 -9.109375 L 10.890625 -9.109375 Z M 10.890625 -9.171875 L 10.84375 -9.109375 L 10.890625 -9.109375 Z M 3.796875 -1.578125 C 3.796875 -1.609375 3.800781 -1.640625 3.8125 -1.671875 C 3.832031 -1.703125 3.84375 -1.738281 3.84375 -1.78125 C 3.84375 -1.738281 3.832031 -1.703125 3.8125 -1.671875 C 3.800781 -1.640625 3.796875 -1.609375 3.796875 -1.578125 Z M 3.984375 2.953125 C 3.984375 2.984375 3.992188 3 4.015625 3 C 4.035156 3 4.046875 3.019531 4.046875 3.0625 C 4.046875 3.019531 4.035156 2.988281 4.015625 2.96875 C 3.992188 2.957031 3.984375 2.953125 3.984375 2.953125 Z M 5.515625 -13.359375 L 5.46875 -13.3125 C 5.46875 -13.3125 5.46875 -13.316406 5.46875 -13.328125 C 5.46875 -13.347656 5.484375 -13.359375 5.515625 -13.359375 Z M 5.515625 -13.359375 "/></g></g></g><g fill="#ffffff" fill-opacity="1"><g transform="translate(94.482748, 175.383646)"><g><path d="M 12.90625 -12.125 C 13.007812 -11.664062 12.90625 -11.1875 12.59375 -10.6875 C 12.28125 -10.195312 11.992188 -9.789062 11.734375 -9.46875 C 11.304688 -8.84375 10.882812 -8.234375 10.46875 -7.640625 C 10.0625 -7.046875 9.628906 -6.453125 9.171875 -5.859375 C 8.671875 -5.203125 8.097656 -4.445312 7.453125 -3.59375 C 6.816406 -2.738281 6.070312 -2.210938 5.21875 -2.015625 C 5.09375 -2.015625 4.847656 -2.054688 4.484375 -2.140625 C 4.117188 -2.222656 3.78125 -2.320312 3.46875 -2.4375 C 3.15625 -2.550781 3 -2.660156 3 -2.765625 L 3.109375 -2.765625 C 2.910156 -2.859375 2.832031 -2.851562 2.875 -2.75 C 2.925781 -2.65625 2.804688 -2.722656 2.515625 -2.953125 C 2.285156 -3.117188 2.09375 -3.300781 1.9375 -3.5 C 1.789062 -3.695312 1.640625 -3.910156 1.484375 -4.140625 C 1.210938 -4.503906 0.929688 -4.863281 0.640625 -5.21875 C 0.347656 -5.582031 0.148438 -5.976562 0.046875 -6.40625 C 0.046875 -6.5 0.0351562 -6.710938 0.015625 -7.046875 C 0.00390625 -7.378906 0.015625 -7.691406 0.046875 -7.984375 C 0.078125 -8.273438 0.160156 -8.421875 0.296875 -8.421875 C 0.359375 -8.421875 0.375 -8.378906 0.34375 -8.296875 C 0.3125 -8.222656 0.3125 -8.1875 0.34375 -8.1875 L 0.5 -9.0625 C 0.425781 -8.96875 0.375 -8.90625 0.34375 -8.875 C 0.3125 -8.875 0.328125 -9.050781 0.390625 -9.40625 C 0.460938 -9.769531 0.554688 -10.195312 0.671875 -10.6875 C 0.785156 -11.1875 0.890625 -11.628906 0.984375 -12.015625 C 1.085938 -12.410156 1.15625 -12.644531 1.1875 -12.71875 C 1.382812 -13.238281 1.570312 -13.757812 1.75 -14.28125 C 1.925781 -14.8125 2.265625 -15.226562 2.765625 -15.53125 C 3.117188 -15.789062 3.523438 -15.898438 3.984375 -15.859375 C 4.453125 -15.828125 4.914062 -15.71875 5.375 -15.53125 C 5.570312 -15.457031 5.875 -15.3125 6.28125 -15.09375 C 6.695312 -14.882812 6.90625 -14.648438 6.90625 -14.390625 C 6.90625 -14.253906 6.851562 -14.15625 6.75 -14.09375 C 6.65625 -14.03125 6.570312 -13.960938 6.5 -13.890625 C 6.53125 -13.929688 6.597656 -13.953125 6.703125 -13.953125 C 6.765625 -13.910156 6.679688 -13.707031 6.453125 -13.34375 C 6.222656 -12.988281 6.078125 -12.828125 6.015625 -12.859375 C 5.984375 -12.859375 5.984375 -12.90625 6.015625 -13 C 6.046875 -13.101562 6.078125 -13.1875 6.109375 -13.25 C 5.191406 -11.738281 4.421875 -10.082031 3.796875 -8.28125 C 3.890625 -8.507812 4.050781 -8.894531 4.28125 -9.4375 C 4.507812 -9.976562 4.75 -10.484375 5 -10.953125 C 5.25 -11.429688 5.390625 -11.65625 5.421875 -11.625 C 5.453125 -11.625 5.367188 -11.414062 5.171875 -11 C 4.972656 -10.59375 4.734375 -10.078125 4.453125 -9.453125 C 4.179688 -8.835938 3.9375 -8.207031 3.71875 -7.5625 C 3.507812 -6.925781 3.394531 -6.351562 3.375 -5.84375 C 3.351562 -5.332031 3.507812 -4.992188 3.84375 -4.828125 C 4.101562 -4.691406 4.40625 -4.707031 4.75 -4.875 C 5.09375 -5.039062 5.429688 -5.253906 5.765625 -5.515625 C 6.097656 -5.773438 6.34375 -5.972656 6.5 -6.109375 C 6.957031 -6.472656 7.472656 -6.875 8.046875 -7.3125 C 8.628906 -7.757812 9.082031 -8.195312 9.40625 -8.625 C 9.34375 -8.5625 9.226562 -8.53125 9.0625 -8.53125 C 9.03125 -8.59375 9.117188 -8.800781 9.328125 -9.15625 C 9.546875 -9.519531 9.828125 -9.929688 10.171875 -10.390625 C 10.515625 -10.859375 10.84375 -11.28125 11.15625 -11.65625 C 11.46875 -12.03125 11.675781 -12.253906 11.78125 -12.328125 C 11.945312 -12.453125 12.164062 -12.53125 12.4375 -12.5625 C 12.71875 -12.59375 12.875 -12.445312 12.90625 -12.125 Z M 4.28125 -18.328125 C 4.28125 -18.328125 4.226562 -18.398438 4.125 -18.546875 C 4.03125 -18.703125 3.984375 -18.796875 3.984375 -18.828125 C 3.984375 -18.890625 3.972656 -19.050781 3.953125 -19.3125 C 3.941406 -19.582031 3.960938 -19.832031 4.015625 -20.0625 C 4.066406 -20.289062 4.175781 -20.351562 4.34375 -20.25 C 4.34375 -20.320312 4.429688 -20.460938 4.609375 -20.671875 C 4.785156 -20.890625 4.789062 -20.832031 4.625 -20.5 C 5.050781 -21.0625 5.445312 -21.734375 5.8125 -22.515625 L 5.21875 -21.640625 C 5.445312 -22.097656 5.691406 -22.675781 5.953125 -23.375 C 6.222656 -24.082031 6.375 -24.519531 6.40625 -24.6875 C 6.40625 -24.71875 6.394531 -24.816406 6.375 -24.984375 C 6.363281 -25.148438 6.375 -25.25 6.40625 -25.28125 C 5.882812 -25.476562 5.71875 -25.707031 5.90625 -25.96875 C 6.101562 -26.226562 6.316406 -26.441406 6.546875 -26.609375 C 6.453125 -26.609375 6.390625 -26.640625 6.359375 -26.703125 C 6.253906 -26.804688 6.300781 -26.890625 6.5 -26.953125 C 6.695312 -27.023438 6.832031 -27.078125 6.90625 -27.109375 C 7.257812 -27.265625 7.632812 -27.3125 8.03125 -27.25 C 8.425781 -27.1875 8.785156 -27.070312 9.109375 -26.90625 C 9.378906 -26.738281 9.628906 -26.488281 9.859375 -26.15625 C 10.085938 -25.832031 10.25 -25.523438 10.34375 -25.234375 C 10.445312 -24.898438 10.40625 -24.566406 10.21875 -24.234375 C 10.039062 -23.910156 9.835938 -23.648438 9.609375 -23.453125 C 9.515625 -23.359375 9.390625 -23.269531 9.234375 -23.1875 C 9.085938 -23.101562 8.953125 -23.015625 8.828125 -22.921875 C 8.691406 -22.753906 8.609375 -22.5625 8.578125 -22.34375 C 8.546875 -22.132812 8.460938 -21.945312 8.328125 -21.78125 C 8.265625 -21.644531 8.164062 -21.546875 8.03125 -21.484375 C 7.894531 -21.421875 7.796875 -21.320312 7.734375 -21.1875 C 7.535156 -21.0625 7.519531 -20.914062 7.6875 -20.75 C 7.488281 -20.644531 7.320312 -20.53125 7.1875 -20.40625 C 6.957031 -20.007812 6.742188 -19.6875 6.546875 -19.4375 C 6.359375 -19.195312 6.113281 -18.960938 5.8125 -18.734375 C 6.070312 -18.890625 6.304688 -19.054688 6.515625 -19.234375 C 6.734375 -19.421875 6.957031 -19.679688 7.1875 -20.015625 C 7.582031 -20.503906 8.0625 -20.863281 8.625 -21.09375 C 8.394531 -20.832031 8.210938 -20.550781 8.078125 -20.25 C 7.953125 -19.957031 7.738281 -19.710938 7.4375 -19.515625 C 7.238281 -19.421875 7.128906 -19.394531 7.109375 -19.4375 C 7.097656 -19.488281 7.09375 -19.519531 7.09375 -19.53125 C 7.09375 -19.550781 6.976562 -19.460938 6.75 -19.265625 C 6.75 -19.265625 6.789062 -19.269531 6.875 -19.28125 C 6.957031 -19.300781 6.96875 -19.28125 6.90625 -19.21875 C 6.664062 -19.019531 6.429688 -18.789062 6.203125 -18.53125 C 5.972656 -18.269531 5.710938 -18.070312 5.421875 -17.9375 C 5.285156 -17.90625 5.148438 -17.851562 5.015625 -17.78125 C 4.890625 -17.71875 4.742188 -17.722656 4.578125 -17.796875 C 4.421875 -17.890625 4.347656 -17.984375 4.359375 -18.078125 C 4.378906 -18.179688 4.351562 -18.265625 4.28125 -18.328125 Z M 3.34375 -6.609375 C 3.382812 -6.671875 3.382812 -6.6875 3.34375 -6.65625 L 3.25 -6.265625 L 3.34375 -6.546875 Z M 4.984375 -21.234375 L 5.171875 -21.53125 C 5.140625 -21.4375 5.097656 -21.363281 5.046875 -21.3125 C 5.003906 -21.257812 4.984375 -21.234375 4.984375 -21.234375 Z M 4.484375 -20.296875 C 4.453125 -20.265625 4.421875 -20.25 4.390625 -20.25 C 4.421875 -20.25 4.4375 -20.238281 4.4375 -20.21875 C 4.4375 -20.207031 4.4375 -20.203125 4.4375 -20.203125 C 4.46875 -20.234375 4.484375 -20.265625 4.484375 -20.296875 Z M 4.484375 -20.296875 "/></g></g></g><g fill="#ffffff" fill-opacity="1"><g transform="translate(103.79661, 175.383646)"><g><path d="M 20.40625 -11.734375 C 20.46875 -11.335938 20.347656 -10.90625 20.046875 -10.4375 C 19.753906 -9.976562 19.410156 -9.535156 19.015625 -9.109375 C 18.628906 -8.679688 18.335938 -8.335938 18.140625 -8.078125 C 17.609375 -7.390625 17.078125 -6.691406 16.546875 -5.984375 C 16.023438 -5.273438 15.472656 -4.59375 14.890625 -3.9375 C 14.585938 -3.644531 14.226562 -3.300781 13.8125 -2.90625 C 13.40625 -2.507812 12.972656 -2.203125 12.515625 -1.984375 C 12.054688 -1.773438 11.597656 -1.738281 11.140625 -1.875 C 11.035156 -1.90625 10.8125 -2.007812 10.46875 -2.1875 C 10.125 -2.375 9.800781 -2.570312 9.5 -2.78125 C 9.207031 -3 9.0625 -3.140625 9.0625 -3.203125 L 9.21875 -3.109375 L 8.921875 -3.40625 C 9.046875 -3.207031 9.023438 -3.171875 8.859375 -3.296875 C 8.703125 -3.429688 8.609375 -3.5 8.578125 -3.5 C 8.441406 -3.632812 8.320312 -3.789062 8.21875 -3.96875 C 8.125 -4.144531 8.046875 -4.300781 7.984375 -4.4375 C 7.847656 -4.695312 7.765625 -4.96875 7.734375 -5.25 C 7.703125 -5.53125 7.6875 -5.800781 7.6875 -6.0625 C 7.6875 -6.320312 7.703125 -6.59375 7.734375 -6.875 C 7.765625 -7.15625 7.796875 -7.425781 7.828125 -7.6875 C 7.898438 -8.25 7.957031 -8.789062 8 -9.3125 C 8.050781 -9.84375 8.160156 -10.367188 8.328125 -10.890625 C 8.359375 -10.984375 8.472656 -11.269531 8.671875 -11.75 C 8.867188 -12.226562 9.082031 -12.695312 9.3125 -13.15625 C 9.539062 -13.613281 9.707031 -13.828125 9.8125 -13.796875 C 9.875 -13.796875 9.863281 -13.738281 9.78125 -13.625 C 9.695312 -13.507812 9.671875 -13.4375 9.703125 -13.40625 L 10.390625 -14.78125 C 10.359375 -14.75 10.328125 -14.707031 10.296875 -14.65625 C 10.265625 -14.613281 10.21875 -14.570312 10.15625 -14.53125 C 10.125 -14.570312 10.222656 -14.785156 10.453125 -15.171875 C 10.679688 -15.566406 10.828125 -15.832031 10.890625 -15.96875 C 10.398438 -15.40625 9.945312 -14.828125 9.53125 -14.234375 C 9.125 -13.648438 8.691406 -13.0625 8.234375 -12.46875 C 7.898438 -12.039062 7.5625 -11.671875 7.21875 -11.359375 C 6.875 -11.046875 6.585938 -10.691406 6.359375 -10.296875 C 5.828125 -9.410156 5.273438 -8.546875 4.703125 -7.703125 C 4.128906 -6.867188 3.628906 -5.992188 3.203125 -5.078125 L 3 -5.46875 C 2.707031 -5.101562 2.378906 -4.960938 2.015625 -5.046875 C 1.660156 -5.128906 1.328125 -5.328125 1.015625 -5.640625 C 0.703125 -5.953125 0.460938 -6.238281 0.296875 -6.5 C 0.0664062 -6.894531 -0.03125 -7.265625 0 -7.609375 C 0.03125 -7.953125 0.0625 -8.335938 0.09375 -8.765625 C 0.164062 -9.160156 0.203125 -9.554688 0.203125 -9.953125 C 0.203125 -10.347656 0.265625 -10.757812 0.390625 -11.1875 C 0.554688 -11.707031 0.726562 -12.210938 0.90625 -12.703125 C 1.09375 -13.203125 1.285156 -13.71875 1.484375 -14.25 C 1.640625 -14.769531 1.804688 -15.285156 1.984375 -15.796875 C 2.171875 -16.304688 2.363281 -16.820312 2.5625 -17.34375 C 2.695312 -17.675781 2.859375 -18.03125 3.046875 -18.40625 C 3.242188 -18.78125 3.378906 -19.132812 3.453125 -19.46875 C 3.515625 -19.726562 3.550781 -19.957031 3.5625 -20.15625 C 3.582031 -20.351562 3.757812 -20.550781 4.09375 -20.75 C 4.382812 -20.914062 4.6875 -21.003906 5 -21.015625 C 5.3125 -21.035156 5.632812 -21.007812 5.96875 -20.9375 C 6.226562 -20.90625 6.519531 -20.789062 6.84375 -20.59375 C 7.175781 -20.394531 7.414062 -20.140625 7.5625 -19.828125 C 7.707031 -19.523438 7.632812 -19.160156 7.34375 -18.734375 C 7.175781 -18.492188 6.960938 -18.257812 6.703125 -18.03125 C 6.441406 -17.800781 6.210938 -17.554688 6.015625 -17.296875 C 5.785156 -17.035156 5.648438 -16.8125 5.609375 -16.625 C 5.578125 -16.445312 5.515625 -16.195312 5.421875 -15.875 C 5.390625 -15.675781 5.289062 -15.484375 5.125 -15.296875 C 4.957031 -15.117188 4.828125 -14.929688 4.734375 -14.734375 C 4.597656 -14.472656 4.472656 -14.175781 4.359375 -13.84375 C 4.242188 -13.519531 4.140625 -13.191406 4.046875 -12.859375 C 4.003906 -12.660156 3.984375 -12.476562 3.984375 -12.3125 C 3.984375 -12.15625 3.96875 -11.976562 3.9375 -11.78125 C 3.90625 -11.25 3.820312 -10.726562 3.6875 -10.21875 C 3.5625 -9.71875 3.46875 -9.203125 3.40625 -8.671875 C 3.4375 -8.773438 3.507812 -8.890625 3.625 -9.015625 C 3.738281 -9.148438 3.8125 -9.203125 3.84375 -9.171875 C 3.875 -9.128906 3.796875 -8.96875 3.609375 -8.6875 C 3.429688 -8.414062 3.363281 -8.28125 3.40625 -8.28125 L 6.3125 -12.515625 C 5.976562 -12.085938 5.703125 -11.742188 5.484375 -11.484375 C 5.273438 -11.222656 5.171875 -11.09375 5.171875 -11.09375 C 5.140625 -11.125 5.3125 -11.394531 5.6875 -11.90625 C 6.070312 -12.414062 6.554688 -13.054688 7.140625 -13.828125 C 7.734375 -14.597656 8.347656 -15.375 8.984375 -16.15625 C 9.628906 -16.945312 10.191406 -17.640625 10.671875 -18.234375 C 11.148438 -18.828125 11.453125 -19.1875 11.578125 -19.3125 C 12.304688 -19.96875 13.0625 -20.25 13.84375 -20.15625 C 14.632812 -20.0625 15.195312 -19.4375 15.53125 -18.28125 C 15.789062 -17.457031 15.75 -16.71875 15.40625 -16.0625 C 15.0625 -15.40625 14.597656 -14.78125 14.015625 -14.1875 C 13.441406 -13.601562 12.957031 -13.015625 12.5625 -12.421875 C 12.238281 -11.921875 11.941406 -11.390625 11.671875 -10.828125 C 11.410156 -10.273438 11.148438 -9.738281 10.890625 -9.21875 C 10.722656 -8.882812 10.5 -8.414062 10.21875 -7.8125 C 9.945312 -7.207031 9.773438 -6.625 9.703125 -6.0625 C 9.773438 -6.425781 9.90625 -6.8125 10.09375 -7.21875 C 10.289062 -7.625 10.441406 -7.945312 10.546875 -8.1875 C 10.941406 -9.195312 11.515625 -10.066406 12.265625 -10.796875 C 12.109375 -10.460938 11.9375 -10.144531 11.75 -9.84375 C 11.570312 -9.550781 11.398438 -9.257812 11.234375 -8.96875 L 11.484375 -9.265625 C 11.515625 -9.265625 11.488281 -9.125 11.40625 -8.84375 C 11.320312 -8.5625 11.238281 -8.273438 11.15625 -7.984375 C 11.070312 -7.691406 11.015625 -7.523438 10.984375 -7.484375 C 10.890625 -7.191406 10.800781 -6.890625 10.71875 -6.578125 C 10.632812 -6.265625 10.578125 -5.945312 10.546875 -5.625 C 10.515625 -5.582031 10.503906 -5.429688 10.515625 -5.171875 C 10.535156 -4.910156 10.546875 -4.78125 10.546875 -4.78125 L 10.59375 -4.734375 C 10.59375 -4.765625 10.65625 -4.785156 10.78125 -4.796875 C 10.914062 -4.816406 11 -4.84375 11.03125 -4.875 C 11.394531 -5.007812 11.757812 -5.222656 12.125 -5.515625 C 12.488281 -5.816406 12.816406 -6.082031 13.109375 -6.3125 C 13.703125 -6.769531 14.285156 -7.253906 14.859375 -7.765625 C 15.429688 -8.273438 16 -8.773438 16.5625 -9.265625 C 16.988281 -9.660156 17.445312 -10.050781 17.9375 -10.4375 C 18.425781 -10.832031 18.835938 -11.242188 19.171875 -11.671875 C 19.335938 -11.910156 19.550781 -12.125 19.8125 -12.3125 C 20.070312 -12.507812 20.269531 -12.316406 20.40625 -11.734375 Z M 20.40625 -11.734375 "/></g></g></g><g fill="#ffffff" fill-opacity="1"><g transform="translate(120.600981, 175.383646)"><g><path d="M 17.84375 -9.109375 C 17.414062 -8.585938 16.992188 -8.054688 16.578125 -7.515625 C 16.171875 -6.972656 15.785156 -6.421875 15.421875 -5.859375 C 14.503906 -4.546875 13.46875 -3.265625 12.3125 -2.015625 C 11.164062 -0.765625 9.96875 0.378906 8.71875 1.421875 C 8 2.015625 7.1875 2.539062 6.28125 3 C 5.375 3.46875 4.429688 3.632812 3.453125 3.5 C 3.148438 3.4375 2.859375 3.351562 2.578125 3.25 C 2.304688 3.15625 2.070312 2.992188 1.875 2.765625 C 1.769531 2.660156 1.585938 2.421875 1.328125 2.046875 C 1.066406 1.671875 0.84375 1.300781 0.65625 0.9375 C 0.476562 0.570312 0.425781 0.34375 0.5 0.25 C 0.5 0.25 0.53125 0.328125 0.59375 0.484375 C 0.65625 0.648438 0.703125 0.75 0.734375 0.78125 L 0.5 -0.046875 C 0.5 0.078125 0.429688 -0.0195312 0.296875 -0.34375 C 0.160156 -0.675781 0.09375 -0.890625 0.09375 -0.984375 C 0.0625 -1.316406 0.0351562 -1.644531 0.015625 -1.96875 C 0.00390625 -2.300781 0 -2.628906 0 -2.953125 C 0.03125 -3.578125 0.078125 -4.1875 0.140625 -4.78125 C 0.210938 -5.375 0.265625 -5.960938 0.296875 -6.546875 C 0.328125 -7.109375 0.398438 -7.644531 0.515625 -8.15625 C 0.628906 -8.664062 0.769531 -9.179688 0.9375 -9.703125 C 0.96875 -9.804688 1.054688 -10.09375 1.203125 -10.5625 C 1.347656 -11.039062 1.519531 -11.507812 1.71875 -11.96875 C 1.914062 -12.4375 2.066406 -12.648438 2.171875 -12.609375 C 2.203125 -12.609375 2.191406 -12.535156 2.140625 -12.390625 C 2.085938 -12.242188 2.082031 -12.171875 2.125 -12.171875 C 2.21875 -12.429688 2.304688 -12.691406 2.390625 -12.953125 C 2.472656 -13.222656 2.578125 -13.488281 2.703125 -13.75 L 2.515625 -13.5 C 2.515625 -13.5 2.59375 -13.6875 2.75 -14.0625 C 2.914062 -14.445312 3.125 -14.882812 3.375 -15.375 C 3.625 -15.863281 3.851562 -16.3125 4.0625 -16.71875 C 4.28125 -17.132812 4.40625 -17.394531 4.4375 -17.5 C 4.832031 -18.15625 5.265625 -18.757812 5.734375 -19.3125 C 6.210938 -19.875 6.765625 -20.367188 7.390625 -20.796875 C 7.816406 -21.128906 8.273438 -21.382812 8.765625 -21.5625 C 9.265625 -21.738281 9.773438 -21.796875 10.296875 -21.734375 C 10.953125 -21.628906 11.4375 -21.421875 11.75 -21.109375 C 12.0625 -20.804688 12.332031 -20.390625 12.5625 -19.859375 C 12.789062 -19.367188 12.976562 -18.910156 13.125 -18.484375 C 13.28125 -18.054688 13.320312 -17.515625 13.25 -16.859375 C 13.21875 -16.492188 13.171875 -16.082031 13.109375 -15.625 C 13.046875 -15.164062 12.929688 -14.753906 12.765625 -14.390625 C 12.597656 -14.054688 12.207031 -13.722656 11.59375 -13.390625 C 10.988281 -13.066406 10.492188 -13.039062 10.109375 -13.3125 C 9.773438 -13.539062 9.671875 -13.734375 9.796875 -13.890625 C 9.929688 -14.054688 10.066406 -14.238281 10.203125 -14.4375 L 9.953125 -14.25 C 9.953125 -14.25 10.007812 -14.460938 10.125 -14.890625 C 10.238281 -15.316406 10.359375 -15.734375 10.484375 -16.140625 C 10.617188 -16.546875 10.707031 -16.75 10.75 -16.75 C 10.78125 -16.75 10.757812 -16.566406 10.6875 -16.203125 C 10.625 -15.847656 10.59375 -15.65625 10.59375 -15.625 C 10.65625 -15.789062 10.71875 -16.125 10.78125 -16.625 C 10.851562 -17.132812 10.890625 -17.660156 10.890625 -18.203125 C 10.890625 -18.742188 10.804688 -19.144531 10.640625 -19.40625 C 10.472656 -19.675781 10.175781 -19.644531 9.75 -19.3125 C 9.425781 -19.082031 9.15625 -18.742188 8.9375 -18.296875 C 8.726562 -17.859375 8.539062 -17.476562 8.375 -17.15625 C 8.082031 -16.53125 7.8125 -15.910156 7.5625 -15.296875 C 7.3125 -14.691406 7.070312 -14.078125 6.84375 -13.453125 C 7.144531 -14.242188 7.472656 -15.023438 7.828125 -15.796875 C 8.191406 -16.566406 8.585938 -17.3125 9.015625 -18.03125 C 9.179688 -18.300781 9.351562 -18.570312 9.53125 -18.84375 C 9.71875 -19.125 9.941406 -19.332031 10.203125 -19.46875 C 10.234375 -19.5 10.3125 -19.488281 10.4375 -19.4375 C 10.570312 -19.394531 10.609375 -19.351562 10.546875 -19.3125 C 10.515625 -19.28125 10.460938 -19.296875 10.390625 -19.359375 C 10.328125 -19.429688 10.265625 -19.4375 10.203125 -19.375 C 9.640625 -18.84375 9.175781 -18.234375 8.8125 -17.546875 C 8.457031 -16.859375 8.113281 -16.148438 7.78125 -15.421875 C 7.125 -13.878906 6.53125 -12.296875 6 -10.671875 C 5.476562 -9.046875 5.085938 -7.410156 4.828125 -5.765625 C 4.691406 -4.972656 4.59375 -4.140625 4.53125 -3.265625 C 4.46875 -2.398438 4.519531 -1.59375 4.6875 -0.84375 C 4.75 -0.675781 4.8125 -0.484375 4.875 -0.265625 C 4.945312 -0.0546875 5.0625 0.0976562 5.21875 0.203125 C 5.644531 0.492188 6.144531 0.457031 6.71875 0.09375 C 7.300781 -0.257812 7.753906 -0.550781 8.078125 -0.78125 C 8.609375 -1.175781 9.132812 -1.578125 9.65625 -1.984375 C 10.1875 -2.398438 10.664062 -2.820312 11.09375 -3.25 C 10.894531 -3.125 10.742188 -3.039062 10.640625 -3 C 10.609375 -3 10.664062 -3.097656 10.8125 -3.296875 C 10.957031 -3.492188 11.113281 -3.695312 11.28125 -3.90625 C 11.445312 -4.125 11.546875 -4.25 11.578125 -4.28125 C 11.835938 -4.550781 12.070312 -4.816406 12.28125 -5.078125 C 12.5 -5.335938 12.726562 -5.597656 12.96875 -5.859375 C 13.351562 -6.359375 13.75 -6.851562 14.15625 -7.34375 C 14.570312 -7.832031 14.976562 -8.34375 15.375 -8.875 C 15.476562 -9 15.691406 -9.289062 16.015625 -9.75 C 16.347656 -10.21875 16.71875 -10.703125 17.125 -11.203125 C 17.53125 -11.710938 17.9375 -12.113281 18.34375 -12.40625 C 18.757812 -12.707031 19.082031 -12.726562 19.3125 -12.46875 C 19.582031 -12.207031 19.609375 -11.84375 19.390625 -11.375 C 19.179688 -10.914062 18.910156 -10.484375 18.578125 -10.078125 C 18.253906 -9.671875 18.007812 -9.347656 17.84375 -9.109375 Z M 3.40625 -12.71875 C 3.40625 -12.75 3.410156 -12.785156 3.421875 -12.828125 C 3.441406 -12.878906 3.453125 -12.925781 3.453125 -12.96875 C 3.253906 -12.5 3.03125 -12.050781 2.78125 -11.625 C 2.539062 -11.195312 2.382812 -10.769531 2.3125 -10.34375 C 2.34375 -10.476562 2.441406 -10.617188 2.609375 -10.765625 C 2.773438 -10.910156 2.890625 -11.066406 2.953125 -11.234375 C 3.054688 -11.460938 3.144531 -11.707031 3.21875 -11.96875 C 3.300781 -12.238281 3.363281 -12.488281 3.40625 -12.71875 Z M 1.578125 -6.953125 C 1.640625 -7.015625 1.644531 -7.078125 1.59375 -7.140625 C 1.550781 -7.210938 1.53125 -7.25 1.53125 -7.25 C 1.425781 -6.945312 1.363281 -6.640625 1.34375 -6.328125 C 1.332031 -6.015625 1.34375 -5.710938 1.375 -5.421875 C 1.375 -5.679688 1.378906 -5.957031 1.390625 -6.25 C 1.410156 -6.550781 1.472656 -6.785156 1.578125 -6.953125 Z M 5.125 -8.125 L 5.8125 -10.5 C 5.6875 -10.101562 5.5625 -9.707031 5.4375 -9.3125 C 5.320312 -8.914062 5.21875 -8.519531 5.125 -8.125 Z M 1.671875 -7.890625 L 1.78125 -8.03125 C 1.644531 -8 1.566406 -7.925781 1.546875 -7.8125 C 1.535156 -7.695312 1.53125 -7.570312 1.53125 -7.4375 C 1.53125 -7.507812 1.546875 -7.582031 1.578125 -7.65625 C 1.609375 -7.738281 1.640625 -7.816406 1.671875 -7.890625 Z M 6.015625 -11.09375 L 6.015625 -11.28125 C 5.984375 -11.21875 5.96875 -11.117188 5.96875 -10.984375 C 5.96875 -11.015625 5.984375 -11.050781 6.015625 -11.09375 Z M 6.015625 -11.09375 "/></g></g></g><g fill="#ffffff" fill-opacity="1"><g transform="translate(136.469035, 175.383646)"><g><path d="M 22.671875 -12.265625 C 23.035156 -11.804688 23.019531 -11.425781 22.625 -11.125 C 22.226562 -10.832031 21.675781 -10.601562 20.96875 -10.4375 C 20.257812 -10.28125 19.582031 -10.164062 18.9375 -10.09375 C 18.300781 -10.03125 17.921875 -9.984375 17.796875 -9.953125 C 17.753906 -9.953125 17.617188 -9.914062 17.390625 -9.84375 C 17.160156 -9.78125 17.0625 -9.769531 17.09375 -9.8125 C 16.863281 -9.707031 16.722656 -9.640625 16.671875 -9.609375 C 16.628906 -9.578125 16.523438 -9.445312 16.359375 -9.21875 C 16.160156 -8.914062 15.972656 -8.609375 15.796875 -8.296875 C 15.617188 -7.984375 15.445312 -7.679688 15.28125 -7.390625 C 15.207031 -7.328125 15.003906 -7.0625 14.671875 -6.59375 C 14.347656 -6.132812 14.015625 -5.703125 13.671875 -5.296875 C 13.328125 -4.890625 13.09375 -4.703125 12.96875 -4.734375 C 12.96875 -4.734375 13.03125 -4.8125 13.15625 -4.96875 C 13.289062 -5.132812 13.34375 -5.234375 13.3125 -5.265625 L 11.875 -3.59375 C 12.039062 -3.757812 12.125 -3.8125 12.125 -3.75 C 11.988281 -3.320312 11.597656 -2.882812 10.953125 -2.4375 C 10.316406 -2 9.820312 -1.644531 9.46875 -1.375 C 9.070312 -1.082031 8.632812 -0.8125 8.15625 -0.5625 C 7.675781 -0.320312 7.175781 -0.164062 6.65625 -0.09375 C 5.632812 0 4.628906 -0.179688 3.640625 -0.640625 C 2.691406 -1.128906 1.890625 -1.84375 1.234375 -2.78125 C 0.578125 -3.71875 0.171875 -4.742188 0.015625 -5.859375 C -0.128906 -6.984375 0.0625 -8.035156 0.59375 -9.015625 C 1.019531 -9.804688 1.410156 -10.628906 1.765625 -11.484375 C 2.128906 -12.335938 2.609375 -13.160156 3.203125 -13.953125 C 3.566406 -14.378906 3.9375 -14.785156 4.3125 -15.171875 C 4.6875 -15.566406 5.101562 -15.914062 5.5625 -16.21875 C 5.957031 -16.507812 6.40625 -16.753906 6.90625 -16.953125 C 7.0625 -17.046875 7.285156 -17.117188 7.578125 -17.171875 C 7.878906 -17.222656 8.097656 -17.296875 8.234375 -17.390625 C 8.390625 -17.492188 8.535156 -17.78125 8.671875 -18.25 C 8.804688 -18.726562 8.921875 -19.066406 9.015625 -19.265625 C 9.210938 -19.628906 9.441406 -20.007812 9.703125 -20.40625 C 10.066406 -20.894531 10.453125 -21.367188 10.859375 -21.828125 C 11.273438 -22.285156 11.742188 -22.664062 12.265625 -22.96875 C 13.117188 -23.425781 13.941406 -23.488281 14.734375 -23.15625 C 15.523438 -22.832031 16.234375 -22.359375 16.859375 -21.734375 C 16.859375 -21.734375 16.992188 -21.632812 17.265625 -21.4375 C 17.546875 -21.238281 17.671875 -21.054688 17.640625 -20.890625 L 17.453125 -21.09375 L 17.640625 -20.703125 L 17.6875 -20.65625 C 17.625 -20.84375 17.679688 -20.828125 17.859375 -20.609375 C 18.046875 -20.398438 18.140625 -20.296875 18.140625 -20.296875 C 18.367188 -19.972656 18.53125 -19.546875 18.625 -19.015625 C 18.695312 -18.691406 18.734375 -18.347656 18.734375 -17.984375 C 18.734375 -17.628906 18.695312 -17.269531 18.625 -16.90625 C 18.53125 -15.988281 18.359375 -15.066406 18.109375 -14.140625 C 17.859375 -13.222656 17.601562 -12.320312 17.34375 -11.4375 C 18.101562 -11.5625 18.84375 -11.707031 19.5625 -11.875 C 20.289062 -12.039062 21.015625 -12.191406 21.734375 -12.328125 C 21.898438 -12.390625 22.0625 -12.441406 22.21875 -12.484375 C 22.382812 -12.535156 22.535156 -12.484375 22.671875 -12.328125 C 22.703125 -12.285156 22.707031 -12.265625 22.6875 -12.265625 C 22.675781 -12.265625 22.671875 -12.265625 22.671875 -12.265625 Z M 5.625 -2.3125 C 6.769531 -2.539062 7.828125 -3.066406 8.796875 -3.890625 C 9.765625 -4.710938 10.609375 -5.664062 11.328125 -6.75 C 12.054688 -7.832031 12.664062 -8.851562 13.15625 -9.8125 C 12.4375 -9.90625 11.695312 -10.082031 10.9375 -10.34375 C 10.1875 -10.613281 9.519531 -11 8.9375 -11.5 C 8.363281 -12.007812 7.976562 -12.675781 7.78125 -13.5 C 7.382812 -13.070312 6.796875 -12.054688 6.015625 -10.453125 L 6.3125 -10.890625 C 6.28125 -10.796875 6.113281 -10.425781 5.8125 -9.78125 C 5.519531 -9.144531 5.191406 -8.378906 4.828125 -7.484375 C 4.460938 -6.597656 4.191406 -5.742188 4.015625 -4.921875 C 3.835938 -4.109375 3.847656 -3.4375 4.046875 -2.90625 C 4.242188 -2.382812 4.75 -2.1875 5.5625 -2.3125 Z M 15.328125 -15.96875 C 15.421875 -16.394531 15.523438 -16.910156 15.640625 -17.515625 C 15.753906 -18.128906 15.828125 -18.738281 15.859375 -19.34375 C 15.898438 -19.945312 15.789062 -20.460938 15.53125 -20.890625 C 15.195312 -21.421875 14.800781 -21.585938 14.34375 -21.390625 C 13.882812 -21.191406 13.441406 -20.863281 13.015625 -20.40625 C 12.585938 -19.945312 12.238281 -19.550781 11.96875 -19.21875 C 11.9375 -19.21875 11.921875 -19.207031 11.921875 -19.1875 C 11.921875 -19.175781 11.921875 -19.171875 11.921875 -19.171875 L 11.875 -19.078125 L 11.875 -19.125 C 11.84375 -19.019531 11.828125 -18.96875 11.828125 -18.96875 C 11.691406 -18.8125 11.554688 -18.640625 11.421875 -18.453125 C 11.296875 -18.273438 11.148438 -18.054688 10.984375 -17.796875 C 11.015625 -17.828125 11.117188 -17.976562 11.296875 -18.25 C 11.484375 -18.53125 11.59375 -18.640625 11.625 -18.578125 C 11.695312 -18.484375 11.65625 -18.28125 11.5 -17.96875 C 11.351562 -17.65625 11.195312 -17.34375 11.03125 -17.03125 C 10.875 -16.71875 10.757812 -16.507812 10.6875 -16.40625 C 10.5625 -16.007812 10.441406 -15.613281 10.328125 -15.21875 C 10.210938 -14.832031 10.117188 -14.425781 10.046875 -14 C 10.015625 -13.570312 10.003906 -13.144531 10.015625 -12.71875 C 10.035156 -12.289062 10.210938 -11.925781 10.546875 -11.625 C 10.742188 -11.46875 10.988281 -11.351562 11.28125 -11.28125 C 11.582031 -11.21875 11.863281 -11.171875 12.125 -11.140625 C 12.289062 -11.109375 12.503906 -11.082031 12.765625 -11.0625 C 13.023438 -11.039062 13.222656 -11.050781 13.359375 -11.09375 C 13.617188 -11.15625 13.75 -11.1875 13.75 -11.1875 C 13.75 -11.1875 13.816406 -11.300781 13.953125 -11.53125 C 14.304688 -12.15625 14.582031 -12.878906 14.78125 -13.703125 C 14.976562 -14.523438 15.160156 -15.28125 15.328125 -15.96875 Z M 11.921875 -19.171875 C 11.921875 -19.171875 11.925781 -19.171875 11.9375 -19.171875 C 11.957031 -19.171875 11.96875 -19.1875 11.96875 -19.21875 Z M 11.921875 -19.171875 "/></g></g></g><g fill="#ffffff" fill-opacity="1"><g transform="translate(155.737391, 175.383646)"><g><path d="M 19.5625 -11.578125 L 19.5625 -11.53125 C 19.625 -11.007812 19.453125 -10.515625 19.046875 -10.046875 C 18.640625 -9.585938 18.164062 -9.1875 17.625 -8.84375 C 17.082031 -8.5 16.628906 -8.195312 16.265625 -7.9375 C 15.535156 -7.40625 14.8125 -6.898438 14.09375 -6.421875 C 13.375 -5.953125 12.617188 -5.503906 11.828125 -5.078125 C 11.628906 -4.972656 11.398438 -4.867188 11.140625 -4.765625 C 10.878906 -4.671875 10.648438 -4.546875 10.453125 -4.390625 C 10.179688 -4.160156 10.046875 -4.003906 10.046875 -3.921875 C 10.046875 -3.835938 10.066406 -3.597656 10.109375 -3.203125 C 10.171875 -2.773438 10.222656 -2.332031 10.265625 -1.875 C 10.316406 -1.414062 10.34375 -0.957031 10.34375 -0.5 C 10.375 0.195312 10.347656 0.890625 10.265625 1.578125 C 10.191406 2.265625 10.019531 2.9375 9.75 3.59375 C 9.164062 5.101562 8.289062 6.3125 7.125 7.21875 C 5.957031 8.125 4.519531 8.5625 2.8125 8.53125 C 1.789062 8.488281 0.820312 8.296875 -0.09375 7.953125 C -1.019531 7.609375 -1.742188 7.070312 -2.265625 6.34375 C -2.796875 5.625 -2.960938 4.722656 -2.765625 3.640625 C -2.796875 3.679688 -2.832031 3.847656 -2.875 4.140625 C -2.925781 4.429688 -2.96875 4.5625 -3 4.53125 C -3.164062 4.4375 -3.195312 4.191406 -3.09375 3.796875 C -3 3.398438 -2.9375 3.132812 -2.90625 3 C -2.613281 2.082031 -2.113281 1.257812 -1.40625 0.53125 C -0.695312 -0.1875 0.015625 -0.820312 0.734375 -1.375 C 1.160156 -1.707031 1.578125 -2.03125 1.984375 -2.34375 C 2.398438 -2.65625 2.820312 -2.941406 3.25 -3.203125 C 3.582031 -3.398438 4.023438 -3.644531 4.578125 -3.9375 C 5.140625 -4.238281 5.4375 -4.550781 5.46875 -4.875 C 5.53125 -5.238281 5.453125 -5.722656 5.234375 -6.328125 C 5.023438 -6.941406 4.875 -7.425781 4.78125 -7.78125 C 4.675781 -8.238281 4.554688 -8.710938 4.421875 -9.203125 C 4.296875 -9.703125 4.203125 -10.195312 4.140625 -10.6875 C 4.109375 -11.019531 4.113281 -11.300781 4.15625 -11.53125 C 4.207031 -11.757812 4.203125 -12.023438 4.140625 -12.328125 C 4.003906 -12.710938 3.882812 -13.09375 3.78125 -13.46875 C 3.6875 -13.851562 3.625 -14.257812 3.59375 -14.6875 C 3.5625 -15.113281 3.5625 -15.53125 3.59375 -15.9375 C 3.625 -16.351562 3.707031 -16.757812 3.84375 -17.15625 C 3.9375 -17.445312 4.148438 -17.804688 4.484375 -18.234375 C 4.816406 -18.660156 5.203125 -19.046875 5.640625 -19.390625 C 6.085938 -19.734375 6.539062 -19.960938 7 -20.078125 C 7.457031 -20.191406 7.851562 -20.101562 8.1875 -19.8125 C 8.1875 -19.945312 8.289062 -19.859375 8.5 -19.546875 C 8.71875 -19.234375 8.84375 -18.992188 8.875 -18.828125 C 8.875 -18.765625 8.851562 -18.566406 8.8125 -18.234375 C 8.78125 -17.898438 8.722656 -17.585938 8.640625 -17.296875 C 8.566406 -17.003906 8.476562 -16.859375 8.375 -16.859375 C 8.375 -16.859375 8.390625 -16.945312 8.421875 -17.125 C 8.453125 -17.300781 8.488281 -17.472656 8.53125 -17.640625 C 8.394531 -17.316406 8.253906 -16.976562 8.109375 -16.625 C 7.960938 -16.28125 7.867188 -15.929688 7.828125 -15.578125 C 7.796875 -15.242188 7.804688 -14.90625 7.859375 -14.5625 C 7.910156 -14.21875 7.953125 -13.898438 7.984375 -13.609375 C 7.984375 -13.734375 8.015625 -13.8125 8.078125 -13.84375 C 8.078125 -13.84375 8.117188 -13.601562 8.203125 -13.125 C 8.285156 -12.65625 8.410156 -12.054688 8.578125 -11.328125 C 8.742188 -10.609375 8.890625 -9.90625 9.015625 -9.21875 C 8.847656 -9.875 8.664062 -10.5625 8.46875 -11.28125 C 8.28125 -12.007812 8.132812 -12.601562 8.03125 -13.0625 C 8.226562 -11.976562 8.445312 -10.898438 8.6875 -9.828125 C 8.9375 -8.765625 9.175781 -7.707031 9.40625 -6.65625 C 9.476562 -6.71875 9.5 -6.847656 9.46875 -7.046875 C 9.53125 -6.847656 9.5625 -6.75 9.5625 -6.75 C 10.644531 -7.3125 11.695312 -7.863281 12.71875 -8.40625 C 13.738281 -8.945312 14.753906 -9.53125 15.765625 -10.15625 C 16.222656 -10.445312 16.679688 -10.796875 17.140625 -11.203125 C 17.609375 -11.617188 18.070312 -11.941406 18.53125 -12.171875 C 19.09375 -12.398438 19.4375 -12.203125 19.5625 -11.578125 Z M -0.34375 5.375 C 0.0195312 5.5 0.390625 5.535156 0.765625 5.484375 C 1.140625 5.441406 1.492188 5.390625 1.828125 5.328125 L 3.203125 4.78125 C 3.234375 4.8125 3.175781 4.875 3.03125 4.96875 C 2.882812 5.070312 2.8125 5.140625 2.8125 5.171875 C 3.363281 4.847656 3.875 4.40625 4.34375 3.84375 L 4.09375 4.046875 C 4.21875 3.910156 4.382812 3.644531 4.59375 3.25 C 4.8125 2.851562 5.007812 2.472656 5.1875 2.109375 C 5.375 1.753906 5.46875 1.546875 5.46875 1.484375 C 5.632812 0.890625 5.734375 0.296875 5.765625 -0.296875 C 5.796875 -0.890625 5.796875 -1.476562 5.765625 -2.0625 C 5.734375 -2.03125 5.679688 -2 5.609375 -1.96875 C 5.546875 -1.9375 5.484375 -1.90625 5.421875 -1.875 L 5.765625 -2.171875 L 5.171875 -1.828125 C 5.335938 -1.890625 5.265625 -1.796875 4.953125 -1.546875 C 4.640625 -1.304688 4.453125 -1.148438 4.390625 -1.078125 L 2.90625 -0.09375 C 2.414062 0.226562 1.914062 0.585938 1.40625 0.984375 C 0.894531 1.378906 0.457031 1.820312 0.09375 2.3125 C -0.03125 2.507812 -0.21875 2.828125 -0.46875 3.265625 C -0.71875 3.710938 -0.863281 4.140625 -0.90625 4.546875 C -0.957031 4.960938 -0.769531 5.238281 -0.34375 5.375 Z M 5.859375 6.796875 C 6.515625 6.503906 7.03125 6.144531 7.40625 5.71875 C 7.789062 5.289062 8.113281 4.8125 8.375 4.28125 C 7.65625 5.300781 6.71875 6.097656 5.5625 6.671875 C 4.414062 7.253906 3.234375 7.578125 2.015625 7.640625 C 3.367188 7.578125 4.648438 7.296875 5.859375 6.796875 Z M 9.46875 -7.1875 C 9.425781 -7.351562 9.378906 -7.5625 9.328125 -7.8125 C 9.285156 -8.0625 9.234375 -8.316406 9.171875 -8.578125 C 9.296875 -8.078125 9.394531 -7.613281 9.46875 -7.1875 Z M 10.109375 -2.0625 C 10.109375 -2.101562 10.097656 -2.144531 10.078125 -2.1875 C 10.054688 -2.238281 10.046875 -2.28125 10.046875 -2.3125 C 10.046875 -2.1875 10.066406 -2.101562 10.109375 -2.0625 Z M 10.109375 -2.0625 "/></g></g></g></svg>