<svg xmlns="http://www.w3.org/2000/svg" xmlns:xlink="http://www.w3.org/1999/xlink" width="300" zoomAndPan="magnify" viewBox="0 0 224.87999 337.499995" height="450" preserveAspectRatio="xMidYMid meet" version="1.0"><defs><g/><clipPath id="7a8fc0eeb6"><path d="M 0.105469 0 L 224.652344 0 L 224.652344 337 L 0.105469 337 Z M 0.105469 0 " clip-rule="nonzero"/></clipPath></defs><g clip-path="url(#7a8fc0eeb6)"><path fill="#ffffff" d="M 0.105469 0 L 224.773438 0 L 224.773438 337 L 0.105469 337 Z M 0.105469 0 " fill-opacity="1" fill-rule="nonzero"/><path fill="#000000" d="M 0.105469 0 L 224.773438 0 L 224.773438 337 L 0.105469 337 Z M 0.105469 0 " fill-opacity="1" fill-rule="nonzero"/></g><g fill="#ffffff" fill-opacity="1"><g transform="translate(39.628871, 175.383646)"><g><path d="M 4.625 -3.9375 C 4.625 -3.90625 4.613281 -3.890625 4.59375 -3.890625 C 4.582031 -3.890625 4.578125 -3.875 4.578125 -3.84375 L 4.578125 -3.796875 C 4.453125 -3.035156 4.367188 -2.300781 4.328125 -1.59375 C 4.296875 -0.894531 4.300781 -0.164062 4.34375 0.59375 L 4.484375 0.890625 C 4.546875 1.085938 4.578125 1.300781 4.578125 1.53125 C 4.742188 1.59375 4.882812 1.78125 5 2.09375 C 5.113281 2.40625 5.238281 2.628906 5.375 2.765625 C 5.601562 2.992188 5.847656 3.144531 6.109375 3.21875 C 6.367188 3.300781 6.648438 3.363281 6.953125 3.40625 C 7.410156 3.40625 7.835938 3.351562 8.234375 3.25 C 9.742188 2.882812 11.113281 2.203125 12.34375 1.203125 C 13.570312 0.203125 14.679688 -0.835938 15.671875 -1.921875 C 17.609375 -4.023438 19.316406 -6.273438 20.796875 -8.671875 C 20.890625 -8.835938 21.035156 -9.125 21.234375 -9.53125 C 21.429688 -9.945312 21.664062 -10.140625 21.9375 -10.109375 C 22.125 -10.109375 22.234375 -9.953125 22.265625 -9.640625 C 22.304688 -9.328125 22.316406 -9.003906 22.296875 -8.671875 C 22.285156 -8.347656 22.257812 -8.117188 22.21875 -7.984375 C 21.894531 -5.484375 20.984375 -3.148438 19.484375 -0.984375 C 17.992188 1.179688 16.3125 3.050781 14.4375 4.625 C 13.8125 5.15625 13.085938 5.695312 12.265625 6.25 C 11.441406 6.8125 10.601562 7.125 9.75 7.1875 C 9.03125 7.226562 8.289062 7.082031 7.53125 6.75 C 6.78125 6.425781 6.109375 6.082031 5.515625 5.71875 C 4.398438 5.0625 3.363281 4.222656 2.40625 3.203125 C 1.457031 2.179688 0.769531 1.046875 0.34375 -0.203125 C 0.0195312 -1.117188 -0.09375 -2.0625 0 -3.03125 C 0.09375 -4 0.207031 -4.941406 0.34375 -5.859375 C 0.375 -5.929688 0.375 -6.128906 0.34375 -6.453125 C 0.3125 -6.785156 0.34375 -7.015625 0.4375 -7.140625 C 0.40625 -7.109375 0.390625 -6.941406 0.390625 -6.640625 C 0.390625 -6.347656 0.390625 -6.203125 0.390625 -6.203125 C 0.421875 -6.367188 0.445312 -6.554688 0.46875 -6.765625 C 0.488281 -6.984375 0.515625 -7.175781 0.546875 -7.34375 C 0.515625 -7.3125 0.503906 -7.414062 0.515625 -7.65625 C 0.535156 -7.90625 0.546875 -8.046875 0.546875 -8.078125 C 0.578125 -8.304688 0.613281 -8.519531 0.65625 -8.71875 C 0.707031 -8.914062 0.75 -9.128906 0.78125 -9.359375 C 0.882812 -9.816406 1.007812 -10.273438 1.15625 -10.734375 C 1.300781 -11.203125 1.441406 -11.664062 1.578125 -12.125 C 1.867188 -13.070312 2.195312 -14.003906 2.5625 -14.921875 C 2.925781 -15.847656 3.253906 -16.785156 3.546875 -17.734375 C 3.804688 -18.585938 4.132812 -19.425781 4.53125 -20.25 C 4.925781 -21.070312 5.335938 -21.894531 5.765625 -22.71875 C 5.828125 -22.8125 5.984375 -23.097656 6.234375 -23.578125 C 6.484375 -24.054688 6.753906 -24.566406 7.046875 -25.109375 C 7.335938 -25.648438 7.625 -26.125 7.90625 -26.53125 C 8.1875 -26.945312 8.375 -27.140625 8.46875 -27.109375 C 8.46875 -27.109375 8.410156 -26.992188 8.296875 -26.765625 C 8.179688 -26.535156 8.144531 -26.398438 8.1875 -26.359375 C 8.445312 -26.785156 8.695312 -27.210938 8.9375 -27.640625 C 9.1875 -28.066406 9.441406 -28.492188 9.703125 -28.921875 C 9.609375 -28.828125 9.507812 -28.722656 9.40625 -28.609375 C 9.3125 -28.492188 9.265625 -28.4375 9.265625 -28.4375 C 9.359375 -28.757812 9.5625 -29.109375 9.875 -29.484375 C 10.1875 -29.867188 10.441406 -30.191406 10.640625 -30.453125 C 10.804688 -30.753906 10.988281 -31.039062 11.1875 -31.3125 C 11.382812 -31.59375 11.582031 -31.882812 11.78125 -32.1875 C 12.695312 -33.53125 13.664062 -34.773438 14.6875 -35.921875 C 15.175781 -36.421875 15.71875 -36.957031 16.3125 -37.53125 C 16.90625 -38.101562 17.550781 -38.59375 18.25 -39 C 18.957031 -39.414062 19.675781 -39.640625 20.40625 -39.671875 C 21.75 -39.765625 22.890625 -39.425781 23.828125 -38.65625 C 24.765625 -37.882812 25.488281 -36.914062 26 -35.75 C 26.507812 -34.582031 26.765625 -33.441406 26.765625 -32.328125 L 26.765625 -32.28125 C 26.765625 -31.394531 26.640625 -30.484375 26.390625 -29.546875 C 26.140625 -28.609375 25.722656 -27.8125 25.140625 -27.15625 C 24.609375 -26.53125 23.863281 -25.921875 22.90625 -25.328125 C 21.957031 -24.734375 21.054688 -24.390625 20.203125 -24.296875 C 20.003906 -24.265625 19.78125 -24.25 19.53125 -24.25 C 19.289062 -24.25 19.1875 -24.394531 19.21875 -24.6875 C 19.21875 -24.75 19.332031 -24.863281 19.5625 -25.03125 L 19.515625 -25.03125 C 19.578125 -25.0625 19.710938 -25.265625 19.921875 -25.640625 C 20.140625 -26.023438 20.375 -26.453125 20.625 -26.921875 C 20.875 -27.398438 21.09375 -27.820312 21.28125 -28.1875 C 21.476562 -28.550781 21.628906 -28.734375 21.734375 -28.734375 C 21.734375 -28.734375 21.625 -28.492188 21.40625 -28.015625 C 21.195312 -27.535156 21.0625 -27.21875 21 -27.0625 C 21.425781 -27.84375 21.828125 -28.632812 22.203125 -29.4375 C 22.578125 -30.25 22.929688 -31.066406 23.265625 -31.890625 C 23.421875 -32.378906 23.613281 -32.992188 23.84375 -33.734375 C 24.082031 -34.472656 24.085938 -35.101562 23.859375 -35.625 C 23.660156 -36.050781 23.363281 -36.265625 22.96875 -36.265625 C 22.570312 -36.265625 22.160156 -36.175781 21.734375 -36 C 21.304688 -35.820312 20.960938 -35.648438 20.703125 -35.484375 L 20.015625 -35.09375 L 20.25 -35.1875 C 20.019531 -35.050781 19.820312 -34.90625 19.65625 -34.75 C 19.957031 -34.976562 20.238281 -35.140625 20.5 -35.234375 C 20.832031 -35.460938 21.304688 -35.722656 21.921875 -36.015625 C 22.546875 -36.316406 23.054688 -36.320312 23.453125 -36.03125 C 23.753906 -35.800781 23.894531 -35.507812 23.875 -35.15625 C 23.863281 -34.8125 23.789062 -34.460938 23.65625 -34.109375 C 23.75 -34.566406 23.769531 -34.988281 23.71875 -35.375 C 23.675781 -35.769531 23.425781 -36.003906 22.96875 -36.078125 C 22.539062 -36.140625 22.144531 -36.046875 21.78125 -35.796875 C 21.414062 -35.554688 21.054688 -35.382812 20.703125 -35.28125 C 19.578125 -34.5625 18.5625 -33.640625 17.65625 -32.515625 C 16.757812 -31.398438 15.929688 -30.285156 15.171875 -29.171875 C 14.359375 -27.953125 13.582031 -26.703125 12.84375 -25.421875 C 12.101562 -24.140625 11.40625 -22.828125 10.75 -21.484375 C 10.050781 -20.078125 9.429688 -18.648438 8.890625 -17.203125 C 8.347656 -15.753906 7.800781 -14.289062 7.25 -12.8125 C 6.71875 -11.394531 6.210938 -9.972656 5.734375 -8.546875 C 5.265625 -7.117188 4.894531 -5.679688 4.625 -4.234375 L 4.625 -3.984375 C 4.625 -3.953125 4.609375 -3.921875 4.578125 -3.890625 Z M 13.3125 -28.046875 C 13.695312 -28.703125 14.132812 -29.40625 14.625 -30.15625 C 15.125 -30.914062 15.65625 -31.640625 16.21875 -32.328125 C 14.800781 -30.816406 13.507812 -29.15625 12.34375 -27.34375 C 11.175781 -25.539062 10.148438 -23.6875 9.265625 -21.78125 C 7.785156 -18.625 6.535156 -15.421875 5.515625 -12.171875 C 5.878906 -13.222656 6.289062 -14.257812 6.75 -15.28125 C 7.207031 -16.300781 7.664062 -17.300781 8.125 -18.28125 C 8.945312 -19.957031 9.773438 -21.609375 10.609375 -23.234375 C 11.453125 -24.859375 12.351562 -26.460938 13.3125 -28.046875 Z M 18.375 -33.46875 C 18.539062 -33.625 18.726562 -33.816406 18.9375 -34.046875 C 19.15625 -34.273438 19.378906 -34.488281 19.609375 -34.6875 C 18.984375 -34.195312 18.414062 -33.65625 17.90625 -33.0625 C 17.40625 -32.476562 16.921875 -31.875 16.453125 -31.25 C 16.753906 -31.601562 17.066406 -31.976562 17.390625 -32.375 C 17.722656 -32.769531 18.050781 -33.132812 18.375 -33.46875 Z M 23.40625 -33.0625 C 23.40625 -33 23.390625 -32.9375 23.359375 -32.875 C 23.359375 -33.03125 23.398438 -33.210938 23.484375 -33.421875 C 23.566406 -33.640625 23.625 -33.867188 23.65625 -34.109375 C 23.625 -33.910156 23.585938 -33.726562 23.546875 -33.5625 C 23.515625 -33.394531 23.46875 -33.226562 23.40625 -33.0625 Z M 23.40625 -33.0625 "/></g></g></g><g fill="#ffffff" fill-opacity="1"><g transform="translate(64.219432, 175.383646)"><g><path d="M 22.671875 -12.265625 C 23.035156 -11.804688 23.019531 -11.425781 22.625 -11.125 C 22.226562 -10.832031 21.675781 -10.601562 20.96875 -10.4375 C 20.257812 -10.28125 19.582031 -10.164062 18.9375 -10.09375 C 18.300781 -10.03125 17.921875 -9.984375 17.796875 -9.953125 C 17.753906 -9.953125 17.617188 -9.914062 17.390625 -9.84375 C 17.160156 -9.78125 17.0625 -9.769531 17.09375 -9.8125 C 16.863281 -9.707031 16.722656 -9.640625 16.671875 -9.609375 C 16.628906 -9.578125 16.523438 -9.445312 16.359375 -9.21875 C 16.160156 -8.914062 15.972656 -8.609375 15.796875 -8.296875 C 15.617188 -7.984375 15.445312 -7.679688 15.28125 -7.390625 C 15.207031 -7.328125 15.003906 -7.0625 14.671875 -6.59375 C 14.347656 -6.132812 14.015625 -5.703125 13.671875 -5.296875 C 13.328125 -4.890625 13.09375 -4.703125 12.96875 -4.734375 C 12.96875 -4.734375 13.03125 -4.8125 13.15625 -4.96875 C 13.289062 -5.132812 13.34375 -5.234375 13.3125 -5.265625 L 11.875 -3.59375 C 12.039062 -3.757812 12.125 -3.8125 12.125 -3.75 C 11.988281 -3.320312 11.597656 -2.882812 10.953125 -2.4375 C 10.316406 -2 9.820312 -1.644531 9.46875 -1.375 C 9.070312 -1.082031 8.632812 -0.8125 8.15625 -0.5625 C 7.675781 -0.320312 7.175781 -0.164062 6.65625 -0.09375 C 5.632812 0 4.628906 -0.179688 3.640625 -0.640625 C 2.691406 -1.128906 1.890625 -1.84375 1.234375 -2.78125 C 0.578125 -3.71875 0.171875 -4.742188 0.015625 -5.859375 C -0.128906 -6.984375 0.0625 -8.035156 0.59375 -9.015625 C 1.019531 -9.804688 1.410156 -10.628906 1.765625 -11.484375 C 2.128906 -12.335938 2.609375 -13.160156 3.203125 -13.953125 C 3.566406 -14.378906 3.9375 -14.785156 4.3125 -15.171875 C 4.6875 -15.566406 5.101562 -15.914062 5.5625 -16.21875 C 5.957031 -16.507812 6.40625 -16.753906 6.90625 -16.953125 C 7.0625 -17.046875 7.285156 -17.117188 7.578125 -17.171875 C 7.878906 -17.222656 8.097656 -17.296875 8.234375 -17.390625 C 8.390625 -17.492188 8.535156 -17.78125 8.671875 -18.25 C 8.804688 -18.726562 8.921875 -19.066406 9.015625 -19.265625 C 9.210938 -19.628906 9.441406 -20.007812 9.703125 -20.40625 C 10.066406 -20.894531 10.453125 -21.367188 10.859375 -21.828125 C 11.273438 -22.285156 11.742188 -22.664062 12.265625 -22.96875 C 13.117188 -23.425781 13.941406 -23.488281 14.734375 -23.15625 C 15.523438 -22.832031 16.234375 -22.359375 16.859375 -21.734375 C 16.859375 -21.734375 16.992188 -21.632812 17.265625 -21.4375 C 17.546875 -21.238281 17.671875 -21.054688 17.640625 -20.890625 L 17.453125 -21.09375 L 17.640625 -20.703125 L 17.6875 -20.65625 C 17.625 -20.84375 17.679688 -20.828125 17.859375 -20.609375 C 18.046875 -20.398438 18.140625 -20.296875 18.140625 -20.296875 C 18.367188 -19.972656 18.53125 -19.546875 18.625 -19.015625 C 18.695312 -18.691406 18.734375 -18.347656 18.734375 -17.984375 C 18.734375 -17.628906 18.695312 -17.269531 18.625 -16.90625 C 18.53125 -15.988281 18.359375 -15.066406 18.109375 -14.140625 C 17.859375 -13.222656 17.601562 -12.320312 17.34375 -11.4375 C 18.101562 -11.5625 18.84375 -11.707031 19.5625 -11.875 C 20.289062 -12.039062 21.015625 -12.191406 21.734375 -12.328125 C 21.898438 -12.390625 22.0625 -12.441406 22.21875 -12.484375 C 22.382812 -12.535156 22.535156 -12.484375 22.671875 -12.328125 C 22.703125 -12.285156 22.707031 -12.265625 22.6875 -12.265625 C 22.675781 -12.265625 22.671875 -12.265625 22.671875 -12.265625 Z M 5.625 -2.3125 C 6.769531 -2.539062 7.828125 -3.066406 8.796875 -3.890625 C 9.765625 -4.710938 10.609375 -5.664062 11.328125 -6.75 C 12.054688 -7.832031 12.664062 -8.851562 13.15625 -9.8125 C 12.4375 -9.90625 11.695312 -10.082031 10.9375 -10.34375 C 10.1875 -10.613281 9.519531 -11 8.9375 -11.5 C 8.363281 -12.007812 7.976562 -12.675781 7.78125 -13.5 C 7.382812 -13.070312 6.796875 -12.054688 6.015625 -10.453125 L 6.3125 -10.890625 C 6.28125 -10.796875 6.113281 -10.425781 5.8125 -9.78125 C 5.519531 -9.144531 5.191406 -8.378906 4.828125 -7.484375 C 4.460938 -6.597656 4.191406 -5.742188 4.015625 -4.921875 C 3.835938 -4.109375 3.847656 -3.4375 4.046875 -2.90625 C 4.242188 -2.382812 4.75 -2.1875 5.5625 -2.3125 Z M 15.328125 -15.96875 C 15.421875 -16.394531 15.523438 -16.910156 15.640625 -17.515625 C 15.753906 -18.128906 15.828125 -18.738281 15.859375 -19.34375 C 15.898438 -19.945312 15.789062 -20.460938 15.53125 -20.890625 C 15.195312 -21.421875 14.800781 -21.585938 14.34375 -21.390625 C 13.882812 -21.191406 13.441406 -20.863281 13.015625 -20.40625 C 12.585938 -19.945312 12.238281 -19.550781 11.96875 -19.21875 C 11.9375 -19.21875 11.921875 -19.207031 11.921875 -19.1875 C 11.921875 -19.175781 11.921875 -19.171875 11.921875 -19.171875 L 11.875 -19.078125 L 11.875 -19.125 C 11.84375 -19.019531 11.828125 -18.96875 11.828125 -18.96875 C 11.691406 -18.8125 11.554688 -18.640625 11.421875 -18.453125 C 11.296875 -18.273438 11.148438 -18.054688 10.984375 -17.796875 C 11.015625 -17.828125 11.117188 -17.976562 11.296875 -18.25 C 11.484375 -18.53125 11.59375 -18.640625 11.625 -18.578125 C 11.695312 -18.484375 11.65625 -18.28125 11.5 -17.96875 C 11.351562 -17.65625 11.195312 -17.34375 11.03125 -17.03125 C 10.875 -16.71875 10.757812 -16.507812 10.6875 -16.40625 C 10.5625 -16.007812 10.441406 -15.613281 10.328125 -15.21875 C 10.210938 -14.832031 10.117188 -14.425781 10.046875 -14 C 10.015625 -13.570312 10.003906 -13.144531 10.015625 -12.71875 C 10.035156 -12.289062 10.210938 -11.925781 10.546875 -11.625 C 10.742188 -11.46875 10.988281 -11.351562 11.28125 -11.28125 C 11.582031 -11.21875 11.863281 -11.171875 12.125 -11.140625 C 12.289062 -11.109375 12.503906 -11.082031 12.765625 -11.0625 C 13.023438 -11.039062 13.222656 -11.050781 13.359375 -11.09375 C 13.617188 -11.15625 13.75 -11.1875 13.75 -11.1875 C 13.75 -11.1875 13.816406 -11.300781 13.953125 -11.53125 C 14.304688 -12.15625 14.582031 -12.878906 14.78125 -13.703125 C 14.976562 -14.523438 15.160156 -15.28125 15.328125 -15.96875 Z M 11.921875 -19.171875 C 11.921875 -19.171875 11.925781 -19.171875 11.9375 -19.171875 C 11.957031 -19.171875 11.96875 -19.1875 11.96875 -19.21875 Z M 11.921875 -19.171875 "/></g></g></g><g fill="#ffffff" fill-opacity="1"><g transform="translate(83.487788, 175.383646)"><g><path d="M 20.203125 -11.96875 C 20.265625 -11.644531 20.210938 -11.285156 20.046875 -10.890625 C 19.890625 -10.492188 19.726562 -10.148438 19.5625 -9.859375 C 19.363281 -9.429688 19.140625 -9.019531 18.890625 -8.625 C 18.648438 -8.226562 18.398438 -7.832031 18.140625 -7.4375 C 17.578125 -6.613281 16.988281 -5.785156 16.375 -4.953125 C 15.769531 -4.117188 15.175781 -3.273438 14.59375 -2.421875 C 14 -1.597656 13.375 -0.789062 12.71875 0 C 12.0625 0.789062 11.335938 1.515625 10.546875 2.171875 C 10.441406 2.234375 10.175781 2.425781 9.75 2.75 C 9.320312 3.082031 8.910156 3.394531 8.515625 3.6875 C 8.128906 3.988281 7.898438 4.140625 7.828125 4.140625 C 7.828125 4.109375 7.863281 4.054688 7.9375 3.984375 L 7.59375 4.140625 C 7.71875 4.109375 7.625 4.195312 7.3125 4.40625 C 7 4.625 6.78125 4.765625 6.65625 4.828125 C 5.96875 4.960938 5.289062 4.816406 4.625 4.390625 C 4.300781 4.191406 4.046875 3.941406 3.859375 3.640625 C 3.679688 3.347656 3.507812 3.035156 3.34375 2.703125 C 3.113281 2.148438 2.972656 1.609375 2.921875 1.078125 C 2.878906 0.554688 2.90625 0 3 -0.59375 C 3.039062 -0.6875 3.125 -0.976562 3.25 -1.46875 C 3.382812 -1.96875 3.53125 -2.460938 3.6875 -2.953125 C 3.851562 -3.453125 3.988281 -3.679688 4.09375 -3.640625 C 4.15625 -3.640625 4.148438 -3.570312 4.078125 -3.4375 C 4.015625 -3.3125 4.003906 -3.234375 4.046875 -3.203125 L 4.390625 -4.4375 C 4.359375 -4.4375 4.460938 -4.722656 4.703125 -5.296875 C 4.953125 -5.867188 5.25 -6.53125 5.59375 -7.28125 C 5.9375 -8.039062 6.253906 -8.71875 6.546875 -9.3125 C 6.847656 -9.90625 7.03125 -10.25 7.09375 -10.34375 C 6.375 -10.21875 5.59375 -10.203125 4.75 -10.296875 C 3.914062 -10.398438 3.234375 -10.765625 2.703125 -11.390625 C 2.578125 -11.578125 2.515625 -11.757812 2.515625 -11.9375 C 2.515625 -12.125 2.484375 -12.285156 2.421875 -12.421875 C 2.347656 -12.617188 2.269531 -12.78125 2.1875 -12.90625 C 2.101562 -13.039062 2.03125 -13.191406 1.96875 -13.359375 C 1.84375 -13.953125 1.898438 -14.578125 2.140625 -15.234375 C 2.390625 -15.890625 2.75 -16.460938 3.21875 -16.953125 C 3.695312 -17.441406 4.238281 -17.753906 4.84375 -17.890625 C 5.457031 -18.023438 6.0625 -17.894531 6.65625 -17.5 L 6.546875 -17.640625 C 6.585938 -17.804688 6.703125 -17.765625 6.890625 -17.515625 C 7.085938 -17.273438 7.207031 -17.085938 7.25 -16.953125 C 7.25 -16.890625 7.210938 -16.734375 7.140625 -16.484375 C 7.078125 -16.234375 6.992188 -15.992188 6.890625 -15.765625 C 6.796875 -15.535156 6.703125 -15.4375 6.609375 -15.46875 C 6.566406 -15.46875 6.601562 -15.613281 6.71875 -15.90625 C 6.84375 -16.207031 6.90625 -16.375 6.90625 -16.40625 C 6.738281 -15.945312 6.460938 -15.460938 6.078125 -14.953125 C 5.703125 -14.441406 5.484375 -13.941406 5.421875 -13.453125 C 5.390625 -13.085938 5.453125 -12.863281 5.609375 -12.78125 C 5.773438 -12.707031 6.023438 -12.632812 6.359375 -12.5625 C 6.816406 -12.4375 7.378906 -12.375 8.046875 -12.375 C 8.722656 -12.375 9.359375 -12.289062 9.953125 -12.125 C 9.554688 -12.257812 9.144531 -12.347656 8.71875 -12.390625 C 8.289062 -12.441406 7.914062 -12.484375 7.59375 -12.515625 C 7.59375 -12.515625 7.582031 -12.515625 7.5625 -12.515625 C 7.550781 -12.515625 7.546875 -12.53125 7.546875 -12.5625 C 7.898438 -12.53125 8.265625 -12.5 8.640625 -12.46875 C 9.023438 -12.4375 9.378906 -12.390625 9.703125 -12.328125 C 10.429688 -12.160156 10.972656 -11.898438 11.328125 -11.546875 C 11.691406 -11.203125 11.726562 -10.65625 11.4375 -9.90625 C 11.132812 -9.1875 10.8125 -8.472656 10.46875 -7.765625 C 10.125 -7.054688 9.789062 -6.34375 9.46875 -5.625 C 9.164062 -4.925781 8.882812 -4.21875 8.625 -3.5 C 8.363281 -2.78125 8.097656 -2.054688 7.828125 -1.328125 C 7.796875 -1.160156 7.679688 -0.863281 7.484375 -0.4375 C 7.285156 -0.0078125 7.117188 0.414062 6.984375 0.84375 C 6.859375 1.269531 6.863281 1.5625 7 1.71875 C 7.125 1.851562 7.359375 1.835938 7.703125 1.671875 C 8.054688 1.503906 8.445312 1.25 8.875 0.90625 C 9.300781 0.5625 9.703125 0.21875 10.078125 -0.125 C 10.453125 -0.46875 10.738281 -0.738281 10.9375 -0.9375 C 10.875 -0.875 10.804688 -0.832031 10.734375 -0.8125 C 10.671875 -0.789062 10.609375 -0.75 10.546875 -0.6875 C 10.515625 -0.6875 10.578125 -0.800781 10.734375 -1.03125 C 10.898438 -1.257812 11.085938 -1.503906 11.296875 -1.765625 C 11.515625 -2.035156 11.640625 -2.203125 11.671875 -2.265625 L 13.109375 -4.09375 L 15.765625 -7.59375 L 18.484375 -11.234375 C 18.578125 -11.335938 18.738281 -11.535156 18.96875 -11.828125 C 19.195312 -12.117188 19.4375 -12.320312 19.6875 -12.4375 C 19.9375 -12.550781 20.109375 -12.394531 20.203125 -11.96875 Z M 5.46875 -6.0625 C 5.175781 -5.375 4.890625 -4.675781 4.609375 -3.96875 C 4.328125 -3.257812 4.101562 -2.53125 3.9375 -1.78125 C 4.101562 -2.4375 4.316406 -3.066406 4.578125 -3.671875 C 4.847656 -4.273438 5.097656 -4.875 5.328125 -5.46875 L 6.265625 -7.640625 C 6.359375 -7.804688 6.507812 -8.117188 6.71875 -8.578125 C 6.9375 -9.035156 7.148438 -9.484375 7.359375 -9.921875 C 7.578125 -10.367188 7.71875 -10.609375 7.78125 -10.640625 C 7.6875 -10.609375 7.546875 -10.4375 7.359375 -10.125 C 7.179688 -9.8125 7.023438 -9.5 6.890625 -9.1875 C 6.765625 -8.875 6.6875 -8.6875 6.65625 -8.625 C 6.195312 -7.738281 5.800781 -6.882812 5.46875 -6.0625 Z M 4.28125 3.40625 L 4.28125 3.453125 C 4.21875 3.378906 4.1875 3.328125 4.1875 3.296875 L 4.234375 3.34375 C 4.109375 3.082031 3.992188 2.820312 3.890625 2.5625 C 3.796875 2.300781 3.710938 2.101562 3.640625 1.96875 L 3.796875 2.609375 L 3.59375 1.578125 L 3.59375 1.53125 C 3.5625 1.457031 3.546875 1.410156 3.546875 1.390625 C 3.546875 1.378906 3.546875 1.375 3.546875 1.375 C 3.546875 1.375 3.546875 1.378906 3.546875 1.390625 C 3.546875 1.410156 3.5625 1.441406 3.59375 1.484375 L 3.59375 1.234375 C 3.5625 0.867188 3.5625 0.53125 3.59375 0.21875 C 3.625 -0.09375 3.660156 -0.410156 3.703125 -0.734375 L 3.703125 -0.78125 C 3.597656 -0.351562 3.546875 0.0859375 3.546875 0.546875 C 3.484375 1.171875 3.535156 1.796875 3.703125 2.421875 C 3.734375 2.484375 3.828125 2.675781 3.984375 3 C 4.148438 3.332031 4.300781 3.597656 4.4375 3.796875 C 4.4375 3.734375 4.421875 3.703125 4.390625 3.703125 C 4.710938 3.992188 5.085938 4.222656 5.515625 4.390625 C 5.253906 4.285156 5.023438 4.144531 4.828125 3.96875 C 4.628906 3.789062 4.445312 3.601562 4.28125 3.40625 Z M 5.671875 -12.859375 C 5.535156 -12.929688 5.46875 -13.0625 5.46875 -13.25 C 5.5 -13.21875 5.5625 -13.148438 5.65625 -13.046875 C 5.757812 -12.953125 5.8125 -12.90625 5.8125 -12.90625 C 6.039062 -12.75 6.367188 -12.632812 6.796875 -12.5625 C 6.566406 -12.59375 6.351562 -12.625 6.15625 -12.65625 C 5.957031 -12.695312 5.796875 -12.765625 5.671875 -12.859375 Z M 10.84375 -9.015625 L 10.84375 -9.0625 L 9.8125 -6.84375 Z M 3.75 -0.9375 C 3.75 -0.90625 3.738281 -0.890625 3.71875 -0.890625 C 3.707031 -0.890625 3.703125 -0.875 3.703125 -0.84375 L 3.703125 -0.78125 C 3.703125 -0.820312 3.707031 -0.847656 3.71875 -0.859375 C 3.738281 -0.878906 3.75 -0.90625 3.75 -0.9375 Z M 10.890625 -9.171875 L 10.84375 -9.109375 L 10.890625 -9.109375 Z M 10.890625 -9.171875 L 10.84375 -9.109375 L 10.890625 -9.109375 Z M 3.796875 -1.578125 C 3.796875 -1.609375 3.800781 -1.640625 3.8125 -1.671875 C 3.832031 -1.703125 3.84375 -1.738281 3.84375 -1.78125 C 3.84375 -1.738281 3.832031 -1.703125 3.8125 -1.671875 C 3.800781 -1.640625 3.796875 -1.609375 3.796875 -1.578125 Z M 3.984375 2.953125 C 3.984375 2.984375 3.992188 3 4.015625 3 C 4.035156 3 4.046875 3.019531 4.046875 3.0625 C 4.046875 3.019531 4.035156 2.988281 4.015625 2.96875 C 3.992188 2.957031 3.984375 2.953125 3.984375 2.953125 Z M 5.515625 -13.359375 L 5.46875 -13.3125 C 5.46875 -13.3125 5.46875 -13.316406 5.46875 -13.328125 C 5.46875 -13.347656 5.484375 -13.359375 5.515625 -13.359375 Z M 5.515625 -13.359375 "/></g></g></g><g fill="#ffffff" fill-opacity="1"><g transform="translate(100.095039, 175.383646)"><g><path d="M 29.125 -12.03125 C 29.1875 -11.40625 28.929688 -10.84375 28.359375 -10.34375 C 27.785156 -9.851562 27.300781 -9.410156 26.90625 -9.015625 C 26.382812 -8.492188 25.875 -7.9375 25.375 -7.34375 C 24.882812 -6.75 24.394531 -6.15625 23.90625 -5.5625 C 22.882812 -4.351562 21.945312 -3.054688 21.09375 -1.671875 C 20.238281 -0.296875 19.300781 1.03125 18.28125 2.3125 C 17.882812 2.8125 17.429688 3.363281 16.921875 3.96875 C 16.421875 4.570312 15.875 5.085938 15.28125 5.515625 C 14.6875 5.941406 14.066406 6.160156 13.421875 6.171875 C 12.785156 6.191406 12.140625 5.875 11.484375 5.21875 C 10.796875 4.53125 10.351562 3.675781 10.15625 2.65625 C 9.957031 1.644531 9.890625 0.597656 9.953125 -0.484375 C 10.015625 -1.578125 10.082031 -2.550781 10.15625 -3.40625 C 9.425781 -2.675781 8.664062 -1.957031 7.875 -1.25 C 7.09375 -0.550781 6.273438 0.109375 5.421875 0.734375 C 4.960938 1.066406 4.460938 1.367188 3.921875 1.640625 C 3.378906 1.921875 2.8125 2 2.21875 1.875 C 1.257812 1.675781 0.550781 1.238281 0.09375 0.5625 C -0.363281 -0.101562 -0.640625 -0.894531 -0.734375 -1.8125 C -0.835938 -2.738281 -0.804688 -3.648438 -0.640625 -4.546875 C -0.472656 -5.453125 -0.242188 -6.238281 0.046875 -6.90625 C 0.378906 -7.65625 0.648438 -8.429688 0.859375 -9.234375 C 1.078125 -10.046875 1.398438 -10.84375 1.828125 -11.625 C 2.316406 -12.519531 2.921875 -13.410156 3.640625 -14.296875 C 4.367188 -15.179688 5.207031 -15.820312 6.15625 -16.21875 C 6.945312 -16.539062 7.695312 -16.519531 8.40625 -16.15625 C 9.113281 -15.800781 9.769531 -15.316406 10.375 -14.703125 C 10.976562 -14.097656 11.492188 -13.535156 11.921875 -13.015625 C 12.515625 -15.179688 13.210938 -17.304688 14.015625 -19.390625 C 14.828125 -21.472656 15.691406 -23.535156 16.609375 -25.578125 C 16.671875 -25.640625 16.773438 -25.929688 16.921875 -26.453125 C 17.078125 -26.984375 17.253906 -27.316406 17.453125 -27.453125 C 17.347656 -27.378906 17.242188 -27.1875 17.140625 -26.875 C 17.046875 -26.570312 16.96875 -26.320312 16.90625 -26.125 C 17 -26.382812 17.117188 -26.648438 17.265625 -26.921875 C 17.421875 -27.203125 17.5625 -27.476562 17.6875 -27.75 L 17.640625 -27.75 C 17.703125 -27.8125 17.800781 -27.988281 17.9375 -28.28125 C 18.070312 -28.582031 18.203125 -28.878906 18.328125 -29.171875 C 18.460938 -29.472656 18.546875 -29.65625 18.578125 -29.71875 C 18.804688 -30.082031 19.039062 -30.4375 19.28125 -30.78125 C 19.53125 -31.125 19.773438 -31.457031 20.015625 -31.78125 C 20.472656 -32.34375 20.988281 -32.859375 21.5625 -33.328125 C 22.132812 -33.804688 22.75 -34.160156 23.40625 -34.390625 C 24.03125 -34.628906 24.703125 -34.726562 25.421875 -34.6875 C 26.148438 -34.65625 26.816406 -34.484375 27.421875 -34.171875 C 28.035156 -33.859375 28.457031 -33.359375 28.6875 -32.671875 C 29.007812 -31.753906 29.070312 -30.800781 28.875 -29.8125 C 28.675781 -28.832031 28.347656 -27.875 27.890625 -26.9375 C 27.429688 -26 26.972656 -25.148438 26.515625 -24.390625 C 26.085938 -23.703125 25.648438 -23.003906 25.203125 -22.296875 C 24.765625 -21.585938 24.316406 -20.90625 23.859375 -20.25 L 22.578125 -18.578125 L 22.125 -18.09375 C 22.1875 -18.21875 22.203125 -18.296875 22.171875 -18.328125 L 21.78125 -17.796875 L 21.828125 -17.796875 L 21.78125 -17.796875 L 21.640625 -17.59375 L 19.515625 -14.734375 C 19.648438 -14.898438 19.796875 -15.070312 19.953125 -15.25 C 20.117188 -15.4375 20.21875 -15.507812 20.25 -15.46875 C 20.25 -15.46875 20.078125 -15.242188 19.734375 -14.796875 C 19.390625 -14.359375 18.988281 -13.851562 18.53125 -13.28125 C 18.070312 -12.707031 17.648438 -12.171875 17.265625 -11.671875 C 16.890625 -11.179688 16.671875 -10.890625 16.609375 -10.796875 C 15.984375 -10.035156 15.585938 -9.078125 15.421875 -7.921875 C 15.253906 -6.773438 15.09375 -5.726562 14.9375 -4.78125 C 14.90625 -4.550781 14.828125 -4.140625 14.703125 -3.546875 C 14.585938 -2.953125 14.488281 -2.269531 14.40625 -1.5 C 14.332031 -0.726562 14.285156 0.015625 14.265625 0.734375 C 14.253906 1.460938 14.3125 2.0625 14.4375 2.53125 C 14.570312 3.007812 14.800781 3.25 15.125 3.25 C 15.351562 3.25 15.59375 3.09375 15.84375 2.78125 C 16.09375 2.46875 16.28125 2.25 16.40625 2.125 C 16.769531 1.726562 17.113281 1.316406 17.4375 0.890625 C 17.769531 0.460938 18.101562 0.0351562 18.4375 -0.390625 C 19.09375 -1.273438 19.738281 -2.160156 20.375 -3.046875 C 21.019531 -3.941406 21.65625 -4.832031 22.28125 -5.71875 C 22.9375 -6.570312 23.59375 -7.425781 24.25 -8.28125 C 24.90625 -9.132812 25.59375 -9.957031 26.3125 -10.75 C 26.382812 -10.8125 26.554688 -10.976562 26.828125 -11.25 C 27.109375 -11.53125 27.40625 -11.8125 27.71875 -12.09375 C 28.03125 -12.375 28.328125 -12.539062 28.609375 -12.59375 C 28.890625 -12.644531 29.0625 -12.472656 29.125 -12.078125 Z M 10.984375 -8.765625 L 10.984375 -8.96875 C 11.085938 -9.425781 11.1875 -9.859375 11.28125 -10.265625 C 11.382812 -10.679688 11.300781 -11.085938 11.03125 -11.484375 C 10.800781 -11.804688 10.578125 -12.148438 10.359375 -12.515625 C 10.148438 -12.878906 9.882812 -13.175781 9.5625 -13.40625 C 9.425781 -13.5 9.273438 -13.59375 9.109375 -13.6875 C 8.953125 -13.789062 8.789062 -13.8125 8.625 -13.75 C 8.5625 -13.75 8.507812 -13.734375 8.46875 -13.703125 L 8.71875 -13.84375 C 8.195312 -13.8125 7.738281 -13.46875 7.34375 -12.8125 C 6.945312 -12.15625 6.617188 -11.5625 6.359375 -11.03125 C 5.828125 -10.019531 5.332031 -8.972656 4.875 -7.890625 C 4.414062 -6.804688 4.023438 -5.6875 3.703125 -4.53125 C 3.628906 -4.269531 3.507812 -3.84375 3.34375 -3.25 C 3.1875 -2.65625 3.097656 -2.078125 3.078125 -1.515625 C 3.066406 -0.960938 3.253906 -0.601562 3.640625 -0.4375 C 3.941406 -0.3125 4.304688 -0.378906 4.734375 -0.640625 C 5.160156 -0.898438 5.519531 -1.160156 5.8125 -1.421875 C 5.488281 -1.160156 5.160156 -0.941406 4.828125 -0.765625 C 4.503906 -0.585938 4.222656 -0.515625 3.984375 -0.546875 C 3.460938 -0.578125 3.191406 -0.894531 3.171875 -1.5 C 3.160156 -2.113281 3.285156 -2.820312 3.546875 -3.625 C 3.804688 -4.425781 4.050781 -5.15625 4.28125 -5.8125 C 4.050781 -5.1875 3.820312 -4.472656 3.59375 -3.671875 C 3.363281 -2.867188 3.25 -2.171875 3.25 -1.578125 C 3.25 -0.984375 3.476562 -0.65625 3.9375 -0.59375 C 4.332031 -0.5625 4.757812 -0.71875 5.21875 -1.0625 C 5.675781 -1.40625 6.128906 -1.789062 6.578125 -2.21875 C 7.023438 -2.644531 7.363281 -2.972656 7.59375 -3.203125 C 7.988281 -3.566406 8.378906 -3.9375 8.765625 -4.3125 C 9.160156 -4.6875 9.539062 -5.070312 9.90625 -5.46875 C 10.332031 -5.894531 10.585938 -6.363281 10.671875 -6.875 C 10.753906 -7.382812 10.84375 -7.9375 10.9375 -8.53125 C 10.9375 -8.53125 10.9375 -8.550781 10.9375 -8.59375 C 10.9375 -8.644531 10.953125 -8.703125 10.984375 -8.765625 Z M 18.921875 -20.15625 C 18.890625 -20.125 18.875 -20.078125 18.875 -20.015625 L 18.734375 -19.765625 C 18.691406 -19.597656 18.671875 -19.515625 18.671875 -19.515625 C 17.953125 -17.410156 17.265625 -15.289062 16.609375 -13.15625 C 16.640625 -13.21875 16.722656 -13.316406 16.859375 -13.453125 C 16.722656 -13.285156 16.601562 -13.128906 16.5 -12.984375 C 16.40625 -12.835938 16.34375 -12.679688 16.3125 -12.515625 L 16.515625 -12.71875 L 16.859375 -13.15625 L 19.375 -16.40625 L 18.375 -15.171875 L 17.296875 -14.046875 C 19.335938 -16.578125 21.226562 -19.238281 22.96875 -22.03125 C 23.457031 -22.820312 24 -23.71875 24.59375 -24.71875 C 25.1875 -25.71875 25.6875 -26.742188 26.09375 -27.796875 C 26.5 -28.847656 26.671875 -29.863281 26.609375 -30.84375 C 26.609375 -31.070312 26.578125 -31.316406 26.515625 -31.578125 C 26.453125 -31.847656 26.300781 -32.050781 26.0625 -32.1875 C 25.707031 -32.414062 25.332031 -32.375 24.9375 -32.0625 C 24.539062 -31.75 24.191406 -31.359375 23.890625 -30.890625 C 23.597656 -30.429688 23.375 -30.070312 23.21875 -29.8125 C 22.320312 -28.40625 21.546875 -26.921875 20.890625 -25.359375 C 20.234375 -23.796875 19.628906 -22.226562 19.078125 -20.65625 L 19.078125 -20.59375 C 19.078125 -20.59375 19.066406 -20.578125 19.046875 -20.546875 C 19.023438 -20.515625 19 -20.46875 18.96875 -20.40625 L 18.96875 -20.359375 C 18.9375 -20.316406 18.921875 -20.25 18.921875 -20.15625 Z M 14.78125 -16.109375 C 14.851562 -16.242188 14.9375 -16.453125 15.03125 -16.734375 C 15.125 -17.015625 15.171875 -17.253906 15.171875 -17.453125 C 15.140625 -17.253906 15.035156 -17.035156 14.859375 -16.796875 C 14.679688 -16.566406 14.554688 -16.375 14.484375 -16.21875 C 14.390625 -15.914062 14.359375 -15.617188 14.390625 -15.328125 C 14.421875 -15.035156 14.335938 -14.753906 14.140625 -14.484375 C 14.210938 -14.484375 14.25 -14.519531 14.25 -14.59375 C 14.3125 -14.65625 14.40625 -14.890625 14.53125 -15.296875 C 14.664062 -15.710938 14.75 -15.984375 14.78125 -16.109375 Z M 6.953125 -2.46875 L 6.15625 -1.78125 L 6.203125 -1.78125 C 6.566406 -2.070312 6.925781 -2.375 7.28125 -2.6875 C 7.644531 -3 7.992188 -3.316406 8.328125 -3.640625 C 8.585938 -3.910156 9.003906 -4.265625 9.578125 -4.703125 C 10.160156 -5.148438 10.46875 -5.535156 10.5 -5.859375 C 9.382812 -4.679688 8.203125 -3.550781 6.953125 -2.46875 Z M 15.671875 -20.59375 C 15.804688 -20.957031 15.953125 -21.34375 16.109375 -21.75 C 16.273438 -22.164062 16.425781 -22.570312 16.5625 -22.96875 C 16.425781 -22.632812 16.285156 -22.300781 16.140625 -21.96875 C 15.992188 -21.644531 15.835938 -21.351562 15.671875 -21.09375 C 15.503906 -20.757812 15.367188 -20.40625 15.265625 -20.03125 C 15.171875 -19.65625 15.0625 -19.285156 14.9375 -18.921875 C 15.226562 -19.484375 15.472656 -20.039062 15.671875 -20.59375 Z M 18.875 -20.015625 L 18.734375 -19.765625 C 18.734375 -19.734375 18.722656 -19.691406 18.703125 -19.640625 C 18.679688 -19.585938 18.671875 -19.546875 18.671875 -19.515625 Z M 8.234375 -13.5 C 8.160156 -13.4375 8.09375 -13.363281 8.03125 -13.28125 C 7.96875 -13.195312 7.898438 -13.15625 7.828125 -13.15625 C 7.867188 -13.15625 7.921875 -13.195312 7.984375 -13.28125 C 8.046875 -13.363281 8.128906 -13.4375 8.234375 -13.5 Z M 9.609375 -13.609375 L 9.90625 -13.40625 C 9.84375 -13.46875 9.742188 -13.535156 9.609375 -13.609375 Z M 19.375 -14.484375 C 19.375 -14.484375 19.378906 -14.5 19.390625 -14.53125 C 19.410156 -14.570312 19.4375 -14.609375 19.46875 -14.640625 C 19.40625 -14.566406 19.375 -14.515625 19.375 -14.484375 Z M 19.46875 -14.640625 C 19.46875 -14.640625 19.472656 -14.644531 19.484375 -14.65625 C 19.503906 -14.675781 19.515625 -14.703125 19.515625 -14.734375 Z M 19.46875 -14.640625 "/></g></g></g><g fill="#ffffff" fill-opacity="1"><g transform="translate(125.621917, 175.383646)"><g><path d="M 22.671875 -12.265625 C 23.035156 -11.804688 23.019531 -11.425781 22.625 -11.125 C 22.226562 -10.832031 21.675781 -10.601562 20.96875 -10.4375 C 20.257812 -10.28125 19.582031 -10.164062 18.9375 -10.09375 C 18.300781 -10.03125 17.921875 -9.984375 17.796875 -9.953125 C 17.753906 -9.953125 17.617188 -9.914062 17.390625 -9.84375 C 17.160156 -9.78125 17.0625 -9.769531 17.09375 -9.8125 C 16.863281 -9.707031 16.722656 -9.640625 16.671875 -9.609375 C 16.628906 -9.578125 16.523438 -9.445312 16.359375 -9.21875 C 16.160156 -8.914062 15.972656 -8.609375 15.796875 -8.296875 C 15.617188 -7.984375 15.445312 -7.679688 15.28125 -7.390625 C 15.207031 -7.328125 15.003906 -7.0625 14.671875 -6.59375 C 14.347656 -6.132812 14.015625 -5.703125 13.671875 -5.296875 C 13.328125 -4.890625 13.09375 -4.703125 12.96875 -4.734375 C 12.96875 -4.734375 13.03125 -4.8125 13.15625 -4.96875 C 13.289062 -5.132812 13.34375 -5.234375 13.3125 -5.265625 L 11.875 -3.59375 C 12.039062 -3.757812 12.125 -3.8125 12.125 -3.75 C 11.988281 -3.320312 11.597656 -2.882812 10.953125 -2.4375 C 10.316406 -2 9.820312 -1.644531 9.46875 -1.375 C 9.070312 -1.082031 8.632812 -0.8125 8.15625 -0.5625 C 7.675781 -0.320312 7.175781 -0.164062 6.65625 -0.09375 C 5.632812 0 4.628906 -0.179688 3.640625 -0.640625 C 2.691406 -1.128906 1.890625 -1.84375 1.234375 -2.78125 C 0.578125 -3.71875 0.171875 -4.742188 0.015625 -5.859375 C -0.128906 -6.984375 0.0625 -8.035156 0.59375 -9.015625 C 1.019531 -9.804688 1.410156 -10.628906 1.765625 -11.484375 C 2.128906 -12.335938 2.609375 -13.160156 3.203125 -13.953125 C 3.566406 -14.378906 3.9375 -14.785156 4.3125 -15.171875 C 4.6875 -15.566406 5.101562 -15.914062 5.5625 -16.21875 C 5.957031 -16.507812 6.40625 -16.753906 6.90625 -16.953125 C 7.0625 -17.046875 7.285156 -17.117188 7.578125 -17.171875 C 7.878906 -17.222656 8.097656 -17.296875 8.234375 -17.390625 C 8.390625 -17.492188 8.535156 -17.78125 8.671875 -18.25 C 8.804688 -18.726562 8.921875 -19.066406 9.015625 -19.265625 C 9.210938 -19.628906 9.441406 -20.007812 9.703125 -20.40625 C 10.066406 -20.894531 10.453125 -21.367188 10.859375 -21.828125 C 11.273438 -22.285156 11.742188 -22.664062 12.265625 -22.96875 C 13.117188 -23.425781 13.941406 -23.488281 14.734375 -23.15625 C 15.523438 -22.832031 16.234375 -22.359375 16.859375 -21.734375 C 16.859375 -21.734375 16.992188 -21.632812 17.265625 -21.4375 C 17.546875 -21.238281 17.671875 -21.054688 17.640625 -20.890625 L 17.453125 -21.09375 L 17.640625 -20.703125 L 17.6875 -20.65625 C 17.625 -20.84375 17.679688 -20.828125 17.859375 -20.609375 C 18.046875 -20.398438 18.140625 -20.296875 18.140625 -20.296875 C 18.367188 -19.972656 18.53125 -19.546875 18.625 -19.015625 C 18.695312 -18.691406 18.734375 -18.347656 18.734375 -17.984375 C 18.734375 -17.628906 18.695312 -17.269531 18.625 -16.90625 C 18.53125 -15.988281 18.359375 -15.066406 18.109375 -14.140625 C 17.859375 -13.222656 17.601562 -12.320312 17.34375 -11.4375 C 18.101562 -11.5625 18.84375 -11.707031 19.5625 -11.875 C 20.289062 -12.039062 21.015625 -12.191406 21.734375 -12.328125 C 21.898438 -12.390625 22.0625 -12.441406 22.21875 -12.484375 C 22.382812 -12.535156 22.535156 -12.484375 22.671875 -12.328125 C 22.703125 -12.285156 22.707031 -12.265625 22.6875 -12.265625 C 22.675781 -12.265625 22.671875 -12.265625 22.671875 -12.265625 Z M 5.625 -2.3125 C 6.769531 -2.539062 7.828125 -3.066406 8.796875 -3.890625 C 9.765625 -4.710938 10.609375 -5.664062 11.328125 -6.75 C 12.054688 -7.832031 12.664062 -8.851562 13.15625 -9.8125 C 12.4375 -9.90625 11.695312 -10.082031 10.9375 -10.34375 C 10.1875 -10.613281 9.519531 -11 8.9375 -11.5 C 8.363281 -12.007812 7.976562 -12.675781 7.78125 -13.5 C 7.382812 -13.070312 6.796875 -12.054688 6.015625 -10.453125 L 6.3125 -10.890625 C 6.28125 -10.796875 6.113281 -10.425781 5.8125 -9.78125 C 5.519531 -9.144531 5.191406 -8.378906 4.828125 -7.484375 C 4.460938 -6.597656 4.191406 -5.742188 4.015625 -4.921875 C 3.835938 -4.109375 3.847656 -3.4375 4.046875 -2.90625 C 4.242188 -2.382812 4.75 -2.1875 5.5625 -2.3125 Z M 15.328125 -15.96875 C 15.421875 -16.394531 15.523438 -16.910156 15.640625 -17.515625 C 15.753906 -18.128906 15.828125 -18.738281 15.859375 -19.34375 C 15.898438 -19.945312 15.789062 -20.460938 15.53125 -20.890625 C 15.195312 -21.421875 14.800781 -21.585938 14.34375 -21.390625 C 13.882812 -21.191406 13.441406 -20.863281 13.015625 -20.40625 C 12.585938 -19.945312 12.238281 -19.550781 11.96875 -19.21875 C 11.9375 -19.21875 11.921875 -19.207031 11.921875 -19.1875 C 11.921875 -19.175781 11.921875 -19.171875 11.921875 -19.171875 L 11.875 -19.078125 L 11.875 -19.125 C 11.84375 -19.019531 11.828125 -18.96875 11.828125 -18.96875 C 11.691406 -18.8125 11.554688 -18.640625 11.421875 -18.453125 C 11.296875 -18.273438 11.148438 -18.054688 10.984375 -17.796875 C 11.015625 -17.828125 11.117188 -17.976562 11.296875 -18.25 C 11.484375 -18.53125 11.59375 -18.640625 11.625 -18.578125 C 11.695312 -18.484375 11.65625 -18.28125 11.5 -17.96875 C 11.351562 -17.65625 11.195312 -17.34375 11.03125 -17.03125 C 10.875 -16.71875 10.757812 -16.507812 10.6875 -16.40625 C 10.5625 -16.007812 10.441406 -15.613281 10.328125 -15.21875 C 10.210938 -14.832031 10.117188 -14.425781 10.046875 -14 C 10.015625 -13.570312 10.003906 -13.144531 10.015625 -12.71875 C 10.035156 -12.289062 10.210938 -11.925781 10.546875 -11.625 C 10.742188 -11.46875 10.988281 -11.351562 11.28125 -11.28125 C 11.582031 -11.21875 11.863281 -11.171875 12.125 -11.140625 C 12.289062 -11.109375 12.503906 -11.082031 12.765625 -11.0625 C 13.023438 -11.039062 13.222656 -11.050781 13.359375 -11.09375 C 13.617188 -11.15625 13.75 -11.1875 13.75 -11.1875 C 13.75 -11.1875 13.816406 -11.300781 13.953125 -11.53125 C 14.304688 -12.15625 14.582031 -12.878906 14.78125 -13.703125 C 14.976562 -14.523438 15.160156 -15.28125 15.328125 -15.96875 Z M 11.921875 -19.171875 C 11.921875 -19.171875 11.925781 -19.171875 11.9375 -19.171875 C 11.957031 -19.171875 11.96875 -19.1875 11.96875 -19.21875 Z M 20.546875 -27.9375 C 20.617188 -28.007812 20.734375 -28.175781 20.890625 -28.4375 C 21.054688 -28.695312 21.253906 -28.644531 21.484375 -28.28125 C 21.710938 -27.988281 21.675781 -27.703125 21.375 -27.421875 C 21.082031 -27.140625 20.890625 -26.921875 20.796875 -26.765625 C 20.660156 -26.566406 20.519531 -26.382812 20.375 -26.21875 C 20.226562 -26.050781 20.023438 -25.882812 19.765625 -25.71875 C 19.335938 -25.488281 18.867188 -25.34375 18.359375 -25.28125 C 17.847656 -25.21875 17.378906 -25.234375 16.953125 -25.328125 C 16.429688 -25.492188 15.9375 -25.71875 15.46875 -26 C 15.007812 -26.28125 14.519531 -26.46875 14 -26.5625 C 13.664062 -26.625 13.347656 -26.679688 13.046875 -26.734375 C 12.753906 -26.785156 12.429688 -26.757812 12.078125 -26.65625 C 11.804688 -26.59375 11.5 -26.445312 11.15625 -26.21875 C 10.8125 -25.988281 10.507812 -25.988281 10.25 -26.21875 C 9.851562 -26.507812 9.742188 -26.835938 9.921875 -27.203125 C 10.109375 -27.566406 10.429688 -27.910156 10.890625 -28.234375 C 11.347656 -28.566406 11.804688 -28.851562 12.265625 -29.09375 C 12.734375 -29.34375 13.046875 -29.484375 13.203125 -29.515625 C 13.992188 -29.847656 14.648438 -29.898438 15.171875 -29.671875 C 15.703125 -29.441406 16.222656 -29.117188 16.734375 -28.703125 C 17.242188 -28.296875 17.828125 -27.960938 18.484375 -27.703125 C 19.265625 -27.367188 19.953125 -27.445312 20.546875 -27.9375 Z M 20.546875 -27.9375 "/></g></g></g><g fill="#ffffff" fill-opacity="1"><g transform="translate(144.890273, 175.383646)"><g><path d="M 18.875 -12.171875 C 18.96875 -11.972656 18.988281 -11.804688 18.9375 -11.671875 C 18.894531 -11.546875 18.804688 -11.398438 18.671875 -11.234375 L 17.15625 -9.21875 L 14.484375 -5.765625 C 14.160156 -5.335938 13.800781 -4.910156 13.40625 -4.484375 C 13.007812 -4.054688 12.628906 -3.613281 12.265625 -3.15625 C 11.910156 -2.664062 11.554688 -2.164062 11.203125 -1.65625 C 10.859375 -1.144531 10.472656 -0.660156 10.046875 -0.203125 C 9.617188 0.265625 9.140625 0.726562 8.609375 1.1875 C 8.085938 1.644531 7.535156 2.035156 6.953125 2.359375 C 6.160156 2.785156 5.320312 2.867188 4.4375 2.609375 C 3.8125 2.441406 3.21875 2.171875 2.65625 1.796875 C 2.101562 1.421875 1.613281 0.988281 1.1875 0.5 C 1.050781 0.332031 0.929688 0.179688 0.828125 0.046875 C 0.734375 -0.078125 0.671875 -0.238281 0.640625 -0.4375 C 0.609375 -0.601562 0.582031 -0.769531 0.5625 -0.9375 C 0.550781 -1.101562 0.546875 -1.265625 0.546875 -1.421875 C 0.515625 -1.722656 0.535156 -1.992188 0.609375 -2.234375 C 0.691406 -2.484375 0.75 -2.757812 0.78125 -3.0625 C 0.851562 -3.382812 0.945312 -3.691406 1.0625 -3.984375 C 1.175781 -4.285156 1.25 -4.597656 1.28125 -4.921875 C 1.34375 -5.285156 1.414062 -5.625 1.5 -5.9375 C 1.582031 -6.25 1.640625 -6.570312 1.671875 -6.90625 C 1.703125 -7.195312 1.707031 -7.5 1.6875 -7.8125 C 1.675781 -8.125 1.707031 -8.425781 1.78125 -8.71875 C 1.84375 -8.914062 1.929688 -9.113281 2.046875 -9.3125 C 2.160156 -9.507812 2.25 -9.722656 2.3125 -9.953125 C 2.25 -9.816406 2.164062 -9.675781 2.0625 -9.53125 C 1.96875 -9.382812 1.90625 -9.242188 1.875 -9.109375 C 1.8125 -8.921875 1.742188 -8.726562 1.671875 -8.53125 C 1.609375 -8.332031 1.546875 -8.148438 1.484375 -7.984375 C 1.410156 -7.785156 1.347656 -7.59375 1.296875 -7.40625 C 1.253906 -7.226562 1.203125 -7.039062 1.140625 -6.84375 C 1.035156 -6.613281 0.941406 -6.398438 0.859375 -6.203125 C 0.773438 -6.003906 0.71875 -5.773438 0.6875 -5.515625 C 0.65625 -5.285156 0.644531 -5.0625 0.65625 -4.84375 C 0.675781 -4.632812 0.671875 -4.414062 0.640625 -4.1875 C 0.609375 -3.957031 0.566406 -3.75 0.515625 -3.5625 C 0.460938 -3.382812 0.4375 -3.179688 0.4375 -2.953125 C 0.4375 -2.890625 0.453125 -2.800781 0.484375 -2.6875 C 0.523438 -2.570312 0.546875 -2.484375 0.546875 -2.421875 C 0.546875 -2.316406 0.523438 -2.207031 0.484375 -2.09375 C 0.453125 -1.976562 0.4375 -1.851562 0.4375 -1.71875 C 0.4375 -1.488281 0.453125 -1.265625 0.484375 -1.046875 C 0.523438 -0.835938 0.5625 -0.601562 0.59375 -0.34375 C 0.195312 -1.03125 0 -1.726562 0 -2.4375 C 0 -3.144531 0.0664062 -3.859375 0.203125 -4.578125 C 0.328125 -5.335938 0.445312 -6.066406 0.5625 -6.765625 C 0.675781 -7.472656 0.816406 -8.191406 0.984375 -8.921875 C 1.316406 -10.367188 1.8125 -11.789062 2.46875 -13.1875 C 3.125 -14.582031 3.910156 -15.851562 4.828125 -17 C 5.585938 -18.019531 6.484375 -18.847656 7.515625 -19.484375 C 8.546875 -20.128906 9.71875 -20.320312 11.03125 -20.0625 C 11.53125 -19.957031 12.023438 -19.789062 12.515625 -19.5625 C 13.003906 -19.332031 13.414062 -19.003906 13.75 -18.578125 C 14.113281 -18.117188 14.296875 -17.609375 14.296875 -17.046875 C 14.296875 -16.492188 14.210938 -15.9375 14.046875 -15.375 C 13.710938 -14.425781 13.1875 -13.5625 12.46875 -12.78125 C 11.75 -12.007812 11.007812 -11.296875 10.25 -10.640625 C 9.914062 -10.378906 9.578125 -10.117188 9.234375 -9.859375 C 8.890625 -9.597656 8.539062 -9.347656 8.1875 -9.109375 C 7.945312 -8.984375 7.6875 -8.863281 7.40625 -8.75 C 7.132812 -8.632812 6.867188 -8.523438 6.609375 -8.421875 L 5.765625 -8.125 C 5.597656 -8.09375 5.484375 -8.066406 5.421875 -8.046875 C 5.359375 -8.035156 5.289062 -7.945312 5.21875 -7.78125 C 5.09375 -7.550781 5.046875 -7.3125 5.078125 -7.0625 C 5.109375 -6.820312 5.09375 -6.570312 5.03125 -6.3125 C 5 -5.976562 4.941406 -5.660156 4.859375 -5.359375 C 4.773438 -5.066406 4.695312 -4.757812 4.625 -4.4375 C 4.5 -3.84375 4.378906 -3.191406 4.265625 -2.484375 C 4.148438 -1.773438 4.15625 -1.113281 4.28125 -0.5 C 4.414062 0.125 4.738281 0.410156 5.25 0.359375 C 5.757812 0.316406 6.316406 0.09375 6.921875 -0.3125 C 7.523438 -0.726562 8.085938 -1.164062 8.609375 -1.625 C 9.140625 -2.082031 9.503906 -2.394531 9.703125 -2.5625 C 9.972656 -2.789062 10.210938 -3.019531 10.421875 -3.25 C 10.640625 -3.476562 10.863281 -3.707031 11.09375 -3.9375 C 11.21875 -4.101562 11.34375 -4.25 11.46875 -4.375 C 11.601562 -4.507812 11.722656 -4.644531 11.828125 -4.78125 C 11.828125 -4.78125 11.84375 -4.828125 11.875 -4.921875 C 11.90625 -5.023438 11.921875 -5.09375 11.921875 -5.125 C 12.222656 -5.582031 12.5625 -6.039062 12.9375 -6.5 C 13.3125 -6.957031 13.679688 -7.398438 14.046875 -7.828125 C 14.503906 -8.359375 14.929688 -8.894531 15.328125 -9.4375 C 15.722656 -9.976562 16.132812 -10.53125 16.5625 -11.09375 C 16.726562 -11.320312 16.929688 -11.609375 17.171875 -11.953125 C 17.421875 -12.296875 17.691406 -12.539062 17.984375 -12.6875 C 18.285156 -12.832031 18.566406 -12.675781 18.828125 -12.21875 L 18.828125 -12.171875 C 18.859375 -12.140625 18.875 -12.140625 18.875 -12.171875 Z M 6.65625 -11.625 C 6.519531 -11.394531 6.410156 -11.140625 6.328125 -10.859375 C 6.242188 -10.585938 6.140625 -10.316406 6.015625 -10.046875 C 7.617188 -10.898438 9 -12.003906 10.15625 -13.359375 L 10.984375 -14.4375 C 11.054688 -14.570312 11.148438 -14.6875 11.265625 -14.78125 C 11.378906 -14.882812 11.453125 -15 11.484375 -15.125 C 11.515625 -15.257812 11.515625 -15.382812 11.484375 -15.5 C 11.453125 -15.613281 11.453125 -15.738281 11.484375 -15.875 L 11.671875 -16.90625 C 11.710938 -17.164062 11.664062 -17.515625 11.53125 -17.953125 C 11.394531 -18.398438 11.148438 -18.59375 10.796875 -18.53125 C 10.628906 -18.5 10.460938 -18.390625 10.296875 -18.203125 C 10.128906 -18.023438 10 -17.867188 9.90625 -17.734375 L 9.015625 -16.5625 C 8.492188 -15.800781 8.066406 -15.007812 7.734375 -14.1875 C 7.410156 -13.375 7.066406 -12.570312 6.703125 -11.78125 C 6.703125 -11.78125 6.703125 -11.769531 6.703125 -11.75 C 6.703125 -11.738281 6.6875 -11.695312 6.65625 -11.625 Z M 6.65625 -11.625 "/></g></g></g><g fill="#ffffff" fill-opacity="1"><g transform="translate(160.21625, 175.383646)"><g><path d="M 19.5625 -11.578125 L 19.5625 -11.53125 C 19.625 -11.007812 19.453125 -10.515625 19.046875 -10.046875 C 18.640625 -9.585938 18.164062 -9.1875 17.625 -8.84375 C 17.082031 -8.5 16.628906 -8.195312 16.265625 -7.9375 C 15.535156 -7.40625 14.8125 -6.898438 14.09375 -6.421875 C 13.375 -5.953125 12.617188 -5.503906 11.828125 -5.078125 C 11.628906 -4.972656 11.398438 -4.867188 11.140625 -4.765625 C 10.878906 -4.671875 10.648438 -4.546875 10.453125 -4.390625 C 10.179688 -4.160156 10.046875 -4.003906 10.046875 -3.921875 C 10.046875 -3.835938 10.066406 -3.597656 10.109375 -3.203125 C 10.171875 -2.773438 10.222656 -2.332031 10.265625 -1.875 C 10.316406 -1.414062 10.34375 -0.957031 10.34375 -0.5 C 10.375 0.195312 10.347656 0.890625 10.265625 1.578125 C 10.191406 2.265625 10.019531 2.9375 9.75 3.59375 C 9.164062 5.101562 8.289062 6.3125 7.125 7.21875 C 5.957031 8.125 4.519531 8.5625 2.8125 8.53125 C 1.789062 8.488281 0.820312 8.296875 -0.09375 7.953125 C -1.019531 7.609375 -1.742188 7.070312 -2.265625 6.34375 C -2.796875 5.625 -2.960938 4.722656 -2.765625 3.640625 C -2.796875 3.679688 -2.832031 3.847656 -2.875 4.140625 C -2.925781 4.429688 -2.96875 4.5625 -3 4.53125 C -3.164062 4.4375 -3.195312 4.191406 -3.09375 3.796875 C -3 3.398438 -2.9375 3.132812 -2.90625 3 C -2.613281 2.082031 -2.113281 1.257812 -1.40625 0.53125 C -0.695312 -0.1875 0.015625 -0.820312 0.734375 -1.375 C 1.160156 -1.707031 1.578125 -2.03125 1.984375 -2.34375 C 2.398438 -2.65625 2.820312 -2.941406 3.25 -3.203125 C 3.582031 -3.398438 4.023438 -3.644531 4.578125 -3.9375 C 5.140625 -4.238281 5.4375 -4.550781 5.46875 -4.875 C 5.53125 -5.238281 5.453125 -5.722656 5.234375 -6.328125 C 5.023438 -6.941406 4.875 -7.425781 4.78125 -7.78125 C 4.675781 -8.238281 4.554688 -8.710938 4.421875 -9.203125 C 4.296875 -9.703125 4.203125 -10.195312 4.140625 -10.6875 C 4.109375 -11.019531 4.113281 -11.300781 4.15625 -11.53125 C 4.207031 -11.757812 4.203125 -12.023438 4.140625 -12.328125 C 4.003906 -12.710938 3.882812 -13.09375 3.78125 -13.46875 C 3.6875 -13.851562 3.625 -14.257812 3.59375 -14.6875 C 3.5625 -15.113281 3.5625 -15.53125 3.59375 -15.9375 C 3.625 -16.351562 3.707031 -16.757812 3.84375 -17.15625 C 3.9375 -17.445312 4.148438 -17.804688 4.484375 -18.234375 C 4.816406 -18.660156 5.203125 -19.046875 5.640625 -19.390625 C 6.085938 -19.734375 6.539062 -19.960938 7 -20.078125 C 7.457031 -20.191406 7.851562 -20.101562 8.1875 -19.8125 C 8.1875 -19.945312 8.289062 -19.859375 8.5 -19.546875 C 8.71875 -19.234375 8.84375 -18.992188 8.875 -18.828125 C 8.875 -18.765625 8.851562 -18.566406 8.8125 -18.234375 C 8.78125 -17.898438 8.722656 -17.585938 8.640625 -17.296875 C 8.566406 -17.003906 8.476562 -16.859375 8.375 -16.859375 C 8.375 -16.859375 8.390625 -16.945312 8.421875 -17.125 C 8.453125 -17.300781 8.488281 -17.472656 8.53125 -17.640625 C 8.394531 -17.316406 8.253906 -16.976562 8.109375 -16.625 C 7.960938 -16.28125 7.867188 -15.929688 7.828125 -15.578125 C 7.796875 -15.242188 7.804688 -14.90625 7.859375 -14.5625 C 7.910156 -14.21875 7.953125 -13.898438 7.984375 -13.609375 C 7.984375 -13.734375 8.015625 -13.8125 8.078125 -13.84375 C 8.078125 -13.84375 8.117188 -13.601562 8.203125 -13.125 C 8.285156 -12.65625 8.410156 -12.054688 8.578125 -11.328125 C 8.742188 -10.609375 8.890625 -9.90625 9.015625 -9.21875 C 8.847656 -9.875 8.664062 -10.5625 8.46875 -11.28125 C 8.28125 -12.007812 8.132812 -12.601562 8.03125 -13.0625 C 8.226562 -11.976562 8.445312 -10.898438 8.6875 -9.828125 C 8.9375 -8.765625 9.175781 -7.707031 9.40625 -6.65625 C 9.476562 -6.71875 9.5 -6.847656 9.46875 -7.046875 C 9.53125 -6.847656 9.5625 -6.75 9.5625 -6.75 C 10.644531 -7.3125 11.695312 -7.863281 12.71875 -8.40625 C 13.738281 -8.945312 14.753906 -9.53125 15.765625 -10.15625 C 16.222656 -10.445312 16.679688 -10.796875 17.140625 -11.203125 C 17.609375 -11.617188 18.070312 -11.941406 18.53125 -12.171875 C 19.09375 -12.398438 19.4375 -12.203125 19.5625 -11.578125 Z M -0.34375 5.375 C 0.0195312 5.5 0.390625 5.535156 0.765625 5.484375 C 1.140625 5.441406 1.492188 5.390625 1.828125 5.328125 L 3.203125 4.78125 C 3.234375 4.8125 3.175781 4.875 3.03125 4.96875 C 2.882812 5.070312 2.8125 5.140625 2.8125 5.171875 C 3.363281 4.847656 3.875 4.40625 4.34375 3.84375 L 4.09375 4.046875 C 4.21875 3.910156 4.382812 3.644531 4.59375 3.25 C 4.8125 2.851562 5.007812 2.472656 5.1875 2.109375 C 5.375 1.753906 5.46875 1.546875 5.46875 1.484375 C 5.632812 0.890625 5.734375 0.296875 5.765625 -0.296875 C 5.796875 -0.890625 5.796875 -1.476562 5.765625 -2.0625 C 5.734375 -2.03125 5.679688 -2 5.609375 -1.96875 C 5.546875 -1.9375 5.484375 -1.90625 5.421875 -1.875 L 5.765625 -2.171875 L 5.171875 -1.828125 C 5.335938 -1.890625 5.265625 -1.796875 4.953125 -1.546875 C 4.640625 -1.304688 4.453125 -1.148438 4.390625 -1.078125 L 2.90625 -0.09375 C 2.414062 0.226562 1.914062 0.585938 1.40625 0.984375 C 0.894531 1.378906 0.457031 1.820312 0.09375 2.3125 C -0.03125 2.507812 -0.21875 2.828125 -0.46875 3.265625 C -0.71875 3.710938 -0.863281 4.140625 -0.90625 4.546875 C -0.957031 4.960938 -0.769531 5.238281 -0.34375 5.375 Z M 5.859375 6.796875 C 6.515625 6.503906 7.03125 6.144531 7.40625 5.71875 C 7.789062 5.289062 8.113281 4.8125 8.375 4.28125 C 7.65625 5.300781 6.71875 6.097656 5.5625 6.671875 C 4.414062 7.253906 3.234375 7.578125 2.015625 7.640625 C 3.367188 7.578125 4.648438 7.296875 5.859375 6.796875 Z M 9.46875 -7.1875 C 9.425781 -7.351562 9.378906 -7.5625 9.328125 -7.8125 C 9.285156 -8.0625 9.234375 -8.316406 9.171875 -8.578125 C 9.296875 -8.078125 9.394531 -7.613281 9.46875 -7.1875 Z M 10.109375 -2.0625 C 10.109375 -2.101562 10.097656 -2.144531 10.078125 -2.1875 C 10.054688 -2.238281 10.046875 -2.28125 10.046875 -2.3125 C 10.046875 -2.1875 10.066406 -2.101562 10.109375 -2.0625 Z M 10.109375 -2.0625 "/></g></g></g></svg>