<svg xmlns="http://www.w3.org/2000/svg" xmlns:xlink="http://www.w3.org/1999/xlink" width="1500" zoomAndPan="magnify" viewBox="0 0 1125 1124.99995" height="1500" preserveAspectRatio="xMidYMid meet" version="1.0"><defs><clipPath id="37ab9ee351"><path d="M 6.109375 0 L 1118.773438 0 L 1118.773438 1125 L 6.109375 1125 Z M 6.109375 0 " clip-rule="nonzero"/></clipPath></defs><g clip-path="url(#37ab9ee351)"><path fill="#ffffff" d="M 700.394531 598.996094 C 695.171875 616.453125 669.140625 627.128906 658.191406 630.902344 C 623.105469 643.007812 584.535156 646.679688 546.675781 641.539062 C 527.503906 638.933594 508.769531 634.113281 490.992188 627.203125 C 484.183594 624.558594 477.042969 622.660156 470.121094 620.824219 C 469.128906 620.558594 468.140625 620.292969 467.148438 620.023438 C 465.402344 619.519531 463.640625 619.035156 461.84375 618.566406 C 445.597656 613.921875 431.058594 607.816406 423.800781 590.214844 C 422.488281 587.03125 421.84375 584.101562 421.890625 581.503906 C 422.046875 572.867188 429.738281 568.058594 438.648438 562.488281 C 441.355469 560.796875 444.164062 559.046875 446.789062 557.136719 C 447.773438 556.410156 448.773438 555.695312 449.765625 554.96875 C 451.359375 553.933594 452.949219 552.886719 454.535156 551.847656 C 457.785156 549.730469 461.027344 547.609375 464.265625 545.527344 C 480.007812 535.375 494.753906 527.546875 508.964844 521.882812 C 515.921875 519.550781 523.042969 517.667969 530.265625 516.246094 C 507.328125 522.855469 493.472656 537.722656 498.242188 580.933594 C 502.457031 619.171875 539.828125 646.421875 581.710938 641.804688 C 623.589844 637.179688 654.117188 602.441406 649.894531 564.203125 C 648.453125 551.132812 642.964844 540.203125 634.695312 531.648438 C 637.007812 535.832031 638.652344 540.871094 639.257812 546.425781 C 641 562.175781 633.898438 575.878906 623.398438 577.035156 C 612.898438 578.191406 602.976562 566.371094 601.242188 550.621094 C 599.734375 536.945312 604.894531 524.828125 613.144531 521.113281 C 620.140625 523.597656 627.105469 526.71875 634.007812 530.464844 C 642.230469 534.914062 650.382812 540.238281 658.421875 546.425781 L 659.476562 547.234375 C 672.015625 556.878906 705.324219 582.476562 700.394531 598.996094 Z M 417.410156 612.984375 C 415.683594 613.097656 413.941406 613.269531 412.179688 613.445312 C 405.550781 614.113281 398.707031 614.804688 393.078125 611.765625 C 391.328125 610.828125 390.058594 609.679688 389.308594 608.378906 C 387.644531 605.503906 388.480469 601.933594 389.820312 599.546875 C 391.371094 596.769531 393.824219 594.59375 396.621094 592.242188 C 403.652344 586.332031 410.96875 580.613281 418.421875 575.171875 C 417.675781 577.070312 417.226562 579.136719 417.191406 581.421875 C 417.125 584.707031 417.871094 588.167969 419.457031 592.011719 C 423.734375 602.375 430.324219 609.113281 438.089844 613.902344 C 430.765625 612.96875 423.679688 612.582031 417.410156 612.984375 Z M 572 548.40625 C 582.492188 547.242188 591.945312 554.824219 593.101562 565.3125 C 594.257812 575.8125 586.695312 585.265625 576.195312 586.425781 C 565.695312 587.582031 556.242188 580.007812 555.085938 569.507812 C 553.925781 559.007812 561.5 549.5625 572 548.40625 Z M 741.988281 594.839844 C 731.5 596.851562 719.144531 592.839844 708.113281 583.863281 C 701.523438 578.492188 695.75 571.914062 690.167969 565.542969 C 687.398438 562.386719 684.535156 559.109375 681.578125 556 C 655.246094 528.261719 617.84375 510.207031 578.976562 506.464844 C 551.945312 503.867188 527.632812 509.253906 506.355469 517.796875 C 497.167969 520.945312 488.257812 524.847656 479.804688 529.507812 C 468.324219 535.832031 457.539062 543.507812 447.101562 551.085938 C 423.742188 566.304688 399.503906 581.359375 372.417969 587.066406 C 371.152344 587.339844 370.34375 588.582031 370.609375 589.855469 C 370.878906 591.125 372.117188 591.941406 373.390625 591.664062 C 386.269531 588.957031 398.441406 584.230469 410.152344 578.421875 C 405.039062 582.320312 400 586.332031 395.109375 590.445312 C 392.125 592.949219 389.519531 595.273438 387.773438 598.402344 C 385.664062 602.15625 385.472656 606.433594 387.269531 609.554688 C 388.25 611.242188 389.832031 612.683594 391.96875 613.839844 C 398.226562 617.214844 405.441406 616.492188 412.417969 615.785156 C 414.144531 615.609375 415.867188 615.4375 417.558594 615.324219 C 425.46875 614.8125 434.703125 615.582031 444.054688 617.144531 C 451.847656 620.816406 460.4375 623.109375 468.917969 625.367188 C 475.703125 627.164062 482.722656 629.039062 489.285156 631.589844 C 507.414062 638.628906 526.503906 643.539062 546.042969 646.191406 C 557.359375 647.734375 568.75 648.496094 580.085938 648.496094 C 607.390625 648.496094 634.449219 644.0625 659.726562 635.34375 C 671.363281 631.332031 699.054688 619.886719 704.890625 600.347656 C 706.257812 595.757812 705.441406 590.820312 703.21875 585.808594 C 703.871094 586.367188 704.488281 586.964844 705.148438 587.496094 C 711.289062 592.5 722.816406 600.082031 736.300781 600.082031 C 738.4375 600.082031 740.632812 599.886719 742.871094 599.464844 C 744.136719 599.21875 744.980469 597.988281 744.734375 596.710938 C 744.496094 595.4375 743.265625 594.609375 741.988281 594.839844 Z M 711.023438 542.679688 C 720.871094 557.960938 729.019531 574.371094 735.226562 591.472656 C 735.453125 592.078125 735.132812 592.757812 734.527344 592.976562 C 734.398438 593.023438 734.261719 593.050781 734.125 593.050781 C 733.644531 593.050781 733.195312 592.746094 733.023438 592.269531 C 726.863281 575.347656 718.796875 559.089844 709.046875 543.945312 C 708.691406 543.40625 708.855469 542.679688 709.398438 542.324219 C 709.9375 541.972656 710.664062 542.128906 711.023438 542.679688 Z M 525.660156 498.027344 C 526.300781 497.925781 526.898438 498.367188 527 499.011719 C 527.101562 499.652344 526.660156 500.25 526.015625 500.351562 C 486.863281 506.289062 449.765625 524.882812 421.578125 552.695312 C 421.347656 552.921875 421.046875 553.035156 420.75 553.035156 C 420.449219 553.035156 420.144531 552.914062 419.917969 552.683594 C 419.457031 552.226562 419.46875 551.480469 419.925781 551.023438 C 448.46875 522.863281 486.019531 504.039062 525.660156 498.027344 Z M 525.042969 653.957031 C 524.402344 653.835938 523.980469 653.230469 524.089844 652.589844 C 524.207031 651.957031 524.824219 651.523438 525.457031 651.644531 C 562.65625 658.371094 595.414062 659.042969 625.601562 653.671875 C 660.972656 647.386719 691.867188 632.609375 714.949219 610.9375 C 715.425781 610.5 716.171875 610.515625 716.613281 610.992188 C 717.050781 611.460938 717.035156 612.207031 716.554688 612.65625 C 693.144531 634.628906 661.835938 649.617188 626.011719 655.984375 C 612.464844 658.398438 598.394531 659.601562 583.664062 659.601562 C 565.28125 659.601562 545.851562 657.71875 525.042969 653.957031 Z M 500.851562 462.984375 C 530.632812 451.046875 562.015625 449.660156 589.207031 459.085938 C 589.824219 459.296875 590.144531 459.964844 589.933594 460.582031 C 589.722656 461.195312 589.054688 461.515625 588.4375 461.304688 C 561.785156 452.0625 530.980469 453.441406 501.722656 465.160156 C 487.910156 470.703125 474.589844 478.433594 461.859375 488.246094 C 484.777344 475.597656 511.679688 467.878906 540.1875 466.253906 C 579.105469 464.050781 621.976562 472.632812 667.609375 491.757812 C 668.8125 492.265625 669.371094 493.640625 668.867188 494.835938 C 668.371094 496.027344 666.996094 496.597656 665.792969 496.09375 C 620.820312 477.238281 578.644531 468.769531 540.453125 470.953125 C 498.335938 473.339844 459.824219 489.300781 433.167969 515.042969 C 432.40625 515.898438 431.636719 516.742188 430.875 517.605469 C 430.710938 517.796875 430.480469 517.898438 430.25 517.953125 C 428.964844 519.277344 427.671875 520.597656 426.453125 521.964844 C 425.984375 522.488281 425.339844 522.753906 424.699219 522.753906 C 424.136719 522.753906 423.578125 522.550781 423.128906 522.15625 C 422.164062 521.285156 422.074219 519.800781 422.945312 518.835938 C 430.214844 510.703125 438.585938 503.40625 447.789062 496.980469 C 464.402344 481.882812 482.171875 470.464844 500.851562 462.984375 Z M 543.179688 678.792969 C 510.074219 672.597656 477.847656 659.636719 450.242188 647.980469 C 449.644531 647.726562 449.371094 647.035156 449.617188 646.441406 C 449.875 645.84375 450.5625 645.566406 451.160156 645.816406 C 478.648438 657.425781 510.734375 670.332031 543.613281 676.480469 C 578.863281 683.078125 611.988281 681.042969 639.40625 670.589844 C 640.011719 670.359375 640.6875 670.660156 640.929688 671.265625 C 641.15625 671.875 640.855469 672.550781 640.25 672.789062 C 623.09375 679.324219 603.746094 682.621094 583.070312 682.621094 C 570.21875 682.621094 556.855469 681.355469 543.179688 678.792969 Z M 400.898438 541.644531 C 401.414062 542.046875 401.515625 542.78125 401.121094 543.296875 C 391.8125 555.382812 381.789062 567.148438 371.316406 578.246094 C 371.089844 578.492188 370.777344 578.621094 370.464844 578.621094 C 370.171875 578.621094 369.875 578.511719 369.65625 578.300781 C 369.179688 577.851562 369.160156 577.109375 369.601562 576.640625 C 380.027344 565.589844 390.003906 553.886719 399.257812 541.863281 C 399.652344 541.351562 400.386719 541.25 400.898438 541.644531 Z M 698.613281 516.414062 C 715.675781 533.050781 729.808594 553.429688 739.503906 575.347656 C 739.769531 575.933594 739.503906 576.628906 738.90625 576.898438 C 738.75 576.960938 738.585938 576.996094 738.429688 576.996094 C 737.980469 576.996094 737.546875 576.730469 737.355469 576.292969 C 727.78125 554.65625 713.820312 534.53125 696.96875 518.09375 C 696.511719 517.640625 696.492188 516.890625 696.953125 516.429688 C 697.410156 515.960938 698.144531 515.953125 698.613281 516.414062 Z M 766.054688 456.183594 C 776.703125 479.039062 783.621094 503.316406 786.632812 528.34375 C 786.714844 528.988281 786.257812 529.574219 785.613281 529.648438 C 785.558594 529.65625 785.511719 529.65625 785.464844 529.65625 C 784.878906 529.65625 784.375 529.214844 784.300781 528.621094 C 781.316406 503.839844 774.460938 479.800781 763.925781 457.175781 C 763.648438 456.589844 763.90625 455.890625 764.496094 455.617188 C 765.089844 455.339844 765.789062 455.597656 766.054688 456.183594 Z M 677.082031 362.492188 C 677.347656 361.90625 678.042969 361.640625 678.632812 361.90625 C 701.898438 372.40625 722.21875 390.074219 735.859375 411.644531 C 736.207031 412.195312 736.042969 412.917969 735.492188 413.269531 C 735.296875 413.386719 735.078125 413.449219 734.867188 413.449219 C 734.472656 413.449219 734.097656 413.257812 733.867188 412.902344 C 720.476562 391.71875 700.511719 374.359375 677.667969 364.042969 C 677.082031 363.777344 676.816406 363.082031 677.082031 362.492188 Z M 741.027344 725.328125 C 741.53125 725.738281 741.605469 726.484375 741.191406 726.980469 C 711.113281 763.574219 667.1875 789.703125 620.679688 798.679688 C 620.609375 798.699219 620.523438 798.707031 620.460938 798.707031 C 619.902344 798.707031 619.414062 798.3125 619.304688 797.753906 C 619.183594 797.117188 619.597656 796.496094 620.230469 796.375 C 666.214844 787.5 709.636719 761.664062 739.375 725.492188 C 739.785156 724.988281 740.519531 724.914062 741.027344 725.328125 Z M 691.601562 762.472656 C 651.28125 785.25 604.519531 797.183594 557.992188 797.183594 C 540.546875 797.183594 523.136719 795.503906 506.109375 792.097656 C 505.464844 791.96875 505.054688 791.355469 505.183594 790.710938 C 505.3125 790.078125 505.933594 789.65625 506.566406 789.792969 C 568.464844 802.183594 635.484375 791.484375 690.453125 760.425781 C 691.011719 760.101562 691.730469 760.304688 692.050781 760.863281 C 692.371094 761.433594 692.171875 762.148438 691.601562 762.472656 Z M 380.9375 709.539062 C 381.339844 710.046875 381.257812 710.789062 380.742188 711.183594 C 380.53125 711.359375 380.277344 711.441406 380.019531 711.441406 C 379.671875 711.441406 379.332031 711.285156 379.101562 710.992188 C 346.058594 669.21875 329.226562 614.785156 332.933594 561.652344 C 332.980469 561.007812 333.550781 560.53125 334.183594 560.570312 C 334.835938 560.613281 335.320312 561.175781 335.273438 561.816406 C 331.613281 614.371094 348.253906 668.21875 380.9375 709.539062 Z M 330.464844 608.058594 C 330.574219 608.699219 330.144531 609.304688 329.511719 609.414062 C 329.4375 609.425781 329.375 609.433594 329.308594 609.433594 C 328.75 609.433594 328.253906 609.03125 328.152344 608.453125 C 316.394531 538.992188 330.273438 473.511719 366.222656 428.796875 C 401.78125 384.578125 450.542969 352.894531 503.519531 339.601562 C 504.152344 339.457031 504.789062 339.832031 504.953125 340.457031 C 505.109375 341.089844 504.722656 341.722656 504.097656 341.886719 C 451.609375 355.050781 403.292969 386.449219 368.050781 430.273438 C 332.523438 474.46875 318.828125 539.265625 330.464844 608.058594 Z M 248.824219 461.296875 C 249.15625 460.738281 249.871094 460.554688 250.429688 460.882812 C 262.117188 467.804688 276.011719 471.070312 289.558594 470.097656 C 290.210938 470.054688 290.769531 470.539062 290.816406 471.191406 C 290.863281 471.832031 290.375 472.402344 289.734375 472.449219 C 288.109375 472.558594 286.472656 472.625 284.839844 472.625 C 272.402344 472.625 259.929688 469.238281 249.238281 462.902344 C 248.679688 462.574219 248.496094 461.855469 248.824219 461.296875 Z M 250.6875 745.601562 C 250.925781 746.207031 250.625 746.886719 250.027344 747.125 C 235.269531 752.890625 222.164062 762.417969 212.132812 774.667969 C 211.902344 774.953125 211.5625 775.101562 211.222656 775.101562 C 210.957031 775.101562 210.699219 775.007812 210.480469 774.835938 C 209.972656 774.421875 209.902344 773.679688 210.3125 773.183594 C 220.601562 760.617188 234.039062 750.84375 249.164062 744.933594 C 249.769531 744.691406 250.449219 744.996094 250.6875 745.601562 Z M 945.25 512.390625 C 945.460938 513.667969 944.589844 514.878906 943.304688 515.089844 C 909.738281 520.589844 877.515625 527.234375 847.546875 534.832031 C 847.355469 534.878906 847.152344 534.90625 846.960938 534.90625 C 845.914062 534.90625 844.960938 534.199219 844.695312 533.136719 C 844.371094 531.878906 845.132812 530.59375 846.390625 530.28125 C 876.496094 522.644531 908.847656 515.972656 942.550781 510.457031 C 943.847656 510.253906 945.039062 511.117188 945.25 512.390625 Z M 1098.527344 499.902344 C 992.875 543.128906 934.292969 567.09375 816.515625 596.089844 C 817.765625 561.855469 813.515625 525.433594 803.859375 490.953125 C 803.144531 488.390625 802.390625 485.859375 801.601562 483.34375 C 913.042969 476.195312 985.101562 480.71875 1090.632812 494.128906 C 1055.773438 496.238281 1021.152344 499.488281 987.398438 503.875 C 986.113281 504.050781 985.203125 505.222656 985.367188 506.507812 C 985.523438 507.691406 986.535156 508.554688 987.699219 508.554688 C 987.800781 508.554688 987.902344 508.554688 988.003906 508.539062 C 1025.496094 503.664062 1064.0625 500.175781 1102.832031 498.136719 Z M 930.160156 639.851562 C 931.886719 642.054688 933.546875 644.320312 935.210938 646.578125 C 939.347656 652.222656 943.636719 658.058594 948.929688 662.960938 C 957.539062 670.925781 968.683594 676.148438 980.300781 677.683594 C 988.625 678.773438 997.015625 678.003906 1005.128906 677.261719 C 1009.074219 676.894531 1013.152344 676.527344 1017.125 676.371094 C 1031.691406 675.839844 1042.519531 679.050781 1049.304688 685.941406 C 1054.699219 691.414062 1057.214844 698.472656 1058.71875 706.171875 C 1051.910156 698.085938 1042.605469 691.882812 1031.949219 688.585938 C 1018.492188 684.4375 1003.191406 684.96875 988.863281 690.082031 C 984.597656 691.617188 980.382812 693.535156 976.300781 695.398438 C 967.03125 699.628906 958.265625 703.59375 948.765625 703.398438 C 932.0625 703.003906 918.597656 689.652344 906.234375 676.011719 C 893.789062 662.273438 878.9375 647.597656 860.140625 647.429688 C 860.132812 647.429688 860.132812 647.429688 860.121094 647.429688 C 858.835938 647.429688 857.78125 648.46875 857.773438 649.761719 C 857.761719 651.058594 858.800781 652.121094 860.105469 652.128906 C 876.992188 652.277344 890.4375 665.566406 902.753906 679.167969 C 915.796875 693.570312 930.085938 707.660156 948.65625 708.097656 C 959.230469 708.347656 968.902344 703.941406 978.253906 699.675781 C 980.382812 698.699219 982.550781 697.71875 984.726562 696.78125 C 979.097656 702.445312 973.171875 706.785156 967.03125 709.707031 C 957.171875 714.40625 946.277344 715.480469 937.15625 712.671875 C 925.726562 709.164062 917.007812 700.050781 908.574219 691.230469 L 906.039062 688.605469 C 893.171875 675.277344 882.332031 666.667969 870.886719 660.675781 C 856.277344 653.03125 840.664062 650.25 826.933594 652.835938 C 826.292969 652.957031 825.878906 653.570312 825.996094 654.214844 C 826.117188 654.847656 826.742188 655.269531 827.363281 655.148438 C 840.574219 652.652344 855.652344 655.351562 869.804688 662.757812 C 881.011719 668.625 891.667969 677.105469 904.359375 690.230469 L 906.875 692.863281 C 915.523438 701.894531 924.453125 711.230469 936.457031 714.917969 C 940.019531 716.011719 943.828125 716.550781 947.726562 716.550781 C 954.457031 716.550781 961.476562 714.957031 968.039062 711.824219 C 975.722656 708.171875 983.054688 702.425781 989.894531 694.726562 C 990.078125 694.652344 990.261719 694.578125 990.445312 694.515625 C 1003.46875 689.851562 1017.308594 689.292969 1029.5625 692.816406 C 1022.980469 692.15625 1016.242188 692.957031 1010.039062 695.257812 C 1002.089844 698.195312 995.253906 703.382812 988.636719 708.382812 C 986.222656 710.21875 983.726562 712.109375 981.21875 713.855469 C 969.636719 721.921875 959.246094 724.894531 950.351562 722.664062 C 949.71875 722.519531 949.085938 722.894531 948.929688 723.527344 C 948.773438 724.152344 949.152344 724.792969 949.785156 724.949219 C 951.875 725.472656 954.042969 725.730469 956.273438 725.730469 C 964.238281 725.730469 973.058594 722.398438 982.558594 715.78125 C 985.101562 714.011719 987.625 712.101562 990.058594 710.265625 C 996.539062 705.355469 1003.238281 700.28125 1010.855469 697.460938 C 1020.375 693.9375 1031.222656 694.101562 1040.621094 697.929688 C 1040.933594 698.058594 1041.253906 698.039062 1041.539062 697.910156 C 1045.117188 699.96875 1048.402344 702.410156 1051.332031 705.191406 C 1044.199219 701.902344 1035.984375 700.335938 1027.558594 700.894531 C 1015.417969 701.703125 1002.824219 706.6875 991.152344 715.3125 C 989.371094 716.636719 987.625 718.019531 985.871094 719.40625 C 980.734375 723.5 975.867188 727.355469 970.105469 729.53125 C 952.8125 736.066406 934.898438 724.8125 928.003906 719.664062 C 921.910156 715.128906 916.265625 709.742188 910.804688 704.527344 C 904.976562 698.976562 898.957031 693.230469 892.28125 688.375 C 891.207031 687.59375 890.117188 686.84375 889.015625 686.109375 C 888.949219 686.015625 888.886719 685.914062 888.785156 685.84375 C 878.011719 677.390625 863.445312 667.164062 846.289062 663.136719 C 830.511719 659.4375 814.9375 661.953125 803.601562 669.796875 C 806.15625 662.320312 808.367188 654.71875 810.128906 647 C 813.433594 632.480469 815.496094 616.996094 816.332031 600.972656 C 829.199219 597.8125 841.351562 594.710938 852.945312 591.644531 C 883.058594 598.0625 911.179688 615.609375 930.160156 639.851562 Z M 827.144531 670.890625 C 818.207031 671.835938 806.742188 677.445312 798.113281 684.363281 C 799.574219 680.859375 800.976562 677.335938 802.261719 673.773438 C 813.167969 664.703125 829.328125 661.574219 845.75 665.421875 C 856.167969 667.871094 865.648438 672.699219 873.871094 677.996094 C 859.203125 671.78125 842.949219 669.230469 827.144531 670.890625 Z M 960.328125 919.960938 C 902.257812 860.238281 851.898438 816.523438 802.65625 783.03125 C 801.582031 782.296875 800.125 782.570312 799.390625 783.644531 C 798.664062 784.71875 798.941406 786.179688 800.015625 786.914062 C 848.722656 820.035156 898.5625 863.257812 956.015625 922.253906 C 930.382812 908.019531 907.710938 895.988281 885.71875 884.3125 C 830.0625 854.765625 781.859375 829.167969 718.519531 784.085938 C 723.726562 780.414062 728.773438 776.523438 733.65625 772.410156 C 755.390625 754.109375 773.535156 731.789062 787.203125 707 C 799.226562 719.269531 810.898438 730.796875 822.199219 741.941406 C 874.46875 793.492188 919.953125 838.382812 960.328125 919.960938 Z M 766.707031 911.453125 C 770.449219 916.140625 774.324219 921.007812 777.589844 926.027344 C 793.460938 950.433594 796.753906 981.308594 787.238281 1007.097656 C 789.503906 979.195312 779.703125 953.636719 759.539062 936.683594 C 755.097656 932.949219 750.15625 929.617188 745.386719 926.394531 C 734.96875 919.371094 725.136719 912.726562 719.953125 902.246094 C 717.171875 896.609375 716.035156 890.386719 714.839844 883.796875 C 713.601562 876.953125 712.316406 869.882812 709.003906 863.496094 C 708.414062 862.347656 706.992188 861.890625 705.835938 862.484375 C 704.6875 863.082031 704.238281 864.503906 704.835938 865.660156 C 707.820312 871.417969 708.984375 877.832031 710.214844 884.632812 C 711.417969 891.25 712.664062 898.097656 715.738281 904.328125 C 721.476562 915.929688 732.296875 923.226562 742.761719 930.296875 C 747.433594 933.441406 752.269531 936.710938 756.519531 940.28125 C 776.039062 956.691406 785.253906 981.777344 782.355469 1009.089844 C 781.96875 1007.742188 781.546875 1006.402344 781.078125 1005.078125 C 778.566406 980.746094 765.679688 957.433594 746.347656 942.464844 C 743.871094 940.546875 741.273438 938.738281 738.757812 936.984375 C 735.582031 934.78125 732.296875 932.496094 729.285156 930.011719 C 716.648438 919.527344 707.863281 904.238281 705.203125 888.039062 C 705.09375 887.394531 704.496094 886.957031 703.855469 887.066406 C 703.210938 887.175781 702.78125 887.78125 702.882812 888.414062 C 705.644531 905.164062 714.722656 920.988281 727.789062 931.820312 C 730.875 934.371094 734.195312 936.683594 737.410156 938.914062 C 739.90625 940.648438 742.484375 942.4375 744.90625 944.320312 C 761.390625 957.09375 773.058594 976.085938 777.363281 996.515625 C 771.734375 985.53125 763.246094 975.992188 752.792969 969.441406 C 748.726562 966.898438 744.414062 964.8125 740.015625 962.980469 C 739.898438 962.710938 739.695312 962.484375 739.402344 962.363281 C 719.28125 953.902344 702.808594 937.546875 694.207031 917.480469 C 693.949219 916.886719 693.261719 916.601562 692.664062 916.867188 C 692.070312 917.125 691.792969 917.8125 692.050781 918.410156 C 698.933594 934.480469 710.757812 948.210938 725.414062 957.617188 C 724.816406 957.417969 724.230469 957.214844 723.632812 957.011719 C 719.84375 955.738281 715.914062 954.425781 712.132812 953 C 708.984375 951.816406 706.046875 950.570312 703.320312 949.257812 C 700.640625 946.777344 698.171875 943.925781 696.035156 940.703125 C 686.921875 926.980469 683.367188 908.917969 680.230469 892.984375 L 679.722656 890.378906 C 677.308594 878.179688 674.824219 865.5625 669.507812 854.089844 C 663.460938 841.046875 653.980469 829.886719 642.074219 821.816406 C 642.039062 821.800781 642.011719 821.800781 641.984375 821.78125 C 642.03125 820.992188 642.085938 820.230469 642.128906 819.429688 C 647.738281 817.992188 653.28125 816.320312 658.761719 814.464844 C 658.808594 814.757812 658.964844 815.035156 659.21875 815.21875 C 674.824219 826.882812 680.726562 847.214844 684.433594 865.570312 C 684.875 867.726562 685.296875 869.894531 685.71875 872.078125 C 689.058594 889.214844 692.519531 906.9375 703.035156 920.996094 C 712.316406 933.40625 726.136719 941.546875 738.34375 948.734375 C 738.527344 948.84375 738.742188 948.898438 738.941406 948.898438 C 739.347656 948.898438 739.730469 948.6875 739.953125 948.320312 C 740.28125 947.761719 740.097656 947.035156 739.539062 946.707031 C 727.523438 939.636719 713.914062 931.625 704.917969 919.59375 C 694.722656 905.964844 691.316406 888.507812 688.03125 871.628906 C 687.597656 869.445312 687.175781 867.269531 686.738281 865.101562 C 682.972656 846.496094 676.972656 825.882812 661.074219 813.703125 C 664.488281 812.511719 667.867188 811.207031 671.226562 809.859375 C 671.355469 810.003906 671.511719 810.144531 671.710938 810.214844 C 673.8125 810.949219 675.464844 812.878906 676.84375 814.613281 C 687.792969 828.445312 694.859375 845 697.28125 862.476562 C 697.355469 863.066406 697.859375 863.488281 698.4375 863.488281 C 698.492188 863.488281 698.550781 863.488281 698.605469 863.476562 C 699.246094 863.386719 699.695312 862.796875 699.605469 862.15625 C 697.125 844.257812 689.894531 827.316406 678.679688 813.152344 C 677.402344 811.546875 675.886719 809.832031 673.953125 808.710938 C 688.09375 802.800781 701.652344 795.503906 714.371094 786.902344 C 717.804688 789.355469 721.210938 791.769531 724.558594 794.109375 C 730.710938 803.03125 735.820312 813.628906 739.300781 824.285156 L 742.496094 836.273438 C 743.101562 839.21875 743.558594 842.109375 743.851562 844.929688 C 744.230469 848.601562 744.414062 852.390625 744.597656 856.0625 C 745.007812 864.347656 745.429688 872.921875 748.019531 881.070312 C 751.699219 892.65625 759.328125 902.210938 766.707031 911.453125 Z M 679.257812 928.671875 C 674.492188 919.894531 673.738281 909.863281 672.949219 899.253906 C 672.519531 893.574219 672.078125 887.699219 670.96875 882.015625 C 667.363281 863.652344 656.429688 847.074219 640.964844 836.53125 C 641.269531 832.566406 641.542969 828.5625 641.800781 824.523438 C 652.851562 832.289062 661.6875 842.808594 667.371094 855.078125 C 672.574219 866.296875 675.035156 878.769531 677.421875 890.835938 L 677.925781 893.433594 C 681.101562 909.589844 684.707031 927.890625 694.070312 941.996094 C 694.960938 943.335938 695.90625 944.605469 696.886719 945.816406 C 688.664062 940.933594 682.828125 935.261719 679.257812 928.671875 Z M 612.621094 1010.796875 C 607.765625 1039.230469 602.792969 1068.464844 598.324219 1099.414062 C 596.265625 1065.792969 594.476562 1028.273438 592.777344 983.390625 C 592.734375 982.097656 591.613281 981.078125 590.347656 981.132812 C 589.042969 981.179688 588.035156 982.269531 588.078125 983.566406 C 589.660156 1025.171875 591.3125 1060.460938 593.183594 1092.179688 C 577.535156 1022.390625 561.023438 958.167969 543.65625 890.671875 C 537.96875 868.570312 532.183594 846.085938 526.308594 822.9375 C 543.546875 825.535156 561.132812 826.894531 578.753906 826.894531 C 580.113281 826.894531 581.480469 826.855469 582.847656 826.839844 C 583.519531 846.453125 584.160156 866.441406 584.804688 886.660156 C 585.179688 898.472656 585.554688 910.367188 585.949219 922.300781 C 585.988281 923.578125 587.035156 924.578125 588.300781 924.578125 C 588.320312 924.578125 588.347656 924.578125 588.375 924.578125 C 589.667969 924.53125 590.6875 923.449219 590.648438 922.152344 C 590.253906 910.214844 589.878906 898.328125 589.503906 886.515625 C 588.851562 866.324219 588.21875 846.371094 587.546875 826.78125 C 590.714844 826.699219 593.890625 826.582031 597.054688 826.40625 C 610.648438 825.691406 624.132812 823.691406 637.347656 820.585938 C 633.035156 891.085938 623.121094 949.257812 612.621094 1010.796875 Z M 489.496094 908.378906 C 475.867188 925.402344 473.746094 947.550781 471.699219 968.953125 C 470.617188 980.308594 469.496094 992.035156 466.671875 1002.859375 C 462.382812 1019.324219 453.730469 1033.871094 441.511719 1045.628906 C 447.386719 1035.972656 450.828125 1024.34375 451.617188 1010.960938 C 452.589844 994.71875 451.148438 978.609375 449.453125 962.152344 C 447.589844 944.015625 447.238281 929.039062 451.582031 914.894531 C 451.957031 913.65625 451.261719 912.332031 450.019531 911.957031 C 448.78125 911.582031 447.46875 912.269531 447.085938 913.507812 C 442 930.082031 443.230469 947.558594 444.78125 962.640625 C 446.449219 978.882812 447.875 994.789062 446.929688 1010.679688 C 446.140625 1023.941406 442.605469 1035.359375 436.527344 1044.664062 C 439.871094 1035.046875 441.53125 1023.957031 441.457031 1011.457031 C 441.394531 1000.34375 440.054688 989.164062 438.757812 978.34375 C 438.035156 972.277344 437.28125 966 436.769531 959.820312 C 435.65625 946.511719 435.003906 926.808594 442.203125 909.378906 C 446.40625 899.179688 453.167969 890.039062 459.226562 882.449219 C 459.628906 881.933594 459.546875 881.199219 459.042969 880.796875 C 458.539062 880.394531 457.796875 880.476562 457.390625 880.980469 C 451.222656 888.707031 444.347656 898.015625 440.027344 908.488281 C 432.636719 926.386719 433.289062 946.46875 434.425781 960.015625 C 434.941406 966.238281 435.695312 972.53125 436.429688 978.617188 C 437.714844 989.375 439.042969 1000.5 439.109375 1011.46875 C 439.210938 1027.34375 436.4375 1040.835938 430.949219 1051.832031 C 428.195312 1054.835938 425.101562 1057.53125 421.667969 1059.917969 C 428.011719 1048.695312 430.710938 1034.578125 429.746094 1017.699219 C 432.160156 994.808594 430.949219 971.277344 426.066406 948.910156 C 425.929688 948.273438 425.296875 947.863281 424.671875 948.007812 C 424.027344 948.148438 423.632812 948.78125 423.769531 949.414062 C 427.691406 967.355469 429.1875 986.070312 428.359375 1004.582031 C 427.863281 1001.371094 427.269531 998.074219 426.550781 994.699219 C 425.414062 989.355469 424.09375 983.933594 422.816406 978.691406 C 418.210938 959.738281 413.445312 940.132812 416.492188 921.035156 C 419.070312 904.835938 427.148438 889.835938 434.976562 875.335938 C 437.089844 871.40625 439.28125 867.351562 441.328125 863.332031 C 453.5625 839.292969 457.34375 820.109375 453.105469 803.332031 C 455.253906 804.195312 457.4375 805.003906 459.613281 805.8125 C 462.199219 816.21875 462.171875 827.132812 459.4375 837.511719 C 456.105469 850.132812 448.9375 861.539062 442.007812 872.574219 C 440.164062 875.5 438.328125 878.429688 436.546875 881.382812 C 429.417969 893.261719 420.238281 911.148438 422.910156 929.257812 C 422.992188 929.84375 423.496094 930.265625 424.066406 930.265625 C 424.121094 930.265625 424.183594 930.265625 424.238281 930.25 C 424.882812 930.15625 425.324219 929.5625 425.230469 928.917969 C 422.671875 911.542969 431.617188 894.160156 438.566406 882.597656 C 440.328125 879.660156 442.164062 876.738281 444 873.820312 C 451.023438 862.640625 458.289062 851.085938 461.703125 838.109375 C 464.402344 827.875 464.570312 817.136719 462.273438 806.828125 C 465.714844 808.078125 469.183594 809.28125 472.699219 810.410156 C 474.214844 822.222656 472.277344 835.097656 466.992188 847.78125 C 462.484375 858.613281 455.5 869.589844 445.632812 881.347656 C 445.222656 881.84375 445.285156 882.585938 445.78125 883 C 446 883.183594 446.265625 883.273438 446.535156 883.273438 C 446.871094 883.273438 447.203125 883.128906 447.433594 882.851562 C 457.457031 870.910156 464.558594 859.742188 469.15625 848.683594 C 474.445312 835.996094 476.472656 823.085938 475.140625 811.160156 C 475.445312 811.253906 475.746094 811.34375 476.042969 811.4375 C 476.070312 811.566406 476.050781 811.703125 476.097656 811.832031 C 480.796875 825.554688 480.941406 840.714844 476.519531 854.527344 C 474.65625 860.328125 471.929688 866.257812 467.679688 873.746094 C 467.046875 874.875 467.441406 876.308594 468.570312 876.953125 C 468.9375 877.152344 469.332031 877.253906 469.726562 877.253906 C 470.542969 877.253906 471.34375 876.832031 471.773438 876.0625 C 476.1875 868.277344 479.035156 862.082031 480.988281 855.960938 C 485.429688 842.109375 485.503906 827.003906 481.363281 813.0625 C 494.296875 816.851562 507.652344 819.882812 521.261719 822.128906 C 523.355469 830.398438 525.4375 838.558594 527.511719 846.671875 C 524.914062 863.871094 517.664062 879.21875 506.484375 891.058594 C 504.394531 893.269531 502.125 895.425781 499.933594 897.511719 C 496.363281 900.898438 492.671875 904.402344 489.496094 908.378906 Z M 276.984375 1015.523438 C 307.363281 962.941406 337.046875 909.175781 365.316406 855.5 C 365.921875 854.34375 365.480469 852.933594 364.332031 852.324219 C 363.175781 851.71875 361.753906 852.160156 361.15625 853.308594 C 333.496094 905.824219 304.480469 958.433594 274.789062 1009.933594 C 298.277344 923.402344 328.886719 831.152344 363.882812 741.589844 C 379.136719 759.128906 396.914062 774.046875 416.6875 785.609375 C 424.503906 790.191406 432.738281 794.394531 441.257812 798.246094 C 392.398438 875.316406 338.542969 946.550781 276.984375 1015.523438 Z M 262.859375 781.515625 C 243.335938 787.308594 229.890625 803.101562 216.886719 818.367188 C 206.84375 830.160156 196.453125 842.359375 183.347656 849.855469 C 165.617188 860 142.625 856.996094 124.589844 848.066406 C 126.359375 848.25 128.140625 848.371094 129.957031 848.371094 C 136.375 848.371094 143.046875 847.242188 149.609375 844.992188 C 159.980469 841.449219 170.203125 835.226562 180.878906 825.984375 C 195.335938 813.464844 207.238281 798.558594 216.269531 781.699219 C 216.886719 780.550781 216.453125 779.140625 215.316406 778.523438 C 214.167969 777.910156 212.746094 778.339844 212.132812 779.476562 C 203.375 795.84375 191.820312 810.289062 177.804688 822.433594 C 167.589844 831.269531 157.878906 837.199219 148.09375 840.550781 C 139.015625 843.652344 129.800781 844.414062 121.460938 842.882812 C 134.28125 841.347656 147.148438 835.558594 157.796875 826.445312 C 161.128906 823.578125 164.277344 820.339844 167.230469 816.824219 C 167.277344 816.777344 167.339844 816.75 167.386719 816.695312 C 167.421875 816.632812 167.460938 816.558594 167.507812 816.496094 C 173.097656 809.757812 177.933594 801.945312 181.722656 793.347656 C 183.566406 789.179688 185.175781 784.847656 186.726562 780.664062 C 188.679688 775.394531 190.699219 769.941406 193.1875 764.828125 C 203 744.710938 220.738281 728.914062 241.851562 721.472656 C 242.464844 721.261719 242.785156 720.589844 242.566406 719.976562 C 242.355469 719.359375 241.683594 719.050781 241.070312 719.261719 C 219.382812 726.898438 201.164062 743.132812 191.074219 763.800781 C 188.535156 769.015625 186.496094 774.523438 184.523438 779.84375 C 182.980469 784.003906 181.382812 788.296875 179.574219 792.402344 C 177.785156 796.449219 175.75 800.285156 173.527344 803.949219 C 175.539062 797.808594 176.824219 791.199219 177.988281 785.039062 C 178.5 782.304688 179.007812 779.644531 179.558594 777.128906 C 182.347656 764.269531 188.195312 752.054688 196.445312 741.8125 C 196.847656 741.304688 196.777344 740.5625 196.269531 740.160156 C 195.765625 739.753906 195.023438 739.828125 194.617188 740.34375 C 186.136719 750.871094 180.136719 763.417969 177.253906 776.625 C 176.703125 779.167969 176.199219 781.855469 175.675781 784.601562 C 173.691406 795.101562 171.425781 806.976562 165.632812 815.070312 C 162.707031 818.585938 159.585938 821.808594 156.261719 824.652344 C 147.195312 832.425781 136.457031 837.714844 125.570312 839.863281 C 143.652344 830.566406 154.546875 810.078125 159.90625 796.992188 C 162 791.867188 163.945312 786.554688 165.816406 781.40625 C 171.738281 765.167969 177.859375 748.382812 189.671875 736.019531 C 200.464844 724.730469 216.574219 716.726562 237.546875 712.238281 C 240.015625 711.707031 242.492188 711.230469 244.96875 710.753906 C 251.3125 709.539062 257.867188 708.28125 264.132812 706.144531 C 287.382812 698.195312 300.507812 679.316406 310.210938 661.601562 C 312.863281 661.566406 315.523438 661.527344 318.230469 661.492188 C 319.277344 664.59375 320.378906 667.667969 321.542969 670.707031 C 316.339844 680.738281 308.035156 689.890625 296.816406 697.910156 C 286.125 705.546875 274 711.332031 263.472656 716.15625 C 262.886719 716.425781 262.628906 717.121094 262.894531 717.710938 C 263.097656 718.140625 263.519531 718.398438 263.96875 718.398438 C 264.125 718.398438 264.300781 718.359375 264.457031 718.289062 C 275.085938 713.421875 287.328125 707.585938 298.1875 699.820312 C 309.054688 692.046875 317.25 683.207031 322.664062 673.535156 C 324.785156 678.839844 327.058594 684.050781 329.519531 689.15625 C 329.355469 689.300781 329.21875 689.476562 329.152344 689.707031 C 328.988281 690.332031 329.355469 690.972656 329.988281 691.148438 L 330.179688 691.203125 C 314.53125 709.496094 289.660156 718.039062 267.660156 725.59375 C 242.382812 734.277344 218.492188 743.730469 203.972656 763.710938 C 198.226562 771.621094 194.40625 780.707031 190.71875 789.5 L 183.292969 807.167969 C 183.046875 807.773438 183.320312 808.453125 183.925781 808.710938 C 184.074219 808.773438 184.230469 808.804688 184.375 808.804688 C 184.835938 808.804688 185.277344 808.527344 185.460938 808.085938 L 192.882812 790.410156 C 196.519531 781.746094 200.28125 772.789062 205.871094 765.097656 C 219.988281 745.65625 243.511719 736.367188 268.421875 727.8125 C 290.511719 720.234375 315.421875 711.632812 331.503906 693.203125 C 331.511719 693.222656 331.519531 693.238281 331.53125 693.265625 C 322.910156 711.824219 307.152344 726.839844 288.164062 734.496094 C 286.960938 734.984375 286.382812 736.359375 286.867188 737.5625 C 287.234375 738.46875 288.117188 739.03125 289.042969 739.03125 C 289.339844 739.03125 289.640625 738.976562 289.925781 738.855469 C 308.90625 731.199219 324.839844 716.609375 334.230469 698.453125 C 341.738281 712.488281 350.527344 725.601562 360.46875 737.570312 C 360.414062 737.664062 360.339844 737.734375 360.292969 737.835938 C 355.457031 750.179688 350.710938 762.582031 346.050781 775.007812 C 333.4375 780.644531 317.679688 779.917969 302.417969 779.203125 C 288.945312 778.5625 275.019531 777.898438 262.859375 781.515625 Z M 119.457031 842.449219 C 119.46875 842.449219 119.46875 842.460938 119.476562 842.460938 C 119.457031 842.460938 119.449219 842.460938 119.429688 842.449219 C 119.441406 842.449219 119.449219 842.449219 119.457031 842.449219 Z M 30.734375 646.265625 C 96.777344 640.246094 161.339844 633.738281 223.972656 623.90625 C 225.246094 623.707031 226.128906 622.503906 225.925781 621.226562 C 225.722656 619.941406 224.519531 619.0625 223.238281 619.261719 C 158.84375 629.378906 92.335938 635.96875 24.269531 642.125 C 109.601562 608.378906 162.753906 593.765625 240.996094 572.261719 C 259.316406 567.222656 278.261719 562.011719 299.398438 556.070312 C 300.542969 584.128906 305.464844 611.222656 310.816406 635.152344 C 312.457031 642.511719 314.429688 649.734375 316.6875 656.8125 C 197.609375 658.425781 135.4375 658.539062 30.734375 646.265625 Z M 203.621094 487.730469 C 194.792969 477.902344 183.523438 470.429688 171.039062 466.117188 C 161.496094 462.820312 151.535156 460.800781 141.898438 458.847656 C 136.503906 457.746094 130.921875 456.617188 125.554688 455.285156 C 110.765625 451.605469 100.011719 437.597656 93.585938 426.503906 C 86.949219 415.039062 82.148438 401.214844 78.460938 383.015625 C 77 375.8125 75.90625 367.882812 77.550781 360.925781 C 81.480469 377.410156 87.691406 390.644531 96.4375 401.1875 C 108.445312 415.671875 124.425781 425.375 141.421875 428.53125 C 146.761719 429.511719 152.207031 429.863281 157.472656 430.191406 C 160.3125 430.367188 163.148438 430.539062 165.964844 430.824219 C 190.707031 433.25 212.019531 443.878906 224.4375 459.964844 C 224.898438 460.570312 225.59375 460.882812 226.300781 460.882812 C 226.796875 460.882812 227.300781 460.71875 227.734375 460.386719 C 228.761719 459.597656 228.945312 458.121094 228.15625 457.09375 C 214.949219 439.984375 192.453125 428.695312 166.421875 426.144531 C 163.550781 425.859375 160.660156 425.6875 157.769531 425.503906 C 152.636719 425.171875 147.34375 424.839844 142.277344 423.90625 C 126.351562 420.957031 111.363281 411.828125 100.054688 398.195312 C 92.796875 389.433594 87.371094 378.648438 83.609375 365.484375 C 95.648438 380.464844 113.769531 390.09375 133.457031 391.386719 C 142.613281 391.984375 151.800781 390.773438 160.695312 389.597656 C 171.488281 388.164062 181.695312 386.824219 191.9375 388.402344 C 203.015625 390.101562 213.527344 395.351562 221.539062 403.191406 C 223.503906 405.109375 225.394531 407.246094 227.21875 409.320312 C 230.917969 413.515625 234.738281 417.855469 239.664062 420.976562 C 244.59375 424.097656 250.542969 426.035156 258.398438 427.054688 C 277.875 429.566406 299.507812 422.1875 313.953125 414.113281 C 317.414062 418.195312 320.964844 422.363281 324.648438 426.613281 C 309.007812 438.195312 287.648438 442.207031 268.871094 437.09375 C 268.253906 436.917969 267.605469 437.285156 267.429688 437.921875 C 267.265625 438.542969 267.632812 439.1875 268.253906 439.359375 C 273.84375 440.886719 279.65625 441.628906 285.484375 441.628906 C 299.957031 441.628906 314.550781 437.039062 326.105469 428.464844 C 326.132812 428.4375 326.152344 428.402344 326.179688 428.382812 C 327.308594 429.679688 328.445312 430.992188 329.59375 432.304688 C 325.996094 438.160156 322.671875 444.179688 319.597656 450.339844 C 319.25 450.21875 318.855469 450.238281 318.523438 450.457031 C 300.078125 463.195312 268.945312 458.910156 249.515625 447.417969 C 240.398438 442.03125 232.460938 434.707031 224.789062 427.621094 C 210.238281 414.203125 194.277344 400.941406 173.207031 399.140625 C 172.546875 399.078125 171.984375 399.574219 171.929688 400.214844 C 171.875 400.859375 172.363281 401.425781 173.003906 401.484375 C 193.332031 403.21875 208.945312 416.203125 223.199219 429.347656 C 230.964844 436.515625 238.988281 443.921875 248.320312 449.4375 C 259.773438 456.210938 275.195312 460.535156 289.898438 460.535156 C 300.160156 460.535156 310.042969 458.398438 318.011719 453.542969 C 304.730469 481.261719 299.644531 510.703125 299.175781 539.578125 C 298.425781 539.203125 297.515625 539.210938 296.78125 539.734375 C 291.285156 543.644531 284.941406 546.160156 278.359375 547.296875 L 265.886719 547.765625 C 261.382812 547.351562 256.9375 546.296875 252.734375 544.589844 L 248.046875 542.386719 C 247.101562 541.871094 246.183594 541.332031 245.28125 540.742188 C 234.066406 533.417969 226.953125 522.058594 219.425781 510.023438 C 214.644531 502.398438 209.71875 494.503906 203.621094 487.730469 Z M 209.40625 263.753906 C 197.335938 245.644531 183.898438 225.480469 168.433594 202.996094 C 198.226562 226.976562 273.378906 287.808594 314.386719 324.09375 C 314.835938 324.488281 315.386719 324.679688 315.945312 324.679688 C 316.589844 324.679688 317.238281 324.414062 317.699219 323.890625 C 318.5625 322.917969 318.46875 321.429688 317.496094 320.578125 C 277.597656 285.269531 205.46875 226.792969 174.015625 201.453125 C 268.320312 245.515625 316.320312 268.636719 383.746094 323.3125 C 386.160156 325.570312 388.703125 327.699219 391.382812 329.644531 C 391.453125 329.699219 391.546875 329.726562 391.628906 329.773438 C 398.90625 335.804688 406.433594 342.199219 414.28125 349.039062 C 380.898438 369.359375 352.757812 396.296875 332.226562 428.171875 C 275.972656 363.648438 246.53125 319.484375 209.40625 263.753906 Z M 364.792969 238.953125 C 366.460938 228.289062 368.1875 217.257812 366.941406 206.226562 C 365.09375 189.914062 357.019531 175.339844 349.207031 161.242188 C 347.371094 157.9375 345.546875 154.644531 343.800781 151.332031 C 336.945312 138.296875 333.101562 126.789062 332.164062 116.5625 C 337.25 135.992188 350.4375 153.265625 363.527344 168.164062 C 365.175781 170.054688 366.855469 171.945312 368.546875 173.835938 C 384.269531 191.539062 400.523438 209.839844 405.699219 232.457031 C 407.003906 238.148438 407.609375 244.214844 408.1875 250.070312 C 409.222656 260.523438 410.296875 271.316406 415.335938 280.890625 C 415.75 281.699219 416.566406 282.148438 417.410156 282.148438 C 417.789062 282.148438 418.15625 282.066406 418.503906 281.882812 C 419.660156 281.277344 420.089844 279.851562 419.496094 278.707031 C 414.878906 269.941406 413.894531 260.066406 412.859375 249.609375 C 412.261719 243.609375 411.648438 237.394531 410.28125 231.410156 C 404.835938 207.621094 388.179688 188.859375 372.0625 170.714844 C 370.382812 168.824219 368.703125 166.941406 367.050781 165.0625 C 353.816406 150 340.496094 132.46875 336.15625 112.964844 C 336.488281 113.496094 336.824219 114.019531 337.183594 114.554688 C 341.332031 124.695312 349.117188 134.496094 360.917969 144.335938 C 365.261719 147.953125 369.847656 151.394531 374.292969 154.726562 C 381.351562 160.023438 388.65625 165.5 395.035156 171.753906 C 411.042969 187.4375 421.523438 208.308594 424.550781 230.511719 C 424.632812 231.109375 425.140625 231.53125 425.71875 231.53125 C 425.761719 231.53125 425.816406 231.53125 425.875 231.519531 C 426.515625 231.429688 426.964844 230.839844 426.882812 230.199219 C 423.78125 207.472656 413.050781 186.125 396.675781 170.074219 C 390.1875 163.710938 382.816406 158.1875 375.707031 152.84375 C 371.289062 149.53125 366.71875 146.109375 362.425781 142.527344 C 354.640625 136.039062 348.703125 129.597656 344.398438 123.078125 C 349.824219 128.449219 356.734375 133.542969 365.121094 138.34375 C 368.941406 140.519531 372.898438 142.601562 376.734375 144.621094 C 388.765625 150.945312 401.210938 157.5 410.125 167.585938 C 421.898438 180.921875 426.167969 198.183594 430.691406 216.46875 C 433.976562 229.75 437.375 243.480469 443.925781 255.621094 C 450.808594 268.371094 461.429688 279.347656 473.902344 286.746094 C 473.949219 291.996094 474.023438 297.300781 474.132812 302.699219 C 465.027344 298.492188 456.621094 291.507812 449.128906 281.816406 C 441.851562 272.410156 436.261719 261.597656 431.167969 251.328125 C 430.875 250.75 430.179688 250.511719 429.589844 250.804688 C 429.011719 251.089844 428.773438 251.796875 429.066406 252.375 C 434.214844 262.746094 439.859375 273.675781 447.269531 283.25 C 455.28125 293.609375 464.339844 301.007812 474.1875 305.3125 C 474.296875 310.636719 474.433594 316.035156 474.601562 321.53125 C 472.976562 322.054688 471.351562 322.578125 469.734375 323.128906 C 464.394531 321.382812 459.96875 317.335938 456.355469 313.582031 C 446.671875 303.558594 438.769531 292.078125 432.886719 279.449219 C 427.332031 267.515625 423.632812 254.605469 420.0625 242.101562 C 418.28125 235.898438 416.445312 229.472656 414.402344 223.242188 C 406.570312 199.371094 396.730469 183.335938 383.453125 172.789062 C 382.945312 172.394531 382.203125 172.476562 381.808594 172.980469 C 381.40625 173.496094 381.488281 174.230469 381.992188 174.632812 C 394.898438 184.875 404.488281 200.554688 412.160156 223.96875 C 414.199219 230.171875 416.035156 236.570312 417.796875 242.753906 C 421.402344 255.339844 425.128906 268.34375 430.757812 280.429688 C 436.75 293.308594 444.796875 305.011719 454.664062 315.214844 C 457.894531 318.558594 461.761719 322.128906 466.394531 324.3125 C 463.273438 325.414062 460.179688 326.578125 457.105469 327.789062 C 445.699219 319.464844 436.191406 308.535156 429.589844 296.035156 C 429.289062 295.457031 428.582031 295.246094 428.003906 295.539062 C 427.433594 295.839844 427.214844 296.558594 427.515625 297.125 C 434.042969 309.507812 443.367188 320.375 454.535156 328.808594 C 441.953125 333.914062 429.867188 339.851562 418.375 346.578125 C 418.246094 346.359375 418.109375 346.148438 417.914062 345.972656 C 407.003906 336.457031 396.714844 327.773438 386.847656 319.769531 C 378.285156 311.683594 371.640625 301.613281 367.425781 290.617188 L 365.488281 284.964844 C 363.753906 279.15625 362.691406 273.160156 362.367188 267.105469 L 362.480469 264.855469 C 362.488281 264.617188 362.40625 264.398438 362.285156 264.195312 C 362.285156 263.808594 362.25 263.414062 362.25 263.03125 C 362.277344 255.035156 363.554688 246.855469 364.792969 238.953125 Z M 500.078125 22.503906 C 504.878906 77.511719 510.945312 139.8125 519.535156 200.835938 C 519.703125 202.011719 520.710938 202.867188 521.859375 202.867188 C 521.96875 202.867188 522.078125 202.855469 522.1875 202.839844 C 523.472656 202.65625 524.375 201.472656 524.191406 200.1875 C 515.691406 139.832031 509.660156 78.179688 504.886719 23.617188 C 506.15625 27.644531 507.402344 31.636719 508.640625 35.574219 C 536.214844 123.519531 557.085938 190.109375 572.394531 273.628906 L 574.109375 283.394531 L 574.175781 283.597656 C 575.5625 291.492188 576.890625 299.558594 578.175781 307.800781 C 558.277344 306.707031 537.746094 307.808594 516.839844 311.277344 C 503.980469 313.417969 491.441406 316.382812 479.261719 320.082031 C 478.921875 308.359375 478.695312 297.042969 478.59375 286.03125 C 478.695312 285.617188 478.703125 285.203125 478.582031 284.808594 C 477.8125 194.917969 485.035156 124.886719 500.078125 22.503906 Z M 637.910156 240.550781 C 653.042969 222.066406 654.703125 196.605469 654.335938 174.148438 C 654.292969 171.496094 654.226562 168.816406 654.164062 166.144531 C 653.695312 146.292969 653.207031 125.769531 660.925781 107.769531 C 667.875 91.5625 681.53125 78.5 697.832031 71.921875 C 689.636719 82.886719 685.128906 98.042969 685.304688 114.835938 C 685.460938 129.953125 688.96875 144.914062 692.355469 159.378906 C 692.988281 162.070312 693.621094 164.757812 694.226562 167.449219 C 698.0625 184.398438 701.175781 202.453125 697.960938 219.671875 C 697.84375 220.3125 698.265625 220.929688 698.898438 221.046875 C 698.972656 221.058594 699.042969 221.066406 699.117188 221.066406 C 699.667969 221.066406 700.164062 220.671875 700.273438 220.101562 C 703.558594 202.472656 700.410156 184.125 696.519531 166.925781 C 695.90625 164.234375 695.273438 161.535156 694.640625 158.847656 C 691.28125 144.5 687.808594 129.667969 687.65625 114.808594 C 687.480469 97.859375 692.1875 82.660156 700.722656 72.03125 C 689.535156 91.25 693.132812 116.589844 698.492188 139.425781 C 699.824219 145.125 701.386719 150.910156 702.898438 156.496094 C 707.890625 175.027344 713.058594 194.191406 710.828125 213.128906 C 709.113281 227.621094 703.101562 241.480469 697.28125 254.878906 C 695.261719 259.515625 693.1875 264.3125 691.296875 269.085938 C 681.585938 293.667969 680.332031 313.335938 687.441406 329.242188 C 687.773438 329.964844 688.425781 330.425781 689.140625 330.5625 C 687.542969 332.589844 685.929688 334.636719 684.296875 336.722656 C 684.148438 336.914062 684.066406 337.132812 683.984375 337.355469 C 680.992188 335.730469 677.960938 334.167969 674.898438 332.671875 C 674.90625 332.433594 674.878906 332.195312 674.742188 331.984375 C 672.078125 327.746094 671.648438 322.414062 671.582031 317.769531 C 671.1875 289.507812 682.816406 261.992188 695.445312 236.457031 C 695.730469 235.878906 695.492188 235.171875 694.914062 234.890625 C 694.335938 234.605469 693.628906 234.832031 693.335938 235.421875 C 680.578125 261.210938 668.828125 289.039062 669.234375 317.796875 C 669.296875 322.046875 669.664062 326.835938 671.609375 331.085938 C 666.800781 328.828125 661.917969 326.71875 656.945312 324.769531 C 653.390625 313.628906 653.050781 301.347656 656.042969 290.058594 C 658.964844 279.0625 664.902344 268.976562 670.65625 259.230469 C 673.539062 254.335938 676.511719 249.289062 679.101562 244.148438 C 686.296875 229.859375 690.875 213.878906 692.335938 197.945312 C 692.390625 197.304688 691.914062 196.726562 691.269531 196.671875 C 690.601562 196.617188 690.050781 197.082031 689.996094 197.734375 C 688.5625 213.375 684.066406 229.0625 677.007812 243.09375 C 674.457031 248.160156 671.492188 253.179688 668.628906 258.035156 C 662.800781 267.921875 656.769531 278.144531 653.777344 289.453125 C 650.820312 300.585938 651.015625 312.636719 654.191406 323.714844 C 651.851562 322.835938 649.492188 321.972656 647.113281 321.15625 C 647.140625 320.878906 647.132812 320.585938 647.050781 320.300781 C 642.765625 304.890625 643.113281 288.011719 648.011719 272.785156 C 651.851562 260.898438 658.441406 249.785156 664.828125 239.039062 C 672.003906 226.949219 679.421875 214.441406 683.15625 200.554688 C 688.535156 180.535156 685.800781 159.078125 683.394531 140.152344 C 683.238281 138.867188 682.054688 137.957031 680.769531 138.113281 C 679.484375 138.277344 678.578125 139.453125 678.734375 140.738281 C 681.09375 159.242188 683.753906 180.207031 678.613281 199.332031 C 675.050781 212.59375 667.800781 224.820312 660.78125 236.640625 C 654.273438 247.609375 647.535156 258.953125 643.542969 271.34375 C 638.578125 286.753906 638.082031 303.753906 642.03125 319.476562 C 623.234375 313.464844 603.460938 309.617188 582.984375 308.121094 C 582.636719 305.902344 582.289062 303.6875 581.941406 301.496094 C 583.886719 295.152344 589.117188 280.667969 598.453125 272.050781 C 603.488281 267.390625 609.347656 263.425781 615.007812 259.585938 C 623.085938 254.117188 631.4375 248.453125 637.910156 240.550781 Z M 838.441406 194.964844 C 856.054688 181.390625 875.796875 166.179688 898.039062 148.015625 L 894.769531 155.835938 C 850.945312 260.789062 830.878906 308.820312 760.703125 403.246094 C 751.34375 390.9375 740.941406 379.675781 729.636719 369.535156 C 730.121094 369.441406 730.589844 369.25 730.9375 368.855469 C 751.765625 345.882812 767.980469 324.066406 785.15625 300.964844 C 799.253906 282.011719 813.828125 262.40625 831.890625 240.929688 C 832.726562 239.9375 832.597656 238.460938 831.605469 237.625 C 830.613281 236.789062 829.128906 236.90625 828.292969 237.910156 C 810.136719 259.488281 795.527344 279.144531 781.390625 298.164062 C 764.285156 321.164062 748.128906 342.890625 727.460938 365.695312 C 727.09375 366.101562 726.929688 366.605469 726.890625 367.109375 C 714.867188 356.65625 701.863281 347.441406 688.023438 339.585938 C 744.339844 267.472656 783.804688 237.054688 838.441406 194.964844 Z M 880.710938 355.039062 C 889.628906 345.660156 898.84375 335.96875 909.703125 329.195312 C 928.867188 317.234375 950.859375 315.667969 965.910156 316.445312 C 975.199219 316.933594 984.378906 318.109375 994.015625 320.082031 C 988.195312 320.621094 982.726562 321.890625 978.136719 323.300781 C 961 328.582031 945.425781 338.246094 933.089844 351.257812 C 927.324219 357.335938 922.277344 364.144531 917.394531 370.726562 C 911.164062 379.144531 904.699219 387.84375 896.851562 394.820312 C 883.8125 406.402344 866.328125 413.351562 848.886719 413.882812 C 847.59375 413.917969 846.574219 415.003906 846.613281 416.304688 C 846.648438 417.570312 847.695312 418.582031 848.960938 418.582031 C 848.988281 418.582031 849.007812 418.582031 849.035156 418.582031 C 867.554688 418.011719 886.113281 410.632812 899.972656 398.324219 C 908.1875 391.027344 914.789062 382.136719 921.175781 373.527344 C 923.792969 369.992188 926.472656 366.402344 929.261719 362.914062 C 926.214844 371.746094 922 380.097656 916.660156 387.824219 C 906.800781 402.097656 893.925781 412.917969 879.441406 419.125 C 869.601562 423.335938 858.835938 425.464844 848.429688 427.53125 C 842.757812 428.648438 836.890625 429.816406 831.210938 431.304688 C 817.867188 434.800781 800.554688 441.984375 791.707031 456.488281 C 784.859375 440.609375 776.617188 425.804688 767.164062 412.148438 C 767.292969 412.019531 767.429688 411.898438 767.523438 411.734375 C 773.820312 400.683594 785.0625 397.730469 799.105469 395.011719 C 803.445312 394.175781 807.953125 393.554688 812.3125 392.945312 C 821.738281 391.644531 831.496094 390.292969 840.582031 386.667969 C 856.78125 380.207031 868.941406 367.414062 880.710938 355.039062 Z M 730.625 768.8125 C 693.199219 800.332031 645.664062 819.121094 596.800781 821.714844 C 546.035156 824.425781 494.488281 815.585938 450.617188 797.203125 C 450.433594 796.789062 450.046875 796.496094 449.582031 796.496094 L 448.863281 796.496094 C 438.449219 792.042969 428.46875 787.070312 419.054688 781.5625 C 374.082031 755.246094 339.644531 711.148438 322.113281 658.34375 C 322.085938 658.269531 322.078125 658.199219 322.039062 658.125 C 319.453125 650.304688 317.230469 642.292969 315.402344 634.125 C 303.691406 581.695312 293.917969 513.945312 322.589844 454.835938 C 357.78125 382.28125 430.683594 330.351562 517.601562 315.914062 C 533.074219 313.355469 548.328125 312.097656 563.269531 312.097656 C 674.640625 312.097656 768.367188 381.558594 799.335938 492.21875 C 813.789062 543.855469 816.046875 599.886719 805.539062 645.953125 C 794.664062 693.664062 768.054688 737.296875 730.625 768.8125 Z M 985.476562 334.167969 C 985.230469 333.921875 984.882812 333.773438 984.496094 333.8125 C 972.765625 335.410156 961 342.566406 951.363281 353.96875 C 944.09375 362.566406 938.578125 372.589844 933.253906 382.292969 C 932.390625 383.851562 931.527344 385.421875 930.667969 386.972656 C 924.921875 397.308594 917.964844 409.054688 908.023438 417.746094 C 895.640625 428.578125 879.441406 434.074219 863.785156 439.390625 L 861.066406 440.304688 C 844.273438 446.035156 826.859375 452.734375 814.828125 466.003906 C 814.394531 466.484375 814.425781 467.226562 814.910156 467.667969 C 815.128906 467.867188 815.414062 467.96875 815.699219 467.96875 C 816.019531 467.96875 816.332031 467.839844 816.570312 467.585938 C 828.226562 454.726562 845.316406 448.164062 861.828125 442.535156 L 864.535156 441.609375 C 880.414062 436.222656 896.835938 430.652344 909.566406 419.519531 C 919.789062 410.578125 926.875 398.621094 932.722656 388.121094 C 933.585938 386.558594 934.449219 384.988281 935.308594 383.421875 C 940.585938 373.828125 946.039062 363.90625 953.160156 355.480469 C 961.375 345.761719 971.160156 339.28125 981.046875 336.878906 C 973.085938 342.089844 966.019531 348.605469 960.402344 356.179688 C 953.1875 365.917969 948.058594 377.351562 943.085938 388.421875 C 935.042969 406.339844 927.445312 423.261719 911.867188 433.027344 C 901.820312 439.332031 890.136719 441.464844 877.773438 443.722656 C 873.089844 444.574219 868.253906 445.457031 863.5625 446.574219 C 842.65625 451.597656 828.273438 463.011719 824.628906 477.304688 C 816.671875 477.71875 808.523438 478.183594 800.132812 478.726562 C 799.59375 477.082031 799.042969 475.449219 798.464844 473.824219 C 812.734375 454.230469 834.257812 440.351562 858.066406 435.570312 C 858.699219 435.441406 859.113281 434.828125 858.984375 434.183594 C 858.855469 433.550781 858.230469 433.128906 857.597656 433.265625 C 833.742188 438.058594 812.109375 451.761719 797.5 471.15625 C 796.03125 467.117188 794.480469 463.140625 792.855469 459.230469 C 800.96875 444.371094 818.433594 437.074219 831.808594 433.578125 C 837.425781 432.109375 843.253906 430.953125 848.886719 429.835938 C 859.414062 427.75 870.300781 425.59375 880.371094 421.28125 C 895.257812 414.910156 908.480469 403.796875 918.597656 389.15625 C 925.160156 379.667969 930.050781 369.238281 933.207031 358.160156 C 934.28125 356.921875 935.375 355.675781 936.503906 354.492188 C 948.277344 342.0625 963.148438 332.828125 979.511719 327.789062 C 987.378906 325.367188 997.925781 323.359375 1008.195312 325.238281 C 1000.265625 327.066406 992.582031 330.113281 985.476562 334.167969 Z M 1118.746094 494.925781 C 1118.746094 494.890625 1118.765625 494.851562 1118.753906 494.816406 C 1118.726562 494.597656 1118.65625 494.394531 1118.570312 494.199219 C 1118.554688 494.164062 1118.554688 494.128906 1118.535156 494.089844 C 1118.40625 493.835938 1118.230469 493.605469 1118.03125 493.410156 C 1117.976562 493.367188 1117.910156 493.328125 1117.847656 493.285156 C 1117.691406 493.164062 1117.523438 493.054688 1117.34375 492.972656 C 1117.242188 492.925781 1117.128906 492.90625 1117.019531 492.878906 C 1116.929688 492.851562 1116.835938 492.796875 1116.734375 492.789062 C 1033.085938 481.664062 971.5625 475.433594 901.296875 475.265625 C 918.6875 465.003906 936.714844 453.789062 953.253906 440.222656 C 953.648438 439.902344 953.796875 439.351562 953.601562 438.875 C 953.410156 438.40625 952.949219 438.105469 952.425781 438.140625 C 937.59375 439.242188 922.597656 440.039062 907.65625 440.535156 C 909.949219 439.507812 912.207031 438.371094 914.367188 437.011719 C 931.152344 426.484375 939.402344 408.109375 947.378906 390.339844 C 952.242188 379.511719 957.265625 368.304688 964.175781 358.976562 C 976.722656 342.042969 996.921875 330.664062 1017.90625 328.367188 C 1017.988281 328.40625 1018.070312 328.433594 1018.144531 328.46875 C 1019.035156 328.910156 1020.050781 328.734375 1020.742188 328.113281 C 1021.675781 328.046875 1022.605469 327.972656 1023.539062 327.9375 C 1024.6875 327.910156 1025.632812 327.054688 1025.796875 325.925781 C 1025.953125 324.796875 1025.285156 323.714844 1024.203125 323.359375 C 1002.761719 316.390625 984.3125 312.703125 966.160156 311.757812 C 950.425781 310.941406 927.417969 312.609375 907.214844 325.203125 C 895.851562 332.296875 886.417969 342.210938 877.304688 351.800781 C 867.738281 361.859375 858.597656 371.46875 847.503906 378.023438 C 858.3125 354.195312 867.070312 329.296875 874.175781 302 C 874.292969 301.558594 874.136719 301.089844 873.78125 300.796875 C 873.429688 300.503906 872.933594 300.449219 872.523438 300.640625 C 851.816406 310.699219 831.824219 322.539062 812.992188 335.839844 C 847.953125 280.136719 867.289062 233.84375 899.113281 157.652344 L 906.023438 141.105469 C 906.4375 140.113281 906.125 138.957031 905.25 138.316406 C 904.378906 137.671875 903.1875 137.699219 902.351562 138.390625 C 877.15625 159.195312 855.066406 176.222656 835.570312 191.238281 C 795.304688 222.257812 763.226562 246.996094 726.632812 286.597656 C 736.226562 259.027344 744.511719 230.867188 751.894531 200.644531 C 752.011719 200.140625 751.792969 199.609375 751.332031 199.351562 C 750.882812 199.09375 750.3125 199.15625 749.9375 199.523438 C 733.730469 215.082031 719.84375 231.464844 705.140625 248.8125 C 705.039062 248.921875 704.945312 249.03125 704.855469 249.144531 C 709.65625 237.789062 714.03125 226.078125 715.492188 213.679688 C 717.832031 193.84375 712.546875 174.238281 707.433594 155.277344 C 705.9375 149.722656 704.386719 143.980469 703.066406 138.351562 C 697.292969 113.726562 693.519531 86.109375 709.324219 67.972656 C 709.996094 67.210938 710.09375 66.101562 709.570312 65.230469 C 709.058594 64.359375 708.039062 63.925781 707.046875 64.136719 C 684.882812 69.046875 665.554688 85.054688 656.613281 105.917969 C 648.492188 124.859375 648.988281 145.90625 649.472656 166.253906 C 649.527344 168.914062 649.59375 171.578125 649.636719 174.230469 C 649.996094 195.835938 648.445312 220.257812 634.273438 237.578125 C 630.90625 241.691406 627.015625 245.121094 622.820312 248.316406 C 620.222656 217.433594 613.90625 187.164062 603.472656 155.875 C 603.316406 155.414062 602.902344 155.101562 602.425781 155.066406 C 601.9375 155.039062 601.5 155.304688 601.296875 155.734375 C 597.9375 162.777344 595.414062 170.257812 592.972656 177.480469 L 571.0625 242.441406 C 556.386719 172.191406 537.332031 111.394531 513.121094 34.160156 C 509.828125 23.652344 506.429688 12.832031 502.941406 1.644531 C 502.914062 1.558594 502.871094 1.496094 502.832031 1.421875 C 502.785156 1.3125 502.742188 1.210938 502.675781 1.121094 C 502.585938 0.964844 502.476562 0.835938 502.347656 0.707031 C 502.273438 0.632812 502.207031 0.550781 502.117188 0.488281 C 501.980469 0.375 501.824219 0.3125 501.667969 0.238281 C 501.566406 0.183594 501.472656 0.128906 501.363281 0.0898438 C 501.097656 0.0195312 500.8125 -0.0195312 500.519531 0 C 500.519531 0 500.519531 0 500.511719 0 C 500.511719 0 500.5 0 500.5 0 C 500.472656 0 500.445312 0.0195312 500.417969 0.0273438 C 500.152344 0.0546875 499.90625 0.128906 499.675781 0.238281 C 499.582031 0.285156 499.511719 0.347656 499.4375 0.402344 C 499.28125 0.503906 499.132812 0.613281 499.003906 0.742188 C 498.933594 0.824219 498.867188 0.917969 498.804688 1.007812 C 498.710938 1.148438 498.621094 1.292969 498.554688 1.449219 C 498.507812 1.558594 498.472656 1.671875 498.445312 1.78125 C 498.425781 1.855469 498.390625 1.917969 498.382812 1.992188 C 485.019531 90.890625 477.070312 155.085938 474.636719 224.691406 C 464.789062 203.472656 455.023438 185.328125 441.539062 167.84375 C 441.238281 167.449219 440.722656 167.28125 440.253906 167.4375 C 439.777344 167.585938 439.457031 168.027344 439.4375 168.519531 C 438.777344 190.328125 439.109375 212.375 440.3125 234.21875 C 438.390625 227.988281 436.804688 221.609375 435.253906 215.339844 C 430.792969 197.3125 426.183594 178.671875 413.648438 164.484375 C 404.15625 153.734375 391.328125 146.988281 378.925781 140.464844 C 375.125 138.460938 371.199219 136.398438 367.453125 134.257812 C 347.382812 122.796875 336.347656 109.789062 334.660156 95.609375 C 334.53125 94.535156 333.6875 93.683594 332.613281 93.554688 C 331.539062 93.425781 330.511719 94.039062 330.125 95.058594 C 324.160156 110.890625 327.273438 130.019531 339.644531 153.515625 C 341.40625 156.855469 343.242188 160.1875 345.097656 163.519531 C 352.6875 177.222656 360.535156 191.375 362.269531 206.757812 C 363.441406 217.15625 361.847656 227.390625 360.148438 238.230469 C 359.039062 245.332031 357.9375 252.65625 357.667969 260.007812 C 348.234375 251.710938 338.617188 244.195312 328.5 236.367188 C 325.1875 233.796875 321.855469 231.21875 318.515625 228.59375 C 318.113281 228.28125 317.5625 228.261719 317.140625 228.546875 C 316.714844 228.832031 316.523438 229.34375 316.660156 229.839844 L 330.097656 277.90625 C 284.457031 247.847656 238.894531 226.5625 166.964844 192.972656 L 158.335938 188.941406 C 158.273438 188.914062 158.191406 188.914062 158.125 188.886719 C 158.007812 188.84375 157.898438 188.8125 157.785156 188.796875 C 157.628906 188.757812 157.472656 188.75 157.320312 188.757812 C 157.179688 188.757812 157.0625 188.757812 156.933594 188.777344 C 156.804688 188.796875 156.683594 188.851562 156.558594 188.886719 C 156.410156 188.941406 156.273438 188.980469 156.132812 189.0625 C 156.132812 189.0625 156.125 189.070312 156.125 189.070312 C 155.886719 189.207031 155.675781 189.375 155.492188 189.59375 C 155.410156 189.703125 155.371094 189.832031 155.316406 189.953125 C 155.253906 190.070312 155.171875 190.183594 155.132812 190.308594 C 155.097656 190.421875 155.078125 190.53125 155.0625 190.640625 C 155.03125 190.832031 155.003906 191.027344 155.023438 191.210938 C 155.03125 191.273438 155.03125 191.339844 155.050781 191.410156 C 155.089844 191.640625 155.152344 191.871094 155.261719 192.089844 C 155.28125 192.136719 155.300781 192.171875 155.316406 192.21875 C 155.355469 192.285156 155.371094 192.355469 155.410156 192.414062 C 174.804688 220.3125 191.105469 244.773438 205.496094 266.359375 C 227.824219 299.871094 247.375 329.214844 271.625 361.300781 C 266.859375 359.363281 261.722656 358.398438 257.058594 357.527344 C 248.328125 355.902344 239.472656 354.390625 230.898438 352.9375 C 222.363281 351.488281 213.527344 349.984375 204.84375 348.359375 C 204.347656 348.277344 203.851562 348.496094 203.605469 348.9375 C 203.355469 349.367188 203.410156 349.910156 203.734375 350.285156 L 266.6875 422.851562 C 264.097656 422.851562 261.527344 422.710938 258.996094 422.390625 C 251.855469 421.464844 246.511719 419.757812 242.179688 417.011719 C 237.820312 414.25 234.386719 410.339844 230.746094 406.210938 C 228.855469 404.082031 226.90625 401.867188 224.824219 399.820312 C 216.113281 391.3125 204.6875 385.605469 192.65625 383.75 C 181.75 382.078125 170.726562 383.53125 160.082031 384.933594 C 151.417969 386.082031 142.449219 387.265625 133.765625 386.695312 C 111.078125 385.210938 90.621094 371.882812 80.351562 351.929688 C 80.324219 351.875 80.285156 351.835938 80.257812 351.792969 C 80.222656 351.726562 80.175781 351.671875 80.140625 351.609375 C 80 351.433594 79.84375 351.269531 79.660156 351.132812 C 79.625 351.105469 79.597656 351.066406 79.5625 351.046875 C 79.339844 350.902344 79.101562 350.800781 78.84375 350.738281 C 78.769531 350.71875 78.707031 350.71875 78.632812 350.699219 C 78.542969 350.691406 78.449219 350.652344 78.359375 350.652344 C 78.230469 350.652344 78.109375 350.671875 77.980469 350.691406 C 77.9375 350.699219 77.882812 350.679688 77.835938 350.691406 C 77.808594 350.699219 77.789062 350.707031 77.769531 350.71875 C 77.515625 350.773438 77.273438 350.875 77.054688 351.003906 C 76.992188 351.039062 76.925781 351.09375 76.863281 351.140625 C 76.6875 351.269531 76.53125 351.425781 76.402344 351.597656 C 76.375 351.636719 76.339844 351.671875 76.3125 351.710938 C 76.292969 351.726562 76.273438 351.746094 76.265625 351.765625 C 70.335938 361.328125 71.722656 373.398438 73.859375 383.941406 C 77.640625 402.667969 82.625 416.9375 89.519531 428.851562 C 96.394531 440.738281 108.03125 455.773438 124.414062 459.847656 C 129.894531 461.207031 135.519531 462.34375 140.972656 463.453125 C 150.445312 465.371094 160.253906 467.363281 169.5 470.558594 C 181.238281 474.613281 191.828125 481.636719 200.125 490.871094 C 205.300781 496.625 209.671875 503.351562 213.867188 510.015625 C 213.855469 510.015625 213.847656 510.015625 213.839844 510.015625 L 145.679688 529.859375 C 145.238281 529.976562 144.917969 530.34375 144.84375 530.792969 C 144.773438 531.246094 144.964844 531.683594 145.332031 531.949219 C 171.875 550.316406 195.078125 563.699219 217.875 573.75 C 146.636719 593.417969 93.558594 609.011719 7.566406 643.742188 C 7.519531 643.761719 7.492188 643.796875 7.449219 643.816406 C 7.355469 643.859375 7.265625 643.925781 7.171875 643.980469 C 7.023438 644.082031 6.886719 644.183594 6.769531 644.320312 C 6.695312 644.394531 6.628906 644.476562 6.566406 644.558594 C 6.464844 644.707031 6.375 644.863281 6.308594 645.027344 C 6.273438 645.117188 6.226562 645.210938 6.199219 645.3125 C 6.144531 645.511719 6.125 645.722656 6.125 645.945312 C 6.125 646.007812 6.097656 646.0625 6.109375 646.128906 C 6.109375 646.148438 6.117188 646.15625 6.117188 646.175781 C 6.125 646.191406 6.117188 646.210938 6.117188 646.21875 C 6.152344 646.484375 6.234375 646.742188 6.347656 646.972656 C 6.363281 647.007812 6.390625 647.027344 6.410156 647.0625 C 6.53125 647.265625 6.667969 647.460938 6.832031 647.613281 C 6.90625 647.679688 6.988281 647.726562 7.0625 647.78125 C 7.207031 647.890625 7.347656 647.992188 7.503906 648.054688 C 7.613281 648.101562 7.714844 648.121094 7.824219 648.15625 C 7.933594 648.183594 8.035156 648.238281 8.152344 648.25 C 96.871094 659.445312 154.058594 662.28125 230.367188 662.28125 C 233.1875 662.28125 236.050781 662.273438 238.921875 662.261719 C 213.738281 673.515625 188.480469 685.273438 163.734375 697.277344 C 163.273438 697.5 163.007812 697.996094 163.082031 698.5 C 163.15625 699.003906 163.550781 699.40625 164.054688 699.492188 C 169.230469 700.324219 174.472656 701.179688 179.75 702.042969 C 195.820312 704.675781 212.332031 707.355469 228.394531 709.632812 C 210.414062 714.5625 196.261719 722.324219 186.277344 732.78125 C 173.785156 745.847656 167.488281 763.105469 161.402344 779.800781 C 159.539062 784.902344 157.621094 790.179688 155.554688 795.210938 C 149.261719 810.582031 135.007812 836.816406 110.261719 839.789062 C 109.316406 839.90625 108.527344 840.578125 108.28125 841.496094 C 108.023438 842.414062 108.351562 843.394531 109.105469 843.984375 C 121.945312 853.894531 140.136719 860.890625 157.886719 860.890625 C 167.597656 860.890625 177.179688 858.796875 185.679688 853.933594 C 199.5 846.03125 210.15625 833.511719 220.464844 821.414062 C 233.597656 805.984375 246.007812 791.417969 264.199219 786.023438 C 273.726562 783.1875 284.75 783.175781 295.753906 783.617188 C 295.734375 783.644531 295.707031 783.671875 295.6875 783.699219 C 283.976562 806.664062 271.191406 829.445312 257.683594 851.417969 C 257.480469 851.738281 257.453125 852.140625 257.601562 852.492188 C 257.746094 852.839844 258.058594 853.097656 258.425781 853.179688 C 258.765625 853.253906 259.1875 853.289062 259.675781 853.289062 C 270.046875 853.289062 312.007812 836.566406 327.078125 827.160156 C 303.324219 894.519531 282.492188 961.851562 265.703125 1025.730469 C 265.574219 1026.003906 265.492188 1026.289062 265.476562 1026.582031 C 265.207031 1027.59375 264.933594 1028.613281 264.675781 1029.613281 C 264.402344 1030.660156 264.878906 1031.761719 265.824219 1032.273438 C 266.179688 1032.46875 266.566406 1032.558594 266.941406 1032.558594 C 267.585938 1032.558594 268.226562 1032.292969 268.6875 1031.789062 C 312.449219 983.710938 352.347656 934.617188 389.34375 883.339844 C 384.203125 901.042969 379.421875 919.015625 375.15625 936.914062 C 375.035156 937.417969 375.265625 937.949219 375.714844 938.207031 C 375.898438 938.308594 376.101562 938.363281 376.300781 938.363281 C 376.59375 938.363281 376.878906 938.253906 377.109375 938.042969 C 393.824219 922.179688 407.453125 908.632812 420.285156 893.886719 C 416.457031 902.328125 413.316406 911.066406 411.847656 920.289062 C 408.664062 940.328125 413.539062 960.390625 418.253906 979.792969 C 419.523438 985.015625 420.835938 990.402344 421.953125 995.671875 C 428.617188 1027.015625 425.203125 1050.59375 411.804688 1065.757812 C 411.621094 1065.976562 411.472656 1066.222656 411.371094 1066.492188 C 411.34375 1066.5625 411.34375 1066.636719 411.324219 1066.71875 C 411.269531 1066.914062 411.234375 1067.113281 411.234375 1067.316406 C 411.234375 1067.417969 411.261719 1067.519531 411.269531 1067.621094 C 411.296875 1067.804688 411.335938 1067.988281 411.410156 1068.171875 C 411.425781 1068.214844 411.417969 1068.261719 411.445312 1068.316406 C 411.480469 1068.398438 411.546875 1068.472656 411.601562 1068.554688 C 411.628906 1068.601562 411.648438 1068.664062 411.683594 1068.722656 C 411.691406 1068.738281 411.71875 1068.75 411.738281 1068.765625 C 411.941406 1069.023438 412.1875 1069.226562 412.464844 1069.371094 C 412.519531 1069.398438 412.574219 1069.417969 412.628906 1069.445312 C 412.933594 1069.574219 413.242188 1069.667969 413.566406 1069.667969 C 413.894531 1069.667969 414.234375 1069.59375 414.546875 1069.445312 C 414.554688 1069.445312 414.554688 1069.445312 414.566406 1069.445312 C 414.585938 1069.4375 414.601562 1069.425781 414.621094 1069.417969 C 443.613281 1056.054688 463.714844 1032.84375 471.222656 1004.042969 C 474.132812 992.855469 475.28125 980.929688 476.382812 969.402344 C 478.457031 947.722656 480.410156 927.246094 493.167969 911.3125 C 494.214844 910.011719 495.34375 908.753906 496.5 907.523438 C 501.347656 930.917969 506.53125 954.535156 511.9375 977.765625 C 512.046875 978.269531 512.480469 978.636719 512.992188 978.671875 C 513.019531 978.671875 513.046875 978.671875 513.085938 978.671875 C 513.5625 978.671875 513.992188 978.390625 514.167969 977.9375 C 522.695312 956.636719 533.222656 928.585938 540.535156 897.410156 C 559.8125 972.347656 578.058594 1043.554688 595.183594 1123.167969 C 595.203125 1123.277344 595.265625 1123.367188 595.304688 1123.46875 C 595.339844 1123.578125 595.375 1123.6875 595.429688 1123.789062 C 595.515625 1123.945312 595.625 1124.074219 595.734375 1124.195312 C 595.796875 1124.277344 595.863281 1124.367188 595.945312 1124.433594 C 596.082031 1124.550781 596.238281 1124.644531 596.40625 1124.726562 C 596.488281 1124.773438 596.5625 1124.828125 596.644531 1124.863281 C 596.898438 1124.964844 597.175781 1125.019531 597.46875 1125.019531 C 597.46875 1125.019531 597.46875 1125.019531 597.476562 1125.019531 C 597.507812 1125.019531 597.542969 1125.019531 597.570312 1125.019531 C 597.578125 1125.019531 597.578125 1125.019531 597.578125 1125.019531 C 597.597656 1125.019531 597.617188 1125.019531 597.632812 1125.019531 C 597.71875 1125.011719 597.773438 1124.972656 597.84375 1124.957031 C 598.066406 1124.929688 598.269531 1124.882812 598.460938 1124.789062 C 598.5625 1124.746094 598.644531 1124.671875 598.734375 1124.617188 C 598.882812 1124.515625 599.03125 1124.421875 599.148438 1124.296875 C 599.230469 1124.210938 599.296875 1124.113281 599.367188 1124.019531 C 599.460938 1123.882812 599.550781 1123.746094 599.617188 1123.589844 C 599.664062 1123.46875 599.699219 1123.359375 599.726562 1123.230469 C 599.746094 1123.148438 599.800781 1123.066406 599.808594 1122.984375 C 604.996094 1083.453125 611.226562 1046.921875 617.257812 1011.585938 C 622.359375 981.636719 627.335938 952.480469 631.59375 922.308594 C 640.25 938.507812 649.105469 954.820312 658.007812 970.863281 C 658.21875 971.25 658.613281 971.46875 659.035156 971.46875 C 659.101562 971.46875 659.164062 971.46875 659.230469 971.449219 C 659.726562 971.367188 660.109375 970.980469 660.191406 970.488281 C 663.058594 953.535156 666.507812 931.984375 669.125 909.269531 C 669.96875 916.746094 671.464844 924.15625 675.125 930.910156 C 681.164062 942.050781 692.730469 950.726562 710.480469 957.398438 C 710.710938 957.488281 710.941406 957.5625 711.167969 957.644531 C 713.96875 959.085938 716.839844 960.1875 719.777344 960.820312 C 719.859375 960.839844 719.941406 960.847656 720.027344 960.847656 C 720.089844 960.847656 720.15625 960.832031 720.210938 960.820312 C 720.851562 961.03125 721.503906 961.253906 722.136719 961.472656 C 731.753906 964.703125 741.703125 968.046875 750.296875 973.421875 C 767.148438 983.976562 778.554688 1002.839844 780.089844 1022.664062 C 780.089844 1022.703125 780.105469 1022.738281 780.117188 1022.773438 C 780.125 1022.867188 780.152344 1022.957031 780.179688 1023.050781 C 780.226562 1023.234375 780.28125 1023.40625 780.371094 1023.574219 C 780.417969 1023.65625 780.464844 1023.738281 780.527344 1023.8125 C 780.628906 1023.96875 780.757812 1024.105469 780.90625 1024.234375 C 780.96875 1024.289062 781.035156 1024.351562 781.105469 1024.410156 C 781.335938 1024.566406 781.59375 1024.691406 781.867188 1024.765625 C 781.878906 1024.765625 781.878906 1024.765625 781.878906 1024.765625 C 782.015625 1024.804688 782.152344 1024.804688 782.300781 1024.8125 C 782.335938 1024.8125 782.382812 1024.832031 782.429688 1024.832031 C 782.429688 1024.832031 782.4375 1024.832031 782.4375 1024.832031 C 782.675781 1024.832031 782.90625 1024.785156 783.117188 1024.710938 C 783.191406 1024.691406 783.253906 1024.664062 783.320312 1024.636719 C 783.476562 1024.574219 783.621094 1024.492188 783.757812 1024.398438 C 783.816406 1024.351562 783.878906 1024.316406 783.933594 1024.269531 C 784.070312 1024.152344 784.199219 1024.015625 784.308594 1023.859375 C 784.335938 1023.820312 784.382812 1023.785156 784.402344 1023.738281 C 784.410156 1023.730469 784.421875 1023.71875 784.429688 1023.710938 C 802.554688 994.3125 801.390625 954.019531 781.527344 923.464844 C 778.140625 918.253906 774.195312 913.304688 770.378906 908.515625 C 762.941406 899.199219 755.914062 890.398438 752.5 879.648438 C 750.09375 872.078125 749.707031 864.183594 749.296875 855.832031 C 749.238281 854.777344 749.175781 853.703125 749.121094 852.628906 C 765.898438 869.242188 783.355469 885.515625 801.105469 901.015625 C 801.328125 901.210938 801.601562 901.308594 801.878906 901.308594 C 802.089844 901.308594 802.300781 901.246094 802.492188 901.125 C 802.933594 900.859375 803.144531 900.335938 803.015625 899.839844 C 800.03125 888.128906 795.644531 876.640625 791.394531 865.523438 C 787.035156 854.089844 782.539062 842.285156 779.582031 830.269531 C 815.140625 852.160156 847.796875 869.507812 883.515625 888.460938 C 909.382812 902.191406 936.136719 916.390625 967.609375 934.113281 C 967.664062 934.140625 967.71875 934.160156 967.773438 934.1875 C 967.835938 934.214844 967.902344 934.234375 967.957031 934.261719 C 968.222656 934.351562 968.488281 934.414062 968.753906 934.414062 C 968.78125 934.414062 968.8125 934.40625 968.839844 934.40625 C 969.105469 934.398438 969.363281 934.351562 969.609375 934.261719 C 969.699219 934.222656 969.773438 934.148438 969.855469 934.105469 C 970.023438 934.011719 970.207031 933.929688 970.351562 933.792969 C 970.363281 933.792969 970.363281 933.78125 970.371094 933.773438 C 970.371094 933.773438 970.378906 933.765625 970.390625 933.765625 C 970.417969 933.738281 970.425781 933.699219 970.453125 933.671875 C 970.617188 933.488281 970.757812 933.285156 970.867188 933.074219 C 970.902344 932.992188 970.929688 932.910156 970.957031 932.820312 C 971.011719 932.644531 971.058594 932.460938 971.078125 932.277344 C 971.085938 932.175781 971.085938 932.085938 971.085938 931.984375 C 971.078125 931.800781 971.042969 931.617188 970.984375 931.433594 C 970.96875 931.339844 970.949219 931.25 970.914062 931.167969 C 970.902344 931.128906 970.902344 931.101562 970.886719 931.074219 C 931.316406 846.113281 886.921875 799.386719 836.039062 749.007812 C 865.214844 753.933594 894.789062 758.453125 924.066406 762.417969 C 924.121094 762.417969 924.175781 762.425781 924.222656 762.425781 C 924.65625 762.425781 925.050781 762.1875 925.261719 761.808594 C 925.488281 761.371094 925.433594 760.847656 925.113281 760.480469 C 912.347656 745.804688 899.5625 731.007812 886.777344 716.214844 C 875.304688 702.933594 863.832031 689.667969 852.375 676.480469 C 865.730469 678.859375 878.570312 684.207031 889.519531 692.175781 C 895.9375 696.847656 901.847656 702.484375 907.554688 707.933594 C 913.125 713.238281 918.882812 718.726562 925.195312 723.4375 C 931.050781 727.804688 944.257812 736.222656 959.027344 736.222656 C 963.195312 736.222656 967.480469 735.550781 971.765625 733.925781 C 978.21875 731.496094 983.597656 727.21875 988.800781 723.085938 C 990.507812 721.738281 992.207031 720.378906 993.949219 719.09375 C 1004.898438 711 1016.628906 706.328125 1027.871094 705.585938 C 1040.667969 704.710938 1052.957031 709.191406 1060.738281 717.507812 C 1060.832031 717.691406 1060.949219 717.855469 1061.042969 718.03125 C 1061.457031 718.847656 1062.28125 719.316406 1063.136719 719.316406 C 1063.492188 719.316406 1063.859375 719.234375 1064.199219 719.058594 C 1065.355469 718.472656 1065.816406 717.058594 1065.226562 715.902344 C 1065.109375 715.664062 1064.953125 715.441406 1064.824219 715.203125 C 1063.363281 703.015625 1061.261719 691.375 1052.652344 682.640625 C 1044.898438 674.773438 1032.902344 671.101562 1016.949219 671.679688 C 1012.847656 671.828125 1008.707031 672.210938 1004.699219 672.578125 C 996.484375 673.332031 988.71875 674.046875 980.917969 673.019531 C 970.25 671.625 960.019531 666.824219 952.125 659.519531 C 947.160156 654.921875 943.011719 649.265625 938.992188 643.796875 C 937.300781 641.503906 935.613281 639.199219 933.859375 636.960938 C 925.011719 625.640625 914.226562 615.757812 902.214844 607.679688 C 908.398438 608.074219 914.59375 608.277344 920.789062 608.277344 C 938.183594 608.277344 955.574219 606.734375 972.71875 603.660156 C 973.1875 603.578125 973.554688 603.230469 973.65625 602.769531 C 973.765625 602.3125 973.59375 601.835938 973.214844 601.558594 C 958.109375 590.351562 940.292969 580.15625 921.488281 571.867188 C 981 553.070312 1030.351562 532.867188 1100.308594 504.25 L 1117.3125 497.292969 C 1117.332031 497.285156 1117.351562 497.265625 1117.378906 497.257812 C 1117.460938 497.210938 1117.523438 497.15625 1117.609375 497.109375 C 1117.773438 497.007812 1117.929688 496.898438 1118.066406 496.769531 C 1118.140625 496.699219 1118.195312 496.613281 1118.257812 496.53125 C 1118.371094 496.394531 1118.460938 496.238281 1118.535156 496.082031 C 1118.582031 495.980469 1118.617188 495.890625 1118.644531 495.789062 C 1118.699219 495.605469 1118.726562 495.414062 1118.738281 495.21875 C 1118.738281 495.148438 1118.773438 495.082031 1118.773438 495.007812 C 1118.773438 494.980469 1118.753906 494.953125 1118.746094 494.925781 Z M 792.847656 641.925781 C 782.519531 687.183594 757.28125 728.574219 721.769531 758.480469 C 686.257812 788.371094 641.175781 806.195312 594.824219 808.65625 C 534.535156 811.859375 473.039062 797.972656 426.175781 770.558594 C 377.136719 741.867188 341.296875 690.882812 327.851562 630.691406 C 316.734375 580.953125 307.464844 516.667969 334.660156 460.601562 C 368.042969 391.761719 437.207031 342.496094 519.675781 328.800781 C 534.351562 326.367188 548.816406 325.183594 562.996094 325.183594 C 668.644531 325.183594 757.574219 391.074219 786.953125 496.054688 C 800.65625 545.046875 802.804688 598.21875 792.847656 641.925781 Z M 518.902344 324.175781 C 434.941406 338.105469 364.480469 388.347656 330.429688 458.542969 C 302.601562 515.925781 311.980469 581.230469 323.261719 631.71875 C 336.992188 693.183594 373.640625 745.261719 423.800781 774.613281 C 466.9375 799.84375 522.1875 813.8125 577.699219 813.8125 C 583.480469 813.8125 589.292969 813.65625 595.074219 813.347656 C 642.441406 810.832031 688.507812 792.621094 724.796875 762.066406 C 761.082031 731.511719 786.878906 689.21875 797.425781 642.972656 C 807.558594 598.519531 805.390625 544.515625 791.476562 494.796875 C 757.480469 373.332031 645.390625 303.164062 518.902344 324.175781 " fill-opacity="1" fill-rule="nonzero"/></g></svg>