<svg xmlns="http://www.w3.org/2000/svg" xmlns:xlink="http://www.w3.org/1999/xlink" width="300" zoomAndPan="magnify" viewBox="0 0 224.87999 337.499995" height="450" preserveAspectRatio="xMidYMid meet" version="1.0"><defs><g/><clipPath id="fe84cd8f1c"><path d="M 0.105469 0 L 224.652344 0 L 224.652344 337 L 0.105469 337 Z M 0.105469 0 " clip-rule="nonzero"/></clipPath></defs><g clip-path="url(#fe84cd8f1c)"><path fill="#ffffff" d="M 0.105469 0 L 224.773438 0 L 224.773438 337 L 0.105469 337 Z M 0.105469 0 " fill-opacity="1" fill-rule="nonzero"/><path fill="#000000" d="M 0.105469 0 L 224.773438 0 L 224.773438 337 L 0.105469 337 Z M 0.105469 0 " fill-opacity="1" fill-rule="nonzero"/></g><g fill="#ffffff" fill-opacity="1"><g transform="translate(31.358052, 173.338078)"><g><path d="M 26.265625 -37.15625 C 27.117188 -37.414062 27.90625 -37.320312 28.625 -36.875 C 29.351562 -36.4375 29.945312 -35.832031 30.40625 -35.0625 C 30.863281 -34.289062 31.125 -33.507812 31.1875 -32.71875 C 31.15625 -32.789062 31.144531 -32.765625 31.15625 -32.640625 C 31.175781 -32.523438 31.1875 -32.488281 31.1875 -32.53125 C 31.1875 -32.394531 31.195312 -32.203125 31.21875 -31.953125 C 31.238281 -31.710938 31.210938 -31.578125 31.140625 -31.546875 C 31.171875 -31.578125 31.171875 -31.648438 31.140625 -31.765625 C 31.109375 -31.878906 31.078125 -31.984375 31.046875 -32.078125 C 31.078125 -31.648438 31.066406 -31.226562 31.015625 -30.8125 C 30.972656 -30.40625 30.914062 -29.988281 30.84375 -29.5625 C 30.914062 -29.695312 30.972656 -29.828125 31.015625 -29.953125 C 31.066406 -30.085938 31.09375 -30.15625 31.09375 -30.15625 C 31.15625 -29.925781 31.128906 -29.671875 31.015625 -29.390625 C 30.898438 -29.117188 30.8125 -28.863281 30.75 -28.625 C 30.582031 -28.039062 30.398438 -27.457031 30.203125 -26.875 C 30.003906 -26.300781 29.773438 -25.738281 29.515625 -25.1875 C 29.085938 -24.101562 28.5625 -23.09375 27.9375 -22.15625 C 27.3125 -21.21875 26.625 -20.304688 25.875 -19.421875 C 25.144531 -18.492188 24.382812 -17.628906 23.59375 -16.828125 C 22.8125 -16.023438 21.945312 -15.257812 21 -14.53125 C 20.664062 -14.269531 20.328125 -14.066406 19.984375 -13.921875 C 19.640625 -13.773438 19.285156 -13.601562 18.921875 -13.40625 C 18.597656 -13.238281 18.300781 -13.023438 18.03125 -12.765625 C 17.769531 -12.503906 17.457031 -12.273438 17.09375 -12.078125 C 16.207031 -11.546875 15.238281 -10.984375 14.1875 -10.390625 C 13.132812 -9.804688 12.082031 -9.429688 11.03125 -9.265625 C 10.675781 -9.203125 10.332031 -9.203125 10 -9.265625 C 9.875 -9.265625 9.726562 -9.269531 9.5625 -9.28125 C 9.394531 -9.300781 9.226562 -9.328125 9.0625 -9.359375 C 8.664062 -9.617188 8.4375 -9.488281 8.375 -8.96875 C 7.976562 -8.539062 7.664062 -7.921875 7.4375 -7.109375 C 7.207031 -6.304688 6.992188 -5.628906 6.796875 -5.078125 C 6.304688 -3.765625 5.835938 -2.414062 5.390625 -1.03125 C 4.953125 0.34375 4.648438 1.722656 4.484375 3.109375 C 4.421875 3.035156 4.390625 2.96875 4.390625 2.90625 C 4.085938 3.195312 3.648438 3.429688 3.078125 3.609375 C 2.503906 3.796875 1.953125 3.820312 1.421875 3.6875 C 0.898438 3.5625 0.554688 3.234375 0.390625 2.703125 C 0.359375 2.640625 0.34375 2.5625 0.34375 2.46875 C 0.3125 2.5 0.296875 2.5625 0.296875 2.65625 C 0.0664062 2.332031 -0.03125 1.914062 0 1.40625 C 0.03125 0.894531 0.109375 0.382812 0.234375 -0.125 C 0.367188 -0.632812 0.472656 -1.035156 0.546875 -1.328125 L 1.578125 -6.359375 C 1.742188 -7.109375 1.929688 -7.851562 2.140625 -8.59375 C 2.359375 -9.332031 2.628906 -10.050781 2.953125 -10.75 C 3.054688 -11.007812 3.171875 -11.253906 3.296875 -11.484375 C 3.429688 -11.710938 3.546875 -11.941406 3.640625 -12.171875 C 3.679688 -12.203125 3.75 -12.4375 3.84375 -12.875 C 3.9375 -13.320312 4.003906 -13.566406 4.046875 -13.609375 C 4.078125 -13.566406 4.09375 -13.5 4.09375 -13.40625 C 4.125 -13.46875 4.144531 -13.53125 4.15625 -13.59375 C 4.175781 -13.664062 4.1875 -13.734375 4.1875 -13.796875 C 4.125 -13.671875 4.097656 -13.671875 4.109375 -13.796875 C 4.128906 -13.929688 4.15625 -14.101562 4.1875 -14.3125 C 4.21875 -14.53125 4.234375 -14.640625 4.234375 -14.640625 C 4.335938 -14.929688 4.445312 -15.222656 4.5625 -15.515625 C 4.675781 -15.816406 4.796875 -16.113281 4.921875 -16.40625 C 5.117188 -16.863281 5.285156 -17.316406 5.421875 -17.765625 C 5.554688 -18.210938 5.671875 -18.664062 5.765625 -19.125 C 5.796875 -19.21875 5.894531 -19.492188 6.0625 -19.953125 C 6.226562 -20.421875 6.425781 -20.929688 6.65625 -21.484375 C 6.882812 -22.046875 7.101562 -22.53125 7.3125 -22.9375 C 7.53125 -23.351562 7.703125 -23.539062 7.828125 -23.5 C 7.867188 -23.5 7.851562 -23.441406 7.78125 -23.328125 C 7.71875 -23.210938 7.703125 -23.140625 7.734375 -23.109375 C 7.835938 -23.335938 7.9375 -23.554688 8.03125 -23.765625 C 8.132812 -23.984375 8.21875 -24.207031 8.28125 -24.4375 C 8.21875 -24.3125 8.148438 -24.234375 8.078125 -24.203125 C 8.046875 -24.203125 8.160156 -24.503906 8.421875 -25.109375 C 8.691406 -25.710938 9.015625 -26.425781 9.390625 -27.25 C 9.765625 -28.070312 10.097656 -28.816406 10.390625 -29.484375 C 10.691406 -30.160156 10.875 -30.566406 10.9375 -30.703125 C 11.164062 -31.265625 11.394531 -31.820312 11.625 -32.375 C 11.851562 -32.9375 12.132812 -33.460938 12.46875 -33.953125 C 12.632812 -34.148438 12.789062 -34.304688 12.9375 -34.421875 C 13.082031 -34.535156 13.207031 -34.660156 13.3125 -34.796875 C 13.375 -34.890625 13.425781 -35.019531 13.46875 -35.1875 C 13.519531 -35.351562 13.582031 -35.5 13.65625 -35.625 C 13.78125 -35.894531 13.96875 -36.25 14.21875 -36.6875 C 14.46875 -37.132812 14.753906 -37.421875 15.078125 -37.546875 C 15.609375 -37.773438 16.050781 -37.644531 16.40625 -37.15625 C 16.769531 -36.664062 17.019531 -36.222656 17.15625 -35.828125 C 17.3125 -35.429688 17.363281 -35.125 17.3125 -34.90625 C 17.269531 -34.695312 17.164062 -34.460938 17 -34.203125 L 17.15625 -34.296875 C 17.21875 -34.296875 17.164062 -34.128906 17 -33.796875 C 16.832031 -33.472656 16.660156 -33.15625 16.484375 -32.84375 C 16.304688 -32.53125 16.179688 -32.375 16.109375 -32.375 C 16.078125 -32.375 16.128906 -32.523438 16.265625 -32.828125 C 15.535156 -31.503906 14.859375 -30.171875 14.234375 -28.828125 C 13.617188 -27.484375 13.03125 -26.117188 12.46875 -24.734375 C 12.5 -24.804688 12.644531 -25.132812 12.90625 -25.71875 C 13.175781 -26.3125 13.484375 -26.96875 13.828125 -27.6875 C 14.171875 -28.414062 14.472656 -29.050781 14.734375 -29.59375 C 14.992188 -30.132812 15.140625 -30.40625 15.171875 -30.40625 C 15.140625 -30.40625 14.984375 -30.082031 14.703125 -29.4375 C 14.429688 -28.800781 14.101562 -28.046875 13.71875 -27.171875 C 13.34375 -26.304688 13 -25.507812 12.6875 -24.78125 C 12.375 -24.0625 12.1875 -23.617188 12.125 -23.453125 C 11.664062 -22.335938 11.226562 -21.195312 10.8125 -20.03125 C 10.40625 -18.863281 10.035156 -17.691406 9.703125 -16.515625 C 10.265625 -17.660156 10.847656 -18.773438 11.453125 -19.859375 C 12.066406 -20.941406 12.734375 -22.007812 13.453125 -23.0625 C 14.109375 -24.019531 14.796875 -24.914062 15.515625 -25.75 C 16.242188 -26.582031 16.953125 -27.445312 17.640625 -28.34375 C 17.640625 -28.34375 17.722656 -28.492188 17.890625 -28.796875 C 18.054688 -29.109375 18.203125 -29.285156 18.328125 -29.328125 C 18.328125 -29.328125 18.238281 -29.191406 18.0625 -28.921875 C 17.882812 -28.660156 17.8125 -28.546875 17.84375 -28.578125 L 18.53125 -29.46875 C 18.5 -29.46875 18.46875 -29.484375 18.4375 -29.515625 C 18.5 -29.878906 18.734375 -30.273438 19.140625 -30.703125 C 19.554688 -31.128906 19.878906 -31.457031 20.109375 -31.6875 C 20.429688 -32.050781 20.765625 -32.40625 21.109375 -32.75 C 21.460938 -33.09375 21.800781 -33.425781 22.125 -33.75 C 22.6875 -34.3125 23.328125 -34.960938 24.046875 -35.703125 C 24.773438 -36.441406 25.515625 -36.925781 26.265625 -37.15625 Z M 26.21875 -31.140625 L 26.21875 -31.1875 C 26.28125 -32.144531 26.15625 -32.703125 25.84375 -32.859375 C 25.53125 -33.023438 25.128906 -32.941406 24.640625 -32.609375 C 24.148438 -32.285156 23.632812 -31.84375 23.09375 -31.28125 C 22.550781 -30.726562 22.066406 -30.1875 21.640625 -29.65625 C 21.210938 -29.132812 20.914062 -28.773438 20.75 -28.578125 C 19.4375 -26.972656 18.097656 -25.304688 16.734375 -23.578125 C 15.367188 -21.859375 14.144531 -20.125 13.0625 -18.375 C 13.09375 -18.507812 13.175781 -18.578125 13.3125 -18.578125 C 13.3125 -18.578125 13.226562 -18.421875 13.0625 -18.109375 C 12.894531 -17.796875 12.703125 -17.429688 12.484375 -17.015625 C 12.273438 -16.609375 12.078125 -16.234375 11.890625 -15.890625 C 11.710938 -15.546875 11.59375 -15.34375 11.53125 -15.28125 C 11.195312 -14.65625 10.863281 -14.019531 10.53125 -13.375 C 10.207031 -12.738281 9.882812 -12.09375 9.5625 -11.4375 C 9.625 -11.46875 9.835938 -11.5625 10.203125 -11.71875 C 10.566406 -11.882812 10.921875 -12.035156 11.265625 -12.171875 C 11.609375 -12.304688 11.796875 -12.359375 11.828125 -12.328125 C 11.828125 -12.285156 11.644531 -12.175781 11.28125 -12 C 10.925781 -11.820312 10.648438 -11.664062 10.453125 -11.53125 C 12.941406 -12.582031 15.203125 -14.023438 17.234375 -15.859375 C 19.273438 -17.703125 21.054688 -19.742188 22.578125 -21.984375 C 22.078125 -21.253906 21.546875 -20.5625 20.984375 -19.90625 C 20.429688 -19.25 19.859375 -18.59375 19.265625 -17.9375 C 18.910156 -17.570312 18.535156 -17.203125 18.140625 -16.828125 C 17.742188 -16.453125 17.347656 -16.082031 16.953125 -15.71875 C 16.753906 -15.59375 16.472656 -15.410156 16.109375 -15.171875 C 15.753906 -14.941406 15.476562 -14.726562 15.28125 -14.53125 C 15.507812 -14.800781 15.8125 -15.054688 16.1875 -15.296875 C 16.5625 -15.546875 16.863281 -15.785156 17.09375 -16.015625 C 17.6875 -16.503906 18.265625 -17.03125 18.828125 -17.59375 C 19.421875 -18.25 19.992188 -18.90625 20.546875 -19.5625 C 21.109375 -20.21875 21.632812 -20.910156 22.125 -21.640625 C 23.082031 -22.984375 23.96875 -24.46875 24.78125 -26.09375 C 25.601562 -27.71875 26.082031 -29.382812 26.21875 -31.09375 C 26.1875 -31.0625 26.171875 -31.035156 26.171875 -31.015625 C 26.171875 -31.003906 26.1875 -31.046875 26.21875 -31.140625 Z M 1.96875 -5.671875 C 1.84375 -5.242188 1.726562 -4.738281 1.625 -4.15625 C 1.53125 -3.582031 1.429688 -3.050781 1.328125 -2.5625 C 1.753906 -3.976562 2.222656 -5.40625 2.734375 -6.84375 C 3.242188 -8.289062 3.710938 -9.722656 4.140625 -11.140625 C 3.804688 -10.179688 3.425781 -9.289062 3 -8.46875 C 2.570312 -7.65625 2.226562 -6.722656 1.96875 -5.671875 Z M 0.984375 0.640625 C 1.046875 0.378906 1.0625 0.101562 1.03125 -0.1875 C 1 -0.488281 1 -0.769531 1.03125 -1.03125 C 0.9375 -0.632812 0.847656 -0.25 0.765625 0.125 C 0.679688 0.5 0.609375 0.898438 0.546875 1.328125 C 0.578125 1.203125 0.648438 1.078125 0.765625 0.953125 C 0.878906 0.835938 0.953125 0.734375 0.984375 0.640625 Z M 11.828125 -23.109375 L 11.78125 -23.0625 L 10.796875 -20.546875 Z M 11.875 -23.3125 C 11.84375 -23.25 11.828125 -23.195312 11.828125 -23.15625 C 11.828125 -23.195312 11.832031 -23.222656 11.84375 -23.234375 C 11.863281 -23.253906 11.875 -23.28125 11.875 -23.3125 Z M 11.96875 -23.5 L 11.96875 -23.5625 L 11.921875 -23.453125 Z M 12.609375 -17.6875 C 12.609375 -17.6875 12.617188 -17.691406 12.640625 -17.703125 C 12.660156 -17.722656 12.671875 -17.753906 12.671875 -17.796875 C 12.671875 -17.753906 12.660156 -17.734375 12.640625 -17.734375 C 12.617188 -17.734375 12.609375 -17.71875 12.609375 -17.6875 Z M 12.609375 -17.6875 "/></g></g></g><g fill="#ffffff" fill-opacity="1"><g transform="translate(56.244293, 173.338078)"><g><path d="M 23.3125 -12.03125 C 23.34375 -11.726562 23.21875 -11.351562 22.9375 -10.90625 C 22.65625 -10.46875 22.4375 -10.117188 22.28125 -9.859375 C 21.945312 -9.265625 21.550781 -8.695312 21.09375 -8.15625 C 20.632812 -7.613281 20.175781 -7.078125 19.71875 -6.546875 C 19.25 -6.054688 18.710938 -5.488281 18.109375 -4.84375 C 17.503906 -4.207031 16.847656 -3.648438 16.140625 -3.171875 C 15.429688 -2.703125 14.679688 -2.429688 13.890625 -2.359375 C 13.367188 -2.328125 12.84375 -2.4375 12.3125 -2.6875 C 11.789062 -2.9375 11.382812 -3.304688 11.09375 -3.796875 C 10.757812 -4.421875 10.617188 -5.082031 10.671875 -5.78125 C 10.722656 -6.488281 10.867188 -7.1875 11.109375 -7.875 C 11.359375 -8.570312 11.582031 -9.195312 11.78125 -9.75 C 11.15625 -9 10.53125 -8.238281 9.90625 -7.46875 C 9.28125 -6.695312 8.65625 -5.914062 8.03125 -5.125 C 7.9375 -5.03125 7.675781 -4.757812 7.25 -4.3125 C 6.820312 -3.863281 6.335938 -3.394531 5.796875 -2.90625 C 5.253906 -2.414062 4.757812 -2.019531 4.3125 -1.71875 C 3.863281 -1.425781 3.578125 -1.363281 3.453125 -1.53125 C 3.453125 -1.5625 3.523438 -1.609375 3.671875 -1.671875 C 3.816406 -1.742188 3.875 -1.796875 3.84375 -1.828125 C 3.613281 -1.691406 3.359375 -1.566406 3.078125 -1.453125 C 2.796875 -1.335938 2.523438 -1.28125 2.265625 -1.28125 C 2.296875 -1.25 2.378906 -1.234375 2.515625 -1.234375 C 2.546875 -1.128906 2.445312 -1.09375 2.21875 -1.125 C 1.988281 -1.164062 1.75 -1.234375 1.5 -1.328125 C 1.257812 -1.429688 1.101562 -1.5 1.03125 -1.53125 C 0.769531 -1.789062 0.566406 -2.097656 0.421875 -2.453125 C 0.273438 -2.816406 0.164062 -3.164062 0.09375 -3.5 C -0.03125 -4.289062 -0.046875 -5.078125 0.046875 -5.859375 C 0.148438 -6.648438 0.300781 -7.425781 0.5 -8.1875 C 0.6875 -8.96875 0.894531 -9.742188 1.125 -10.515625 C 1.363281 -11.285156 1.644531 -12.050781 1.96875 -12.8125 C 2.132812 -13.207031 2.347656 -13.535156 2.609375 -13.796875 C 2.867188 -14.054688 3.082031 -14.351562 3.25 -14.6875 C 3.507812 -15.3125 3.828125 -15.972656 4.203125 -16.671875 C 4.585938 -17.378906 5.039062 -17.945312 5.5625 -18.375 C 6.03125 -18.769531 6.597656 -18.953125 7.265625 -18.921875 C 7.941406 -18.890625 8.492188 -18.691406 8.921875 -18.328125 C 9.378906 -18.003906 9.539062 -17.726562 9.40625 -17.5 C 9.28125 -17.269531 9.117188 -16.972656 8.921875 -16.609375 C 9.015625 -16.773438 9.113281 -16.875 9.21875 -16.90625 C 9.25 -16.90625 9.164062 -16.707031 8.96875 -16.3125 C 8.769531 -15.914062 8.5625 -15.519531 8.34375 -15.125 C 8.132812 -14.726562 7.984375 -14.53125 7.890625 -14.53125 C 7.890625 -14.53125 7.921875 -14.628906 7.984375 -14.828125 C 8.046875 -15.023438 8.113281 -15.191406 8.1875 -15.328125 C 7.851562 -14.765625 7.535156 -14.1875 7.234375 -13.59375 C 6.941406 -13.007812 6.664062 -12.421875 6.40625 -11.828125 C 6.5 -11.960938 6.597656 -12.03125 6.703125 -12.03125 C 6.671875 -12.03125 6.554688 -11.796875 6.359375 -11.328125 C 6.160156 -10.867188 5.9375 -10.328125 5.6875 -9.703125 C 5.445312 -9.078125 5.226562 -8.507812 5.03125 -8 C 4.832031 -7.5 4.71875 -7.195312 4.6875 -7.09375 C 4.613281 -6.863281 4.507812 -6.519531 4.375 -6.0625 C 4.25 -5.601562 4.203125 -5.21875 4.234375 -4.90625 C 4.265625 -4.59375 4.492188 -4.5 4.921875 -4.625 C 5.648438 -4.820312 6.34375 -5.304688 7 -6.078125 C 7.65625 -6.859375 8.195312 -7.507812 8.625 -8.03125 C 9.21875 -8.6875 9.765625 -9.375 10.265625 -10.09375 C 10.773438 -10.820312 11.296875 -11.546875 11.828125 -12.265625 C 12.191406 -12.828125 12.585938 -13.4375 13.015625 -14.09375 C 13.441406 -14.75 13.957031 -15.273438 14.5625 -15.671875 C 15.164062 -16.066406 15.878906 -16.148438 16.703125 -15.921875 C 17.460938 -15.722656 17.84375 -15.359375 17.84375 -14.828125 C 17.84375 -14.304688 17.6875 -13.738281 17.375 -13.125 C 17.0625 -12.519531 16.789062 -11.988281 16.5625 -11.53125 C 16.726562 -11.695312 16.8125 -11.765625 16.8125 -11.734375 C 16.90625 -11.628906 16.882812 -11.390625 16.75 -11.015625 C 16.625 -10.640625 16.476562 -10.253906 16.3125 -9.859375 C 16.144531 -9.460938 16.03125 -9.179688 15.96875 -9.015625 C 15.832031 -8.554688 15.679688 -8.0625 15.515625 -7.53125 C 15.359375 -7.007812 15.265625 -6.488281 15.234375 -5.96875 C 15.191406 -5.375 15.257812 -5.109375 15.4375 -5.171875 C 15.625 -5.234375 15.914062 -5.414062 16.3125 -5.71875 C 17.164062 -6.375 17.945312 -7.101562 18.65625 -7.90625 C 19.363281 -8.707031 20.078125 -9.488281 20.796875 -10.25 C 20.828125 -10.28125 20.960938 -10.425781 21.203125 -10.6875 C 21.453125 -10.957031 21.734375 -11.238281 22.046875 -11.53125 C 22.359375 -11.820312 22.640625 -12.035156 22.890625 -12.171875 C 23.140625 -12.304688 23.28125 -12.257812 23.3125 -12.03125 Z M 15.8125 -11.03125 C 15.976562 -11.5625 16.175781 -12.082031 16.40625 -12.59375 C 16.632812 -13.101562 16.847656 -13.617188 17.046875 -14.140625 C 16.890625 -13.742188 16.660156 -13.304688 16.359375 -12.828125 C 16.066406 -12.359375 15.8125 -11.894531 15.59375 -11.4375 C 15.382812 -10.976562 15.34375 -10.535156 15.46875 -10.109375 C 15.46875 -10.035156 15.453125 -9.984375 15.421875 -9.953125 C 15.492188 -10.015625 15.53125 -10.066406 15.53125 -10.109375 C 15.59375 -10.234375 15.644531 -10.382812 15.6875 -10.5625 C 15.738281 -10.75 15.78125 -10.90625 15.8125 -11.03125 Z M 4.09375 -4.6875 C 4.0625 -4.914062 4.179688 -5.519531 4.453125 -6.5 C 4.734375 -7.488281 5.039062 -8.457031 5.375 -9.40625 C 5.113281 -8.75 4.800781 -7.976562 4.4375 -7.09375 C 4.070312 -6.207031 3.957031 -5.40625 4.09375 -4.6875 Z M 11.78125 -9.515625 C 11.84375 -9.710938 11.90625 -9.859375 11.96875 -9.953125 C 11.84375 -9.859375 11.78125 -9.710938 11.78125 -9.515625 Z M 11.78125 -9.515625 "/></g></g></g><g fill="#ffffff" fill-opacity="1"><g transform="translate(75.956167, 173.338078)"><g><path d="M 19.71875 -12.5625 C 20.101562 -12.957031 20.378906 -13.070312 20.546875 -12.90625 C 20.710938 -12.75 20.800781 -12.476562 20.8125 -12.09375 C 20.832031 -11.71875 20.8125 -11.398438 20.75 -11.140625 C 20.613281 -10.609375 20.394531 -10.085938 20.09375 -9.578125 C 19.800781 -9.078125 19.507812 -8.578125 19.21875 -8.078125 C 18.5 -6.898438 17.789062 -5.691406 17.09375 -4.453125 C 16.40625 -3.222656 15.648438 -2.019531 14.828125 -0.84375 C 13.941406 0.4375 13.015625 1.707031 12.046875 2.96875 C 11.078125 4.238281 10.019531 5.429688 8.875 6.546875 C 8.25 7.140625 7.539062 7.65625 6.75 8.09375 C 5.957031 8.539062 5.160156 8.753906 4.359375 8.734375 C 3.554688 8.722656 2.757812 8.375 1.96875 7.6875 C 1.28125 7.03125 0.796875 6.25 0.515625 5.34375 C 0.234375 4.4375 0.078125 3.484375 0.046875 2.484375 C 0.015625 1.484375 0.015625 0.554688 0.046875 -0.296875 C 0.148438 -1.671875 0.359375 -3.03125 0.671875 -4.375 C 0.984375 -5.726562 1.300781 -7.0625 1.625 -8.375 C 1.65625 -8.4375 1.671875 -8.679688 1.671875 -9.109375 C 1.671875 -9.535156 1.738281 -9.832031 1.875 -10 C 1.84375 -9.96875 1.828125 -9.878906 1.828125 -9.734375 C 1.828125 -9.585938 1.8125 -9.429688 1.78125 -9.265625 C 1.84375 -9.429688 1.894531 -9.601562 1.9375 -9.78125 C 1.988281 -9.957031 2.050781 -10.128906 2.125 -10.296875 L 1.96875 -10.296875 C 1.90625 -10.785156 1.992188 -11.367188 2.234375 -12.046875 C 2.484375 -12.722656 2.675781 -13.289062 2.8125 -13.75 C 2.976562 -14.3125 3.15625 -14.882812 3.34375 -15.46875 C 3.539062 -16.0625 3.738281 -16.640625 3.9375 -17.203125 C 4.300781 -18.253906 4.679688 -19.304688 5.078125 -20.359375 C 5.472656 -21.410156 5.832031 -22.457031 6.15625 -23.5 C 6.488281 -24.550781 6.882812 -25.585938 7.34375 -26.609375 C 7.800781 -27.628906 8.273438 -28.632812 8.765625 -29.625 C 9.234375 -30.570312 9.726562 -31.503906 10.25 -32.421875 C 10.3125 -32.523438 10.441406 -32.765625 10.640625 -33.140625 C 10.835938 -33.515625 11.050781 -33.882812 11.28125 -34.25 C 11.507812 -34.613281 11.660156 -34.78125 11.734375 -34.75 L 11.328125 -33.90625 L 12.90625 -36.609375 L 12.859375 -36.5625 C 12.992188 -36.757812 13.132812 -37.015625 13.28125 -37.328125 C 13.425781 -37.640625 13.566406 -37.863281 13.703125 -38 L 14.828125 -39.53125 C 15.191406 -39.957031 15.585938 -40.414062 16.015625 -40.90625 C 16.441406 -41.394531 16.9375 -41.722656 17.5 -41.890625 C 18.21875 -42.117188 18.878906 -42.066406 19.484375 -41.734375 C 20.097656 -41.410156 20.597656 -40.9375 20.984375 -40.3125 C 21.378906 -39.6875 21.628906 -39.046875 21.734375 -38.390625 L 21.78125 -38.34375 L 21.78125 -38.09375 C 21.882812 -37.101562 21.785156 -36.066406 21.484375 -34.984375 C 21.191406 -33.898438 20.8125 -32.84375 20.34375 -31.8125 C 19.882812 -30.78125 19.425781 -29.835938 18.96875 -28.984375 C 18.570312 -28.191406 18.148438 -27.359375 17.703125 -26.484375 C 17.265625 -25.617188 16.734375 -24.859375 16.109375 -24.203125 C 15.679688 -23.734375 15.335938 -23.242188 15.078125 -22.734375 C 14.816406 -22.234375 14.503906 -21.703125 14.140625 -21.140625 C 13.222656 -19.628906 12.253906 -18.132812 11.234375 -16.65625 C 10.210938 -15.175781 9.144531 -13.75 8.03125 -12.375 C 7.769531 -12.039062 7.546875 -11.734375 7.359375 -11.453125 C 7.179688 -11.171875 7.03125 -10.800781 6.90625 -10.34375 C 6.769531 -9.882812 6.632812 -9.414062 6.5 -8.9375 C 6.375 -8.46875 6.242188 -7.984375 6.109375 -7.484375 C 5.972656 -6.992188 5.835938 -6.5 5.703125 -6 C 5.578125 -5.507812 5.453125 -5.019531 5.328125 -4.53125 C 5.285156 -4.300781 5.179688 -3.9375 5.015625 -3.4375 C 4.859375 -2.945312 4.796875 -2.671875 4.828125 -2.609375 C 4.691406 -2.054688 4.59375 -1.445312 4.53125 -0.78125 L 4.921875 -2.265625 C 5.054688 -2.066406 5.066406 -1.6875 4.953125 -1.125 C 4.835938 -0.570312 4.765625 -0.179688 4.734375 0.046875 C 4.628906 0.773438 4.578125 1.546875 4.578125 2.359375 C 4.578125 2.660156 4.59375 3.054688 4.625 3.546875 C 4.664062 4.035156 4.773438 4.484375 4.953125 4.890625 C 5.128906 5.304688 5.414062 5.550781 5.8125 5.625 C 6.375 5.6875 6.929688 5.503906 7.484375 5.078125 C 8.046875 4.648438 8.554688 4.15625 9.015625 3.59375 C 9.472656 3.039062 9.835938 2.597656 10.109375 2.265625 C 11.117188 1.046875 12.0625 -0.222656 12.9375 -1.546875 C 13.8125 -2.878906 14.65625 -4.203125 15.46875 -5.515625 C 15.9375 -6.203125 16.375 -6.890625 16.78125 -7.578125 C 17.1875 -8.273438 17.601562 -8.984375 18.03125 -9.703125 C 18.300781 -10.160156 18.566406 -10.660156 18.828125 -11.203125 C 19.085938 -11.753906 19.382812 -12.207031 19.71875 -12.5625 Z M 13.546875 -30.203125 C 12.628906 -28.003906 11.800781 -25.753906 11.0625 -23.453125 C 10.320312 -21.160156 9.59375 -18.925781 8.875 -16.75 C 10.707031 -19.675781 12.550781 -22.691406 14.40625 -25.796875 C 16.269531 -28.898438 17.757812 -32.097656 18.875 -35.390625 C 18.445312 -34.203125 17.945312 -33.039062 17.375 -31.90625 C 16.800781 -30.769531 16.234375 -29.660156 15.671875 -28.578125 C 15.335938 -27.953125 15 -27.335938 14.65625 -26.734375 C 14.3125 -26.128906 13.960938 -25.515625 13.609375 -24.890625 C 13.367188 -24.523438 13.078125 -24.085938 12.734375 -23.578125 C 12.390625 -23.066406 12.132812 -22.613281 11.96875 -22.21875 C 12.164062 -22.882812 12.507812 -23.5625 13 -24.25 C 13.5 -24.9375 13.914062 -25.578125 14.25 -26.171875 L 16.3125 -30.015625 C 16.90625 -31.191406 17.550781 -32.476562 18.25 -33.875 C 18.957031 -35.269531 19.332031 -36.660156 19.375 -38.046875 L 19.375 -38.09375 C 19.40625 -38.75 19.3125 -39.101562 19.09375 -39.15625 C 18.882812 -39.207031 18.625 -39.097656 18.3125 -38.828125 C 18 -38.566406 17.707031 -38.265625 17.4375 -37.921875 C 17.175781 -37.578125 17 -37.335938 16.90625 -37.203125 C 16.21875 -36.085938 15.609375 -34.9375 15.078125 -33.75 C 14.554688 -32.570312 14.046875 -31.390625 13.546875 -30.203125 Z M 11.96875 -33.65625 C 11.707031 -33.132812 11.453125 -32.625 11.203125 -32.125 C 10.960938 -31.632812 10.726562 -31.109375 10.5 -30.546875 C 10.46875 -30.515625 10.453125 -30.453125 10.453125 -30.359375 C 11.003906 -31.335938 11.578125 -32.3125 12.171875 -33.28125 C 12.765625 -34.257812 13.320312 -35.253906 13.84375 -36.265625 C 13.613281 -35.835938 13.3125 -35.410156 12.9375 -34.984375 C 12.5625 -34.554688 12.238281 -34.113281 11.96875 -33.65625 Z M 2.65625 -8.1875 C 2.6875 -8.21875 2.703125 -8.253906 2.703125 -8.296875 C 2.703125 -8.347656 2.671875 -8.359375 2.609375 -8.328125 C 2.515625 -8.328125 2.410156 -8.101562 2.296875 -7.65625 C 2.179688 -7.21875 2.085938 -6.71875 2.015625 -6.15625 L 2.015625 -6.203125 C 1.859375 -5.347656 1.726562 -4.46875 1.625 -3.5625 C 1.53125 -2.664062 1.445312 -1.773438 1.375 -0.890625 L 1.53125 -2.46875 L 1.53125 -2.3125 C 1.53125 -2.476562 1.546875 -2.644531 1.578125 -2.8125 C 1.609375 -2.976562 1.640625 -3.140625 1.671875 -3.296875 C 1.835938 -4.054688 1.960938 -4.863281 2.046875 -5.71875 C 2.128906 -6.570312 2.316406 -7.34375 2.609375 -8.03125 C 2.609375 -8.03125 2.609375 -8.046875 2.609375 -8.078125 C 2.609375 -8.109375 2.625 -8.144531 2.65625 -8.1875 Z M 2.65625 -8.1875 "/></g></g></g><g fill="#ffffff" fill-opacity="1"><g transform="translate(93.401175, 173.338078)"><g><path d="M 19.5625 -11.578125 L 19.5625 -11.53125 C 19.625 -11.007812 19.453125 -10.515625 19.046875 -10.046875 C 18.640625 -9.585938 18.164062 -9.1875 17.625 -8.84375 C 17.082031 -8.5 16.628906 -8.195312 16.265625 -7.9375 C 15.535156 -7.40625 14.8125 -6.898438 14.09375 -6.421875 C 13.375 -5.953125 12.617188 -5.503906 11.828125 -5.078125 C 11.628906 -4.972656 11.398438 -4.867188 11.140625 -4.765625 C 10.878906 -4.671875 10.648438 -4.546875 10.453125 -4.390625 C 10.179688 -4.160156 10.046875 -4.003906 10.046875 -3.921875 C 10.046875 -3.835938 10.066406 -3.597656 10.109375 -3.203125 C 10.171875 -2.773438 10.222656 -2.332031 10.265625 -1.875 C 10.316406 -1.414062 10.34375 -0.957031 10.34375 -0.5 C 10.375 0.195312 10.347656 0.890625 10.265625 1.578125 C 10.191406 2.265625 10.019531 2.9375 9.75 3.59375 C 9.164062 5.101562 8.289062 6.3125 7.125 7.21875 C 5.957031 8.125 4.519531 8.5625 2.8125 8.53125 C 1.789062 8.488281 0.820312 8.296875 -0.09375 7.953125 C -1.019531 7.609375 -1.742188 7.070312 -2.265625 6.34375 C -2.796875 5.625 -2.960938 4.722656 -2.765625 3.640625 C -2.796875 3.679688 -2.832031 3.847656 -2.875 4.140625 C -2.925781 4.429688 -2.96875 4.5625 -3 4.53125 C -3.164062 4.4375 -3.195312 4.191406 -3.09375 3.796875 C -3 3.398438 -2.9375 3.132812 -2.90625 3 C -2.613281 2.082031 -2.113281 1.257812 -1.40625 0.53125 C -0.695312 -0.1875 0.015625 -0.820312 0.734375 -1.375 C 1.160156 -1.707031 1.578125 -2.03125 1.984375 -2.34375 C 2.398438 -2.65625 2.820312 -2.941406 3.25 -3.203125 C 3.582031 -3.398438 4.023438 -3.644531 4.578125 -3.9375 C 5.140625 -4.238281 5.4375 -4.550781 5.46875 -4.875 C 5.53125 -5.238281 5.453125 -5.722656 5.234375 -6.328125 C 5.023438 -6.941406 4.875 -7.425781 4.78125 -7.78125 C 4.675781 -8.238281 4.554688 -8.710938 4.421875 -9.203125 C 4.296875 -9.703125 4.203125 -10.195312 4.140625 -10.6875 C 4.109375 -11.019531 4.113281 -11.300781 4.15625 -11.53125 C 4.207031 -11.757812 4.203125 -12.023438 4.140625 -12.328125 C 4.003906 -12.710938 3.882812 -13.09375 3.78125 -13.46875 C 3.6875 -13.851562 3.625 -14.257812 3.59375 -14.6875 C 3.5625 -15.113281 3.5625 -15.53125 3.59375 -15.9375 C 3.625 -16.351562 3.707031 -16.757812 3.84375 -17.15625 C 3.9375 -17.445312 4.148438 -17.804688 4.484375 -18.234375 C 4.816406 -18.660156 5.203125 -19.046875 5.640625 -19.390625 C 6.085938 -19.734375 6.539062 -19.960938 7 -20.078125 C 7.457031 -20.191406 7.851562 -20.101562 8.1875 -19.8125 C 8.1875 -19.945312 8.289062 -19.859375 8.5 -19.546875 C 8.71875 -19.234375 8.84375 -18.992188 8.875 -18.828125 C 8.875 -18.765625 8.851562 -18.566406 8.8125 -18.234375 C 8.78125 -17.898438 8.722656 -17.585938 8.640625 -17.296875 C 8.566406 -17.003906 8.476562 -16.859375 8.375 -16.859375 C 8.375 -16.859375 8.390625 -16.945312 8.421875 -17.125 C 8.453125 -17.300781 8.488281 -17.472656 8.53125 -17.640625 C 8.394531 -17.316406 8.253906 -16.976562 8.109375 -16.625 C 7.960938 -16.28125 7.867188 -15.929688 7.828125 -15.578125 C 7.796875 -15.242188 7.804688 -14.90625 7.859375 -14.5625 C 7.910156 -14.21875 7.953125 -13.898438 7.984375 -13.609375 C 7.984375 -13.734375 8.015625 -13.8125 8.078125 -13.84375 C 8.078125 -13.84375 8.117188 -13.601562 8.203125 -13.125 C 8.285156 -12.65625 8.410156 -12.054688 8.578125 -11.328125 C 8.742188 -10.609375 8.890625 -9.90625 9.015625 -9.21875 C 8.847656 -9.875 8.664062 -10.5625 8.46875 -11.28125 C 8.28125 -12.007812 8.132812 -12.601562 8.03125 -13.0625 C 8.226562 -11.976562 8.445312 -10.898438 8.6875 -9.828125 C 8.9375 -8.765625 9.175781 -7.707031 9.40625 -6.65625 C 9.476562 -6.71875 9.5 -6.847656 9.46875 -7.046875 C 9.53125 -6.847656 9.5625 -6.75 9.5625 -6.75 C 10.644531 -7.3125 11.695312 -7.863281 12.71875 -8.40625 C 13.738281 -8.945312 14.753906 -9.53125 15.765625 -10.15625 C 16.222656 -10.445312 16.679688 -10.796875 17.140625 -11.203125 C 17.609375 -11.617188 18.070312 -11.941406 18.53125 -12.171875 C 19.09375 -12.398438 19.4375 -12.203125 19.5625 -11.578125 Z M -0.34375 5.375 C 0.0195312 5.5 0.390625 5.535156 0.765625 5.484375 C 1.140625 5.441406 1.492188 5.390625 1.828125 5.328125 L 3.203125 4.78125 C 3.234375 4.8125 3.175781 4.875 3.03125 4.96875 C 2.882812 5.070312 2.8125 5.140625 2.8125 5.171875 C 3.363281 4.847656 3.875 4.40625 4.34375 3.84375 L 4.09375 4.046875 C 4.21875 3.910156 4.382812 3.644531 4.59375 3.25 C 4.8125 2.851562 5.007812 2.472656 5.1875 2.109375 C 5.375 1.753906 5.46875 1.546875 5.46875 1.484375 C 5.632812 0.890625 5.734375 0.296875 5.765625 -0.296875 C 5.796875 -0.890625 5.796875 -1.476562 5.765625 -2.0625 C 5.734375 -2.03125 5.679688 -2 5.609375 -1.96875 C 5.546875 -1.9375 5.484375 -1.90625 5.421875 -1.875 L 5.765625 -2.171875 L 5.171875 -1.828125 C 5.335938 -1.890625 5.265625 -1.796875 4.953125 -1.546875 C 4.640625 -1.304688 4.453125 -1.148438 4.390625 -1.078125 L 2.90625 -0.09375 C 2.414062 0.226562 1.914062 0.585938 1.40625 0.984375 C 0.894531 1.378906 0.457031 1.820312 0.09375 2.3125 C -0.03125 2.507812 -0.21875 2.828125 -0.46875 3.265625 C -0.71875 3.710938 -0.863281 4.140625 -0.90625 4.546875 C -0.957031 4.960938 -0.769531 5.238281 -0.34375 5.375 Z M 5.859375 6.796875 C 6.515625 6.503906 7.03125 6.144531 7.40625 5.71875 C 7.789062 5.289062 8.113281 4.8125 8.375 4.28125 C 7.65625 5.300781 6.71875 6.097656 5.5625 6.671875 C 4.414062 7.253906 3.234375 7.578125 2.015625 7.640625 C 3.367188 7.578125 4.648438 7.296875 5.859375 6.796875 Z M 9.46875 -7.1875 C 9.425781 -7.351562 9.378906 -7.5625 9.328125 -7.8125 C 9.285156 -8.0625 9.234375 -8.316406 9.171875 -8.578125 C 9.296875 -8.078125 9.394531 -7.613281 9.46875 -7.1875 Z M 10.109375 -2.0625 C 10.109375 -2.101562 10.097656 -2.144531 10.078125 -2.1875 C 10.054688 -2.238281 10.046875 -2.28125 10.046875 -2.3125 C 10.046875 -2.1875 10.066406 -2.101562 10.109375 -2.0625 Z M 10.109375 -2.0625 "/></g></g></g><g fill="#ffffff" fill-opacity="1"><g transform="translate(109.367794, 173.338078)"><g><path d="M 18.875 -12.171875 C 18.96875 -11.972656 18.988281 -11.804688 18.9375 -11.671875 C 18.894531 -11.546875 18.804688 -11.398438 18.671875 -11.234375 L 17.15625 -9.21875 L 14.484375 -5.765625 C 14.160156 -5.335938 13.800781 -4.910156 13.40625 -4.484375 C 13.007812 -4.054688 12.628906 -3.613281 12.265625 -3.15625 C 11.910156 -2.664062 11.554688 -2.164062 11.203125 -1.65625 C 10.859375 -1.144531 10.472656 -0.660156 10.046875 -0.203125 C 9.617188 0.265625 9.140625 0.726562 8.609375 1.1875 C 8.085938 1.644531 7.535156 2.035156 6.953125 2.359375 C 6.160156 2.785156 5.320312 2.867188 4.4375 2.609375 C 3.8125 2.441406 3.21875 2.171875 2.65625 1.796875 C 2.101562 1.421875 1.613281 0.988281 1.1875 0.5 C 1.050781 0.332031 0.929688 0.179688 0.828125 0.046875 C 0.734375 -0.078125 0.671875 -0.238281 0.640625 -0.4375 C 0.609375 -0.601562 0.582031 -0.769531 0.5625 -0.9375 C 0.550781 -1.101562 0.546875 -1.265625 0.546875 -1.421875 C 0.515625 -1.722656 0.535156 -1.992188 0.609375 -2.234375 C 0.691406 -2.484375 0.75 -2.757812 0.78125 -3.0625 C 0.851562 -3.382812 0.945312 -3.691406 1.0625 -3.984375 C 1.175781 -4.285156 1.25 -4.597656 1.28125 -4.921875 C 1.34375 -5.285156 1.414062 -5.625 1.5 -5.9375 C 1.582031 -6.25 1.640625 -6.570312 1.671875 -6.90625 C 1.703125 -7.195312 1.707031 -7.5 1.6875 -7.8125 C 1.675781 -8.125 1.707031 -8.425781 1.78125 -8.71875 C 1.84375 -8.914062 1.929688 -9.113281 2.046875 -9.3125 C 2.160156 -9.507812 2.25 -9.722656 2.3125 -9.953125 C 2.25 -9.816406 2.164062 -9.675781 2.0625 -9.53125 C 1.96875 -9.382812 1.90625 -9.242188 1.875 -9.109375 C 1.8125 -8.921875 1.742188 -8.726562 1.671875 -8.53125 C 1.609375 -8.332031 1.546875 -8.148438 1.484375 -7.984375 C 1.410156 -7.785156 1.347656 -7.59375 1.296875 -7.40625 C 1.253906 -7.226562 1.203125 -7.039062 1.140625 -6.84375 C 1.035156 -6.613281 0.941406 -6.398438 0.859375 -6.203125 C 0.773438 -6.003906 0.71875 -5.773438 0.6875 -5.515625 C 0.65625 -5.285156 0.644531 -5.0625 0.65625 -4.84375 C 0.675781 -4.632812 0.671875 -4.414062 0.640625 -4.1875 C 0.609375 -3.957031 0.566406 -3.75 0.515625 -3.5625 C 0.460938 -3.382812 0.4375 -3.179688 0.4375 -2.953125 C 0.4375 -2.890625 0.453125 -2.800781 0.484375 -2.6875 C 0.523438 -2.570312 0.546875 -2.484375 0.546875 -2.421875 C 0.546875 -2.316406 0.523438 -2.207031 0.484375 -2.09375 C 0.453125 -1.976562 0.4375 -1.851562 0.4375 -1.71875 C 0.4375 -1.488281 0.453125 -1.265625 0.484375 -1.046875 C 0.523438 -0.835938 0.5625 -0.601562 0.59375 -0.34375 C 0.195312 -1.03125 0 -1.726562 0 -2.4375 C 0 -3.144531 0.0664062 -3.859375 0.203125 -4.578125 C 0.328125 -5.335938 0.445312 -6.066406 0.5625 -6.765625 C 0.675781 -7.472656 0.816406 -8.191406 0.984375 -8.921875 C 1.316406 -10.367188 1.8125 -11.789062 2.46875 -13.1875 C 3.125 -14.582031 3.910156 -15.851562 4.828125 -17 C 5.585938 -18.019531 6.484375 -18.847656 7.515625 -19.484375 C 8.546875 -20.128906 9.71875 -20.320312 11.03125 -20.0625 C 11.53125 -19.957031 12.023438 -19.789062 12.515625 -19.5625 C 13.003906 -19.332031 13.414062 -19.003906 13.75 -18.578125 C 14.113281 -18.117188 14.296875 -17.609375 14.296875 -17.046875 C 14.296875 -16.492188 14.210938 -15.9375 14.046875 -15.375 C 13.710938 -14.425781 13.1875 -13.5625 12.46875 -12.78125 C 11.75 -12.007812 11.007812 -11.296875 10.25 -10.640625 C 9.914062 -10.378906 9.578125 -10.117188 9.234375 -9.859375 C 8.890625 -9.597656 8.539062 -9.347656 8.1875 -9.109375 C 7.945312 -8.984375 7.6875 -8.863281 7.40625 -8.75 C 7.132812 -8.632812 6.867188 -8.523438 6.609375 -8.421875 L 5.765625 -8.125 C 5.597656 -8.09375 5.484375 -8.066406 5.421875 -8.046875 C 5.359375 -8.035156 5.289062 -7.945312 5.21875 -7.78125 C 5.09375 -7.550781 5.046875 -7.3125 5.078125 -7.0625 C 5.109375 -6.820312 5.09375 -6.570312 5.03125 -6.3125 C 5 -5.976562 4.941406 -5.660156 4.859375 -5.359375 C 4.773438 -5.066406 4.695312 -4.757812 4.625 -4.4375 C 4.5 -3.84375 4.378906 -3.191406 4.265625 -2.484375 C 4.148438 -1.773438 4.15625 -1.113281 4.28125 -0.5 C 4.414062 0.125 4.738281 0.410156 5.25 0.359375 C 5.757812 0.316406 6.316406 0.09375 6.921875 -0.3125 C 7.523438 -0.726562 8.085938 -1.164062 8.609375 -1.625 C 9.140625 -2.082031 9.503906 -2.394531 9.703125 -2.5625 C 9.972656 -2.789062 10.210938 -3.019531 10.421875 -3.25 C 10.640625 -3.476562 10.863281 -3.707031 11.09375 -3.9375 C 11.21875 -4.101562 11.34375 -4.25 11.46875 -4.375 C 11.601562 -4.507812 11.722656 -4.644531 11.828125 -4.78125 C 11.828125 -4.78125 11.84375 -4.828125 11.875 -4.921875 C 11.90625 -5.023438 11.921875 -5.09375 11.921875 -5.125 C 12.222656 -5.582031 12.5625 -6.039062 12.9375 -6.5 C 13.3125 -6.957031 13.679688 -7.398438 14.046875 -7.828125 C 14.503906 -8.359375 14.929688 -8.894531 15.328125 -9.4375 C 15.722656 -9.976562 16.132812 -10.53125 16.5625 -11.09375 C 16.726562 -11.320312 16.929688 -11.609375 17.171875 -11.953125 C 17.421875 -12.296875 17.691406 -12.539062 17.984375 -12.6875 C 18.285156 -12.832031 18.566406 -12.675781 18.828125 -12.21875 L 18.828125 -12.171875 C 18.859375 -12.140625 18.875 -12.140625 18.875 -12.171875 Z M 6.65625 -11.625 C 6.519531 -11.394531 6.410156 -11.140625 6.328125 -10.859375 C 6.242188 -10.585938 6.140625 -10.316406 6.015625 -10.046875 C 7.617188 -10.898438 9 -12.003906 10.15625 -13.359375 L 10.984375 -14.4375 C 11.054688 -14.570312 11.148438 -14.6875 11.265625 -14.78125 C 11.378906 -14.882812 11.453125 -15 11.484375 -15.125 C 11.515625 -15.257812 11.515625 -15.382812 11.484375 -15.5 C 11.453125 -15.613281 11.453125 -15.738281 11.484375 -15.875 L 11.671875 -16.90625 C 11.710938 -17.164062 11.664062 -17.515625 11.53125 -17.953125 C 11.394531 -18.398438 11.148438 -18.59375 10.796875 -18.53125 C 10.628906 -18.5 10.460938 -18.390625 10.296875 -18.203125 C 10.128906 -18.023438 10 -17.867188 9.90625 -17.734375 L 9.015625 -16.5625 C 8.492188 -15.800781 8.066406 -15.007812 7.734375 -14.1875 C 7.410156 -13.375 7.066406 -12.570312 6.703125 -11.78125 C 6.703125 -11.78125 6.703125 -11.769531 6.703125 -11.75 C 6.703125 -11.738281 6.6875 -11.695312 6.65625 -11.625 Z M 6.65625 -11.625 "/></g></g><g transform="translate(124.693779, 173.338078)"><g><path d="M 12.90625 -12.125 C 13.007812 -11.664062 12.90625 -11.1875 12.59375 -10.6875 C 12.28125 -10.195312 11.992188 -9.789062 11.734375 -9.46875 C 11.304688 -8.84375 10.882812 -8.234375 10.46875 -7.640625 C 10.0625 -7.046875 9.628906 -6.453125 9.171875 -5.859375 C 8.671875 -5.203125 8.097656 -4.445312 7.453125 -3.59375 C 6.816406 -2.738281 6.070312 -2.210938 5.21875 -2.015625 C 5.09375 -2.015625 4.847656 -2.054688 4.484375 -2.140625 C 4.117188 -2.222656 3.78125 -2.320312 3.46875 -2.4375 C 3.15625 -2.550781 3 -2.660156 3 -2.765625 L 3.109375 -2.765625 C 2.910156 -2.859375 2.832031 -2.851562 2.875 -2.75 C 2.925781 -2.65625 2.804688 -2.722656 2.515625 -2.953125 C 2.285156 -3.117188 2.09375 -3.300781 1.9375 -3.5 C 1.789062 -3.695312 1.640625 -3.910156 1.484375 -4.140625 C 1.210938 -4.503906 0.929688 -4.863281 0.640625 -5.21875 C 0.347656 -5.582031 0.148438 -5.976562 0.046875 -6.40625 C 0.046875 -6.5 0.0351562 -6.710938 0.015625 -7.046875 C 0.00390625 -7.378906 0.015625 -7.691406 0.046875 -7.984375 C 0.078125 -8.273438 0.160156 -8.421875 0.296875 -8.421875 C 0.359375 -8.421875 0.375 -8.378906 0.34375 -8.296875 C 0.3125 -8.222656 0.3125 -8.1875 0.34375 -8.1875 L 0.5 -9.0625 C 0.425781 -8.96875 0.375 -8.90625 0.34375 -8.875 C 0.3125 -8.875 0.328125 -9.050781 0.390625 -9.40625 C 0.460938 -9.769531 0.554688 -10.195312 0.671875 -10.6875 C 0.785156 -11.1875 0.890625 -11.628906 0.984375 -12.015625 C 1.085938 -12.410156 1.15625 -12.644531 1.1875 -12.71875 C 1.382812 -13.238281 1.570312 -13.757812 1.75 -14.28125 C 1.925781 -14.8125 2.265625 -15.226562 2.765625 -15.53125 C 3.117188 -15.789062 3.523438 -15.898438 3.984375 -15.859375 C 4.453125 -15.828125 4.914062 -15.71875 5.375 -15.53125 C 5.570312 -15.457031 5.875 -15.3125 6.28125 -15.09375 C 6.695312 -14.882812 6.90625 -14.648438 6.90625 -14.390625 C 6.90625 -14.253906 6.851562 -14.15625 6.75 -14.09375 C 6.65625 -14.03125 6.570312 -13.960938 6.5 -13.890625 C 6.53125 -13.929688 6.597656 -13.953125 6.703125 -13.953125 C 6.765625 -13.910156 6.679688 -13.707031 6.453125 -13.34375 C 6.222656 -12.988281 6.078125 -12.828125 6.015625 -12.859375 C 5.984375 -12.859375 5.984375 -12.90625 6.015625 -13 C 6.046875 -13.101562 6.078125 -13.1875 6.109375 -13.25 C 5.191406 -11.738281 4.421875 -10.082031 3.796875 -8.28125 C 3.890625 -8.507812 4.050781 -8.894531 4.28125 -9.4375 C 4.507812 -9.976562 4.75 -10.484375 5 -10.953125 C 5.25 -11.429688 5.390625 -11.65625 5.421875 -11.625 C 5.453125 -11.625 5.367188 -11.414062 5.171875 -11 C 4.972656 -10.59375 4.734375 -10.078125 4.453125 -9.453125 C 4.179688 -8.835938 3.9375 -8.207031 3.71875 -7.5625 C 3.507812 -6.925781 3.394531 -6.351562 3.375 -5.84375 C 3.351562 -5.332031 3.507812 -4.992188 3.84375 -4.828125 C 4.101562 -4.691406 4.40625 -4.707031 4.75 -4.875 C 5.09375 -5.039062 5.429688 -5.253906 5.765625 -5.515625 C 6.097656 -5.773438 6.34375 -5.972656 6.5 -6.109375 C 6.957031 -6.472656 7.472656 -6.875 8.046875 -7.3125 C 8.628906 -7.757812 9.082031 -8.195312 9.40625 -8.625 C 9.34375 -8.5625 9.226562 -8.53125 9.0625 -8.53125 C 9.03125 -8.59375 9.117188 -8.800781 9.328125 -9.15625 C 9.546875 -9.519531 9.828125 -9.929688 10.171875 -10.390625 C 10.515625 -10.859375 10.84375 -11.28125 11.15625 -11.65625 C 11.46875 -12.03125 11.675781 -12.253906 11.78125 -12.328125 C 11.945312 -12.453125 12.164062 -12.53125 12.4375 -12.5625 C 12.71875 -12.59375 12.875 -12.445312 12.90625 -12.125 Z M 4.28125 -18.328125 C 4.28125 -18.328125 4.226562 -18.398438 4.125 -18.546875 C 4.03125 -18.703125 3.984375 -18.796875 3.984375 -18.828125 C 3.984375 -18.890625 3.972656 -19.050781 3.953125 -19.3125 C 3.941406 -19.582031 3.960938 -19.832031 4.015625 -20.0625 C 4.066406 -20.289062 4.175781 -20.351562 4.34375 -20.25 C 4.34375 -20.320312 4.429688 -20.460938 4.609375 -20.671875 C 4.785156 -20.890625 4.789062 -20.832031 4.625 -20.5 C 5.050781 -21.0625 5.445312 -21.734375 5.8125 -22.515625 L 5.21875 -21.640625 C 5.445312 -22.097656 5.691406 -22.675781 5.953125 -23.375 C 6.222656 -24.082031 6.375 -24.519531 6.40625 -24.6875 C 6.40625 -24.71875 6.394531 -24.816406 6.375 -24.984375 C 6.363281 -25.148438 6.375 -25.25 6.40625 -25.28125 C 5.882812 -25.476562 5.71875 -25.707031 5.90625 -25.96875 C 6.101562 -26.226562 6.316406 -26.441406 6.546875 -26.609375 C 6.453125 -26.609375 6.390625 -26.640625 6.359375 -26.703125 C 6.253906 -26.804688 6.300781 -26.890625 6.5 -26.953125 C 6.695312 -27.023438 6.832031 -27.078125 6.90625 -27.109375 C 7.257812 -27.265625 7.632812 -27.3125 8.03125 -27.25 C 8.425781 -27.1875 8.785156 -27.070312 9.109375 -26.90625 C 9.378906 -26.738281 9.628906 -26.488281 9.859375 -26.15625 C 10.085938 -25.832031 10.25 -25.523438 10.34375 -25.234375 C 10.445312 -24.898438 10.40625 -24.566406 10.21875 -24.234375 C 10.039062 -23.910156 9.835938 -23.648438 9.609375 -23.453125 C 9.515625 -23.359375 9.390625 -23.269531 9.234375 -23.1875 C 9.085938 -23.101562 8.953125 -23.015625 8.828125 -22.921875 C 8.691406 -22.753906 8.609375 -22.5625 8.578125 -22.34375 C 8.546875 -22.132812 8.460938 -21.945312 8.328125 -21.78125 C 8.265625 -21.644531 8.164062 -21.546875 8.03125 -21.484375 C 7.894531 -21.421875 7.796875 -21.320312 7.734375 -21.1875 C 7.535156 -21.0625 7.519531 -20.914062 7.6875 -20.75 C 7.488281 -20.644531 7.320312 -20.53125 7.1875 -20.40625 C 6.957031 -20.007812 6.742188 -19.6875 6.546875 -19.4375 C 6.359375 -19.195312 6.113281 -18.960938 5.8125 -18.734375 C 6.070312 -18.890625 6.304688 -19.054688 6.515625 -19.234375 C 6.734375 -19.421875 6.957031 -19.679688 7.1875 -20.015625 C 7.582031 -20.503906 8.0625 -20.863281 8.625 -21.09375 C 8.394531 -20.832031 8.210938 -20.550781 8.078125 -20.25 C 7.953125 -19.957031 7.738281 -19.710938 7.4375 -19.515625 C 7.238281 -19.421875 7.128906 -19.394531 7.109375 -19.4375 C 7.097656 -19.488281 7.09375 -19.519531 7.09375 -19.53125 C 7.09375 -19.550781 6.976562 -19.460938 6.75 -19.265625 C 6.75 -19.265625 6.789062 -19.269531 6.875 -19.28125 C 6.957031 -19.300781 6.96875 -19.28125 6.90625 -19.21875 C 6.664062 -19.019531 6.429688 -18.789062 6.203125 -18.53125 C 5.972656 -18.269531 5.710938 -18.070312 5.421875 -17.9375 C 5.285156 -17.90625 5.148438 -17.851562 5.015625 -17.78125 C 4.890625 -17.71875 4.742188 -17.722656 4.578125 -17.796875 C 4.421875 -17.890625 4.347656 -17.984375 4.359375 -18.078125 C 4.378906 -18.179688 4.351562 -18.265625 4.28125 -18.328125 Z M 3.34375 -6.609375 C 3.382812 -6.671875 3.382812 -6.6875 3.34375 -6.65625 L 3.25 -6.265625 L 3.34375 -6.546875 Z M 4.984375 -21.234375 L 5.171875 -21.53125 C 5.140625 -21.4375 5.097656 -21.363281 5.046875 -21.3125 C 5.003906 -21.257812 4.984375 -21.234375 4.984375 -21.234375 Z M 4.484375 -20.296875 C 4.453125 -20.265625 4.421875 -20.25 4.390625 -20.25 C 4.421875 -20.25 4.4375 -20.238281 4.4375 -20.21875 C 4.4375 -20.207031 4.4375 -20.203125 4.4375 -20.203125 C 4.46875 -20.234375 4.484375 -20.265625 4.484375 -20.296875 Z M 4.484375 -20.296875 "/></g></g><g transform="translate(134.007641, 173.338078)"><g><path d="M 20.203125 -11.96875 C 20.265625 -11.644531 20.210938 -11.285156 20.046875 -10.890625 C 19.890625 -10.492188 19.726562 -10.148438 19.5625 -9.859375 C 19.363281 -9.429688 19.140625 -9.019531 18.890625 -8.625 C 18.648438 -8.226562 18.398438 -7.832031 18.140625 -7.4375 C 17.578125 -6.613281 16.988281 -5.785156 16.375 -4.953125 C 15.769531 -4.117188 15.175781 -3.273438 14.59375 -2.421875 C 14 -1.597656 13.375 -0.789062 12.71875 0 C 12.0625 0.789062 11.335938 1.515625 10.546875 2.171875 C 10.441406 2.234375 10.175781 2.425781 9.75 2.75 C 9.320312 3.082031 8.910156 3.394531 8.515625 3.6875 C 8.128906 3.988281 7.898438 4.140625 7.828125 4.140625 C 7.828125 4.109375 7.863281 4.054688 7.9375 3.984375 L 7.59375 4.140625 C 7.71875 4.109375 7.625 4.195312 7.3125 4.40625 C 7 4.625 6.78125 4.765625 6.65625 4.828125 C 5.96875 4.960938 5.289062 4.816406 4.625 4.390625 C 4.300781 4.191406 4.046875 3.941406 3.859375 3.640625 C 3.679688 3.347656 3.507812 3.035156 3.34375 2.703125 C 3.113281 2.148438 2.972656 1.609375 2.921875 1.078125 C 2.878906 0.554688 2.90625 0 3 -0.59375 C 3.039062 -0.6875 3.125 -0.976562 3.25 -1.46875 C 3.382812 -1.96875 3.53125 -2.460938 3.6875 -2.953125 C 3.851562 -3.453125 3.988281 -3.679688 4.09375 -3.640625 C 4.15625 -3.640625 4.148438 -3.570312 4.078125 -3.4375 C 4.015625 -3.3125 4.003906 -3.234375 4.046875 -3.203125 L 4.390625 -4.4375 C 4.359375 -4.4375 4.460938 -4.722656 4.703125 -5.296875 C 4.953125 -5.867188 5.25 -6.53125 5.59375 -7.28125 C 5.9375 -8.039062 6.253906 -8.71875 6.546875 -9.3125 C 6.847656 -9.90625 7.03125 -10.25 7.09375 -10.34375 C 6.375 -10.21875 5.59375 -10.203125 4.75 -10.296875 C 3.914062 -10.398438 3.234375 -10.765625 2.703125 -11.390625 C 2.578125 -11.578125 2.515625 -11.757812 2.515625 -11.9375 C 2.515625 -12.125 2.484375 -12.285156 2.421875 -12.421875 C 2.347656 -12.617188 2.269531 -12.78125 2.1875 -12.90625 C 2.101562 -13.039062 2.03125 -13.191406 1.96875 -13.359375 C 1.84375 -13.953125 1.898438 -14.578125 2.140625 -15.234375 C 2.390625 -15.890625 2.75 -16.460938 3.21875 -16.953125 C 3.695312 -17.441406 4.238281 -17.753906 4.84375 -17.890625 C 5.457031 -18.023438 6.0625 -17.894531 6.65625 -17.5 L 6.546875 -17.640625 C 6.585938 -17.804688 6.703125 -17.765625 6.890625 -17.515625 C 7.085938 -17.273438 7.207031 -17.085938 7.25 -16.953125 C 7.25 -16.890625 7.210938 -16.734375 7.140625 -16.484375 C 7.078125 -16.234375 6.992188 -15.992188 6.890625 -15.765625 C 6.796875 -15.535156 6.703125 -15.4375 6.609375 -15.46875 C 6.566406 -15.46875 6.601562 -15.613281 6.71875 -15.90625 C 6.84375 -16.207031 6.90625 -16.375 6.90625 -16.40625 C 6.738281 -15.945312 6.460938 -15.460938 6.078125 -14.953125 C 5.703125 -14.441406 5.484375 -13.941406 5.421875 -13.453125 C 5.390625 -13.085938 5.453125 -12.863281 5.609375 -12.78125 C 5.773438 -12.707031 6.023438 -12.632812 6.359375 -12.5625 C 6.816406 -12.4375 7.378906 -12.375 8.046875 -12.375 C 8.722656 -12.375 9.359375 -12.289062 9.953125 -12.125 C 9.554688 -12.257812 9.144531 -12.347656 8.71875 -12.390625 C 8.289062 -12.441406 7.914062 -12.484375 7.59375 -12.515625 C 7.59375 -12.515625 7.582031 -12.515625 7.5625 -12.515625 C 7.550781 -12.515625 7.546875 -12.53125 7.546875 -12.5625 C 7.898438 -12.53125 8.265625 -12.5 8.640625 -12.46875 C 9.023438 -12.4375 9.378906 -12.390625 9.703125 -12.328125 C 10.429688 -12.160156 10.972656 -11.898438 11.328125 -11.546875 C 11.691406 -11.203125 11.726562 -10.65625 11.4375 -9.90625 C 11.132812 -9.1875 10.8125 -8.472656 10.46875 -7.765625 C 10.125 -7.054688 9.789062 -6.34375 9.46875 -5.625 C 9.164062 -4.925781 8.882812 -4.21875 8.625 -3.5 C 8.363281 -2.78125 8.097656 -2.054688 7.828125 -1.328125 C 7.796875 -1.160156 7.679688 -0.863281 7.484375 -0.4375 C 7.285156 -0.0078125 7.117188 0.414062 6.984375 0.84375 C 6.859375 1.269531 6.863281 1.5625 7 1.71875 C 7.125 1.851562 7.359375 1.835938 7.703125 1.671875 C 8.054688 1.503906 8.445312 1.25 8.875 0.90625 C 9.300781 0.5625 9.703125 0.21875 10.078125 -0.125 C 10.453125 -0.46875 10.738281 -0.738281 10.9375 -0.9375 C 10.875 -0.875 10.804688 -0.832031 10.734375 -0.8125 C 10.671875 -0.789062 10.609375 -0.75 10.546875 -0.6875 C 10.515625 -0.6875 10.578125 -0.800781 10.734375 -1.03125 C 10.898438 -1.257812 11.085938 -1.503906 11.296875 -1.765625 C 11.515625 -2.035156 11.640625 -2.203125 11.671875 -2.265625 L 13.109375 -4.09375 L 15.765625 -7.59375 L 18.484375 -11.234375 C 18.578125 -11.335938 18.738281 -11.535156 18.96875 -11.828125 C 19.195312 -12.117188 19.4375 -12.320312 19.6875 -12.4375 C 19.9375 -12.550781 20.109375 -12.394531 20.203125 -11.96875 Z M 5.46875 -6.0625 C 5.175781 -5.375 4.890625 -4.675781 4.609375 -3.96875 C 4.328125 -3.257812 4.101562 -2.53125 3.9375 -1.78125 C 4.101562 -2.4375 4.316406 -3.066406 4.578125 -3.671875 C 4.847656 -4.273438 5.097656 -4.875 5.328125 -5.46875 L 6.265625 -7.640625 C 6.359375 -7.804688 6.507812 -8.117188 6.71875 -8.578125 C 6.9375 -9.035156 7.148438 -9.484375 7.359375 -9.921875 C 7.578125 -10.367188 7.71875 -10.609375 7.78125 -10.640625 C 7.6875 -10.609375 7.546875 -10.4375 7.359375 -10.125 C 7.179688 -9.8125 7.023438 -9.5 6.890625 -9.1875 C 6.765625 -8.875 6.6875 -8.6875 6.65625 -8.625 C 6.195312 -7.738281 5.800781 -6.882812 5.46875 -6.0625 Z M 4.28125 3.40625 L 4.28125 3.453125 C 4.21875 3.378906 4.1875 3.328125 4.1875 3.296875 L 4.234375 3.34375 C 4.109375 3.082031 3.992188 2.820312 3.890625 2.5625 C 3.796875 2.300781 3.710938 2.101562 3.640625 1.96875 L 3.796875 2.609375 L 3.59375 1.578125 L 3.59375 1.53125 C 3.5625 1.457031 3.546875 1.410156 3.546875 1.390625 C 3.546875 1.378906 3.546875 1.375 3.546875 1.375 C 3.546875 1.375 3.546875 1.378906 3.546875 1.390625 C 3.546875 1.410156 3.5625 1.441406 3.59375 1.484375 L 3.59375 1.234375 C 3.5625 0.867188 3.5625 0.53125 3.59375 0.21875 C 3.625 -0.09375 3.660156 -0.410156 3.703125 -0.734375 L 3.703125 -0.78125 C 3.597656 -0.351562 3.546875 0.0859375 3.546875 0.546875 C 3.484375 1.171875 3.535156 1.796875 3.703125 2.421875 C 3.734375 2.484375 3.828125 2.675781 3.984375 3 C 4.148438 3.332031 4.300781 3.597656 4.4375 3.796875 C 4.4375 3.734375 4.421875 3.703125 4.390625 3.703125 C 4.710938 3.992188 5.085938 4.222656 5.515625 4.390625 C 5.253906 4.285156 5.023438 4.144531 4.828125 3.96875 C 4.628906 3.789062 4.445312 3.601562 4.28125 3.40625 Z M 5.671875 -12.859375 C 5.535156 -12.929688 5.46875 -13.0625 5.46875 -13.25 C 5.5 -13.21875 5.5625 -13.148438 5.65625 -13.046875 C 5.757812 -12.953125 5.8125 -12.90625 5.8125 -12.90625 C 6.039062 -12.75 6.367188 -12.632812 6.796875 -12.5625 C 6.566406 -12.59375 6.351562 -12.625 6.15625 -12.65625 C 5.957031 -12.695312 5.796875 -12.765625 5.671875 -12.859375 Z M 10.84375 -9.015625 L 10.84375 -9.0625 L 9.8125 -6.84375 Z M 3.75 -0.9375 C 3.75 -0.90625 3.738281 -0.890625 3.71875 -0.890625 C 3.707031 -0.890625 3.703125 -0.875 3.703125 -0.84375 L 3.703125 -0.78125 C 3.703125 -0.820312 3.707031 -0.847656 3.71875 -0.859375 C 3.738281 -0.878906 3.75 -0.90625 3.75 -0.9375 Z M 10.890625 -9.171875 L 10.84375 -9.109375 L 10.890625 -9.109375 Z M 10.890625 -9.171875 L 10.84375 -9.109375 L 10.890625 -9.109375 Z M 3.796875 -1.578125 C 3.796875 -1.609375 3.800781 -1.640625 3.8125 -1.671875 C 3.832031 -1.703125 3.84375 -1.738281 3.84375 -1.78125 C 3.84375 -1.738281 3.832031 -1.703125 3.8125 -1.671875 C 3.800781 -1.640625 3.796875 -1.609375 3.796875 -1.578125 Z M 3.984375 2.953125 C 3.984375 2.984375 3.992188 3 4.015625 3 C 4.035156 3 4.046875 3.019531 4.046875 3.0625 C 4.046875 3.019531 4.035156 2.988281 4.015625 2.96875 C 3.992188 2.957031 3.984375 2.953125 3.984375 2.953125 Z M 5.515625 -13.359375 L 5.46875 -13.3125 C 5.46875 -13.3125 5.46875 -13.316406 5.46875 -13.328125 C 5.46875 -13.347656 5.484375 -13.359375 5.515625 -13.359375 Z M 5.515625 -13.359375 "/></g></g></g><g fill="#ffffff" fill-opacity="1"><g transform="translate(150.614893, 173.338078)"><g><path d="M 25.078125 -11.875 C 25.148438 -11.3125 24.988281 -10.75 24.59375 -10.1875 C 24.195312 -9.632812 23.898438 -9.128906 23.703125 -8.671875 C 23.378906 -7.953125 23.035156 -7.242188 22.671875 -6.546875 C 22.304688 -5.859375 21.925781 -5.1875 21.53125 -4.53125 C 21.070312 -3.8125 20.601562 -3.097656 20.125 -2.390625 C 19.65625 -1.679688 19.140625 -1 18.578125 -0.34375 C 18.148438 0.21875 17.628906 0.789062 17.015625 1.375 C 16.410156 1.96875 15.734375 2.332031 14.984375 2.46875 C 14.160156 2.59375 13.425781 2.375 12.78125 1.8125 C 12.144531 1.257812 11.695312 0.625 11.4375 -0.09375 C 10.84375 -1.539062 10.675781 -3.007812 10.9375 -4.5 C 11.195312 -6 11.539062 -7.457031 11.96875 -8.875 C 11.96875 -8.875 11.96875 -8.960938 11.96875 -9.140625 C 11.96875 -9.316406 11.988281 -9.488281 12.03125 -9.65625 C 11.789062 -9.289062 11.515625 -8.90625 11.203125 -8.5 C 10.898438 -8.09375 10.628906 -7.707031 10.390625 -7.34375 C 10.097656 -6.882812 9.828125 -6.421875 9.578125 -5.953125 C 9.335938 -5.492188 9.050781 -5.035156 8.71875 -4.578125 C 8.65625 -4.484375 8.394531 -4.164062 7.9375 -3.625 C 7.476562 -3.082031 6.957031 -2.5 6.375 -1.875 C 5.800781 -1.25 5.269531 -0.742188 4.78125 -0.359375 C 4.289062 0.015625 3.976562 0.101562 3.84375 -0.09375 C 3.84375 -0.09375 3.941406 -0.140625 4.140625 -0.234375 C 4.335938 -0.335938 4.421875 -0.40625 4.390625 -0.4375 C 3.765625 -0.0078125 3.070312 0.0859375 2.3125 -0.140625 C 2.476562 -0.046875 2.546875 0 2.515625 0 C 2.148438 0.03125 1.8125 -0.0976562 1.5 -0.390625 C 1.1875 -0.691406 0.921875 -1.035156 0.703125 -1.421875 C 0.492188 -1.816406 0.34375 -2.148438 0.25 -2.421875 C 0.0507812 -3.109375 -0.0351562 -3.820312 -0.015625 -4.5625 C -0.00390625 -5.300781 0.0664062 -6.015625 0.203125 -6.703125 C 0.460938 -8.148438 0.882812 -9.613281 1.46875 -11.09375 C 2.0625 -12.570312 2.769531 -13.914062 3.59375 -15.125 C 3.820312 -15.425781 4.050781 -15.734375 4.28125 -16.046875 C 4.507812 -16.359375 4.789062 -16.628906 5.125 -16.859375 C 5.320312 -17.015625 5.507812 -17.132812 5.6875 -17.21875 C 5.875 -17.300781 6.082031 -17.410156 6.3125 -17.546875 C 6.664062 -17.867188 7.03125 -18.144531 7.40625 -18.375 C 7.789062 -18.613281 8.242188 -18.734375 8.765625 -18.734375 C 9.585938 -18.734375 10.253906 -18.476562 10.765625 -17.96875 C 11.273438 -17.457031 11.675781 -16.835938 11.96875 -16.109375 C 12.269531 -15.390625 12.503906 -14.71875 12.671875 -14.09375 C 13.054688 -14.625 13.535156 -15.125 14.109375 -15.59375 C 14.691406 -16.070312 15.300781 -16.351562 15.9375 -16.4375 C 16.582031 -16.519531 17.203125 -16.179688 17.796875 -15.421875 C 18.285156 -14.828125 18.4375 -14.289062 18.25 -13.8125 C 18.070312 -13.34375 17.851562 -12.828125 17.59375 -12.265625 C 17.132812 -11.410156 16.722656 -10.484375 16.359375 -9.484375 C 15.992188 -8.484375 15.71875 -7.539062 15.53125 -6.65625 C 15.5625 -6.71875 15.609375 -6.878906 15.671875 -7.140625 C 15.734375 -7.410156 15.816406 -7.5625 15.921875 -7.59375 C 15.984375 -7.625 15.960938 -7.382812 15.859375 -6.875 C 15.765625 -6.363281 15.632812 -5.742188 15.46875 -5.015625 C 15.3125 -4.296875 15.191406 -3.59375 15.109375 -2.90625 C 15.023438 -2.21875 15.039062 -1.675781 15.15625 -1.28125 C 15.269531 -0.882812 15.53125 -0.773438 15.9375 -0.953125 C 16.351562 -1.140625 16.988281 -1.757812 17.84375 -2.8125 C 18.59375 -3.757812 19.3125 -4.734375 20 -5.734375 C 20.695312 -6.742188 21.375 -7.753906 22.03125 -8.765625 C 22.320312 -9.234375 22.613281 -9.710938 22.90625 -10.203125 C 23.207031 -10.691406 23.523438 -11.164062 23.859375 -11.625 C 23.953125 -11.757812 24.097656 -11.914062 24.296875 -12.09375 C 24.492188 -12.28125 24.671875 -12.378906 24.828125 -12.390625 C 24.992188 -12.410156 25.078125 -12.238281 25.078125 -11.875 Z M 10.9375 -11.53125 C 11.070312 -11.726562 11.144531 -11.859375 11.15625 -11.921875 C 11.175781 -11.992188 11.1875 -12.128906 11.1875 -12.328125 C 11.1875 -12.453125 11.101562 -12.769531 10.9375 -13.28125 C 10.769531 -13.789062 10.628906 -14.289062 10.515625 -14.78125 C 10.398438 -15.28125 10.378906 -15.5625 10.453125 -15.625 C 10.484375 -15.65625 10.539062 -15.546875 10.625 -15.296875 C 10.707031 -15.054688 10.785156 -14.8125 10.859375 -14.5625 C 10.941406 -14.3125 10.984375 -14.171875 10.984375 -14.140625 C 10.953125 -14.335938 10.894531 -14.625 10.8125 -15 C 10.726562 -15.382812 10.601562 -15.738281 10.4375 -16.0625 C 10.28125 -16.394531 10.050781 -16.5625 9.75 -16.5625 C 9.226562 -16.5625 8.738281 -16.296875 8.28125 -15.765625 C 7.820312 -15.242188 7.4375 -14.65625 7.125 -14 C 6.8125 -13.34375 6.554688 -12.816406 6.359375 -12.421875 C 5.867188 -11.304688 5.414062 -10.164062 5 -9 C 4.59375 -7.832031 4.289062 -6.640625 4.09375 -5.421875 C 4.125 -5.585938 4.242188 -6.015625 4.453125 -6.703125 C 4.671875 -7.390625 4.941406 -8.203125 5.265625 -9.140625 C 5.597656 -10.078125 5.9375 -10.992188 6.28125 -11.890625 C 6.625 -12.796875 6.953125 -13.546875 7.265625 -14.140625 C 7.578125 -14.734375 7.816406 -15.03125 7.984375 -15.03125 C 7.847656 -15 7.648438 -14.71875 7.390625 -14.1875 C 7.128906 -13.664062 6.84375 -13.007812 6.53125 -12.21875 C 6.21875 -11.425781 5.910156 -10.628906 5.609375 -9.828125 C 5.316406 -9.023438 5.070312 -8.316406 4.875 -7.703125 C 4.675781 -7.097656 4.5625 -6.734375 4.53125 -6.609375 C 4.5 -6.472656 4.414062 -6.15625 4.28125 -5.65625 C 4.15625 -5.164062 4.082031 -4.691406 4.0625 -4.234375 C 4.050781 -3.773438 4.160156 -3.5 4.390625 -3.40625 C 4.546875 -3.363281 4.765625 -3.457031 5.046875 -3.6875 C 5.328125 -3.925781 5.585938 -4.203125 5.828125 -4.515625 C 6.078125 -4.828125 6.238281 -5.03125 6.3125 -5.125 C 7.257812 -6.269531 8.144531 -7.453125 8.96875 -8.671875 L 10.25 -10.5 C 10.34375 -10.664062 10.445312 -10.835938 10.5625 -11.015625 C 10.6875 -11.191406 10.8125 -11.363281 10.9375 -11.53125 Z M 12.078125 -9.109375 L 12.515625 -10.296875 L 12.265625 -9.953125 C 12.234375 -9.890625 12.191406 -9.734375 12.140625 -9.484375 C 12.097656 -9.234375 12.078125 -9.109375 12.078125 -9.109375 Z M 11.328125 -12.171875 C 11.460938 -12.304688 11.460938 -12.472656 11.328125 -12.671875 Z M 11.328125 -12.171875 "/></g></g><g transform="translate(172.10084, 173.338078)"><g><path d="M 19.5625 -11.578125 L 19.5625 -11.53125 C 19.625 -11.007812 19.453125 -10.515625 19.046875 -10.046875 C 18.640625 -9.585938 18.164062 -9.1875 17.625 -8.84375 C 17.082031 -8.5 16.628906 -8.195312 16.265625 -7.9375 C 15.535156 -7.40625 14.8125 -6.898438 14.09375 -6.421875 C 13.375 -5.953125 12.617188 -5.503906 11.828125 -5.078125 C 11.628906 -4.972656 11.398438 -4.867188 11.140625 -4.765625 C 10.878906 -4.671875 10.648438 -4.546875 10.453125 -4.390625 C 10.179688 -4.160156 10.046875 -4.003906 10.046875 -3.921875 C 10.046875 -3.835938 10.066406 -3.597656 10.109375 -3.203125 C 10.171875 -2.773438 10.222656 -2.332031 10.265625 -1.875 C 10.316406 -1.414062 10.34375 -0.957031 10.34375 -0.5 C 10.375 0.195312 10.347656 0.890625 10.265625 1.578125 C 10.191406 2.265625 10.019531 2.9375 9.75 3.59375 C 9.164062 5.101562 8.289062 6.3125 7.125 7.21875 C 5.957031 8.125 4.519531 8.5625 2.8125 8.53125 C 1.789062 8.488281 0.820312 8.296875 -0.09375 7.953125 C -1.019531 7.609375 -1.742188 7.070312 -2.265625 6.34375 C -2.796875 5.625 -2.960938 4.722656 -2.765625 3.640625 C -2.796875 3.679688 -2.832031 3.847656 -2.875 4.140625 C -2.925781 4.429688 -2.96875 4.5625 -3 4.53125 C -3.164062 4.4375 -3.195312 4.191406 -3.09375 3.796875 C -3 3.398438 -2.9375 3.132812 -2.90625 3 C -2.613281 2.082031 -2.113281 1.257812 -1.40625 0.53125 C -0.695312 -0.1875 0.015625 -0.820312 0.734375 -1.375 C 1.160156 -1.707031 1.578125 -2.03125 1.984375 -2.34375 C 2.398438 -2.65625 2.820312 -2.941406 3.25 -3.203125 C 3.582031 -3.398438 4.023438 -3.644531 4.578125 -3.9375 C 5.140625 -4.238281 5.4375 -4.550781 5.46875 -4.875 C 5.53125 -5.238281 5.453125 -5.722656 5.234375 -6.328125 C 5.023438 -6.941406 4.875 -7.425781 4.78125 -7.78125 C 4.675781 -8.238281 4.554688 -8.710938 4.421875 -9.203125 C 4.296875 -9.703125 4.203125 -10.195312 4.140625 -10.6875 C 4.109375 -11.019531 4.113281 -11.300781 4.15625 -11.53125 C 4.207031 -11.757812 4.203125 -12.023438 4.140625 -12.328125 C 4.003906 -12.710938 3.882812 -13.09375 3.78125 -13.46875 C 3.6875 -13.851562 3.625 -14.257812 3.59375 -14.6875 C 3.5625 -15.113281 3.5625 -15.53125 3.59375 -15.9375 C 3.625 -16.351562 3.707031 -16.757812 3.84375 -17.15625 C 3.9375 -17.445312 4.148438 -17.804688 4.484375 -18.234375 C 4.816406 -18.660156 5.203125 -19.046875 5.640625 -19.390625 C 6.085938 -19.734375 6.539062 -19.960938 7 -20.078125 C 7.457031 -20.191406 7.851562 -20.101562 8.1875 -19.8125 C 8.1875 -19.945312 8.289062 -19.859375 8.5 -19.546875 C 8.71875 -19.234375 8.84375 -18.992188 8.875 -18.828125 C 8.875 -18.765625 8.851562 -18.566406 8.8125 -18.234375 C 8.78125 -17.898438 8.722656 -17.585938 8.640625 -17.296875 C 8.566406 -17.003906 8.476562 -16.859375 8.375 -16.859375 C 8.375 -16.859375 8.390625 -16.945312 8.421875 -17.125 C 8.453125 -17.300781 8.488281 -17.472656 8.53125 -17.640625 C 8.394531 -17.316406 8.253906 -16.976562 8.109375 -16.625 C 7.960938 -16.28125 7.867188 -15.929688 7.828125 -15.578125 C 7.796875 -15.242188 7.804688 -14.90625 7.859375 -14.5625 C 7.910156 -14.21875 7.953125 -13.898438 7.984375 -13.609375 C 7.984375 -13.734375 8.015625 -13.8125 8.078125 -13.84375 C 8.078125 -13.84375 8.117188 -13.601562 8.203125 -13.125 C 8.285156 -12.65625 8.410156 -12.054688 8.578125 -11.328125 C 8.742188 -10.609375 8.890625 -9.90625 9.015625 -9.21875 C 8.847656 -9.875 8.664062 -10.5625 8.46875 -11.28125 C 8.28125 -12.007812 8.132812 -12.601562 8.03125 -13.0625 C 8.226562 -11.976562 8.445312 -10.898438 8.6875 -9.828125 C 8.9375 -8.765625 9.175781 -7.707031 9.40625 -6.65625 C 9.476562 -6.71875 9.5 -6.847656 9.46875 -7.046875 C 9.53125 -6.847656 9.5625 -6.75 9.5625 -6.75 C 10.644531 -7.3125 11.695312 -7.863281 12.71875 -8.40625 C 13.738281 -8.945312 14.753906 -9.53125 15.765625 -10.15625 C 16.222656 -10.445312 16.679688 -10.796875 17.140625 -11.203125 C 17.609375 -11.617188 18.070312 -11.941406 18.53125 -12.171875 C 19.09375 -12.398438 19.4375 -12.203125 19.5625 -11.578125 Z M -0.34375 5.375 C 0.0195312 5.5 0.390625 5.535156 0.765625 5.484375 C 1.140625 5.441406 1.492188 5.390625 1.828125 5.328125 L 3.203125 4.78125 C 3.234375 4.8125 3.175781 4.875 3.03125 4.96875 C 2.882812 5.070312 2.8125 5.140625 2.8125 5.171875 C 3.363281 4.847656 3.875 4.40625 4.34375 3.84375 L 4.09375 4.046875 C 4.21875 3.910156 4.382812 3.644531 4.59375 3.25 C 4.8125 2.851562 5.007812 2.472656 5.1875 2.109375 C 5.375 1.753906 5.46875 1.546875 5.46875 1.484375 C 5.632812 0.890625 5.734375 0.296875 5.765625 -0.296875 C 5.796875 -0.890625 5.796875 -1.476562 5.765625 -2.0625 C 5.734375 -2.03125 5.679688 -2 5.609375 -1.96875 C 5.546875 -1.9375 5.484375 -1.90625 5.421875 -1.875 L 5.765625 -2.171875 L 5.171875 -1.828125 C 5.335938 -1.890625 5.265625 -1.796875 4.953125 -1.546875 C 4.640625 -1.304688 4.453125 -1.148438 4.390625 -1.078125 L 2.90625 -0.09375 C 2.414062 0.226562 1.914062 0.585938 1.40625 0.984375 C 0.894531 1.378906 0.457031 1.820312 0.09375 2.3125 C -0.03125 2.507812 -0.21875 2.828125 -0.46875 3.265625 C -0.71875 3.710938 -0.863281 4.140625 -0.90625 4.546875 C -0.957031 4.960938 -0.769531 5.238281 -0.34375 5.375 Z M 5.859375 6.796875 C 6.515625 6.503906 7.03125 6.144531 7.40625 5.71875 C 7.789062 5.289062 8.113281 4.8125 8.375 4.28125 C 7.65625 5.300781 6.71875 6.097656 5.5625 6.671875 C 4.414062 7.253906 3.234375 7.578125 2.015625 7.640625 C 3.367188 7.578125 4.648438 7.296875 5.859375 6.796875 Z M 9.46875 -7.1875 C 9.425781 -7.351562 9.378906 -7.5625 9.328125 -7.8125 C 9.285156 -8.0625 9.234375 -8.316406 9.171875 -8.578125 C 9.296875 -8.078125 9.394531 -7.613281 9.46875 -7.1875 Z M 10.109375 -2.0625 C 10.109375 -2.101562 10.097656 -2.144531 10.078125 -2.1875 C 10.054688 -2.238281 10.046875 -2.28125 10.046875 -2.3125 C 10.046875 -2.1875 10.066406 -2.101562 10.109375 -2.0625 Z M 10.109375 -2.0625 "/></g></g></g></svg>